<svg width="62" height="62" viewBox="0 0 62 62" fill="none" xmlns="http://www.w3.org/2000/svg">
<g clip-path="url(#clip0)">
<path d="M52.4856 11.6043C48.5331 9.82185 44.2964 8.50435 39.866 7.75518C39.8266 7.74761 39.7857 7.75249 39.7492 7.76915C39.7126 7.78581 39.6821 7.81343 39.6619 7.84818C39.1194 8.80143 38.5149 10.044 38.0913 11.0257C33.3924 10.3236 28.6154 10.3236 23.9165 11.0257C23.4446 9.93774 22.9125 8.87693 22.3226 7.84818C22.3026 7.813 22.2724 7.78476 22.2359 7.76722C22.1994 7.74968 22.1585 7.74368 22.1185 7.75001C17.6907 8.49918 13.454 9.81668 9.49894 11.6018C9.46491 11.616 9.43606 11.6404 9.41627 11.6715C1.37694 23.4903 -0.826646 35.0171 0.255771 46.3993C0.258783 46.4271 0.267436 46.4541 0.281204 46.4785C0.294971 46.503 0.313565 46.5243 0.335854 46.5413C5.0282 49.9576 10.2619 52.56 15.8178 54.2397C15.8565 54.2516 15.8979 54.2516 15.9366 54.2396C15.9753 54.2276 16.0095 54.2042 16.0348 54.1725C17.2283 52.5708 18.2926 50.8788 19.2019 49.1014C19.2562 48.9981 19.2045 48.8741 19.096 48.8328C17.4272 48.2043 15.8102 47.4459 14.26 46.5646C14.2322 46.5487 14.2087 46.5261 14.1917 46.4989C14.1747 46.4717 14.1648 46.4407 14.1627 46.4087C14.1607 46.3767 14.1666 46.3447 14.18 46.3155C14.1933 46.2864 14.2138 46.261 14.2394 46.2417C14.5649 46.0014 14.8904 45.7508 15.2004 45.5003C15.2283 45.4777 15.2619 45.4634 15.2974 45.4588C15.333 45.4543 15.3692 45.4597 15.4019 45.4744C25.5466 50.0314 36.5335 50.0314 46.5594 45.4744C46.5922 45.4588 46.6287 45.4527 46.6648 45.4568C46.7009 45.4609 46.7351 45.4751 46.7635 45.4977C47.0735 45.7508 47.3964 46.0014 47.7245 46.2417C47.7504 46.2606 47.7711 46.2856 47.7849 46.3145C47.7987 46.3434 47.8051 46.3753 47.8036 46.4073C47.8021 46.4393 47.7926 46.4704 47.7761 46.4979C47.7596 46.5253 47.7366 46.5482 47.709 46.5646C46.1642 47.4533 44.5574 48.205 42.8704 48.8302C42.8445 48.8396 42.8209 48.8544 42.8012 48.8737C42.7815 48.8929 42.7661 48.9162 42.7561 48.9418C42.746 48.9675 42.7416 48.995 42.7431 49.0225C42.7445 49.0501 42.7518 49.077 42.7645 49.1014C43.6945 50.8762 44.7589 52.5657 45.9291 54.1699C45.9534 54.2028 45.9873 54.2275 46.0262 54.2404C46.065 54.2533 46.1069 54.254 46.1461 54.2423C51.7115 52.5673 56.9537 49.9637 61.6513 46.5413C61.6742 46.5253 61.6934 46.5046 61.7077 46.4805C61.7219 46.4565 61.7309 46.4296 61.7339 46.4018C63.0256 33.2423 59.5691 21.8085 52.5657 11.6767C52.5485 11.6438 52.5201 11.6181 52.4856 11.6043ZM20.7184 39.4682C17.6649 39.4682 15.1461 36.7066 15.1461 33.3198C15.1461 29.9305 17.6158 27.1715 20.7184 27.1715C23.8442 27.1715 26.3397 29.9538 26.2906 33.3198C26.2906 36.7092 23.8209 39.4682 20.7184 39.4682ZM41.3204 39.4682C38.2644 39.4682 35.7482 36.7066 35.7482 33.3198C35.7482 29.9305 38.2153 27.1715 41.3204 27.1715C44.4463 27.1715 46.9418 29.9538 46.8927 33.3198C46.8927 36.7092 44.4489 39.4682 41.3204 39.4682Z" fill="#6E6E7D"/>
</g>
<defs>
<clipPath id="clip0">
<rect width="62" height="62" fill="white"/>
</clipPath>
</defs>
</svg>
