<svg width="82" height="82" viewBox="0 0 82 82" fill="none" xmlns="http://www.w3.org/2000/svg">
<path d="M65.8 59.4H59.6V32.275L41 43.9L22.4 32.275V59.4H16.2V22.2H19.92L41 35.375L62.08 22.2H65.8V59.4ZM65.8 16H16.2C12.759 16 10 18.759 10 22.2V59.4C10 61.0443 10.6532 62.6213 11.8159 63.7841C12.9787 64.9468 14.5557 65.6 16.2 65.6H65.8C67.4443 65.6 69.0213 64.9468 70.1841 63.7841C71.3468 62.6213 72 61.0443 72 59.4V22.2C72 20.5557 71.3468 18.9787 70.1841 17.8159C69.0213 16.6532 67.4443 16 65.8 16Z" fill="#6E6E7D"/>
</svg>
