<svg width="71" height="72" viewBox="0 0 71 72" fill="none" xmlns="http://www.w3.org/2000/svg">
<path d="M6.2489 33.1926H47.2445" stroke="#FDF7F7" stroke-width="5.44656" stroke-linecap="round" stroke-linejoin="round"/>
<path d="M6.2489 50.762H38.4597" stroke="#FDF7F7" stroke-width="5.44656" stroke-linecap="round" stroke-linejoin="round"/>
<path d="M6.2489 15.6228H58.9575" stroke="#FDF7F7" stroke-width="5.44656" stroke-linecap="round" stroke-linejoin="round"/>
<path d="M58.9576 55.1543C58.9576 56.3193 58.4948 57.4365 57.6711 58.2602C56.8473 59.084 55.7301 59.5467 54.5652 59.5467C53.4002 59.5467 52.283 59.084 51.4593 58.2602C50.6356 57.4365 50.1728 56.3193 50.1728 55.1543C50.1728 53.9894 50.6356 52.8722 51.4593 52.0485C52.283 51.2247 53.4002 50.762 54.5652 50.762C55.7301 50.762 56.8473 51.2247 57.6711 52.0485C58.4948 52.8722 58.9576 53.9894 58.9576 55.1543Z" fill="#FDF7F7"/>
<path d="M58.9576 55.1546V32.0214C58.9576 31.5554 59.1427 31.1085 59.4722 30.779C59.8017 30.4495 60.2486 30.2644 60.7145 30.2644H64.8141M58.9576 55.1546C58.9576 56.3195 58.4948 57.4367 57.6711 58.2605C56.8473 59.0842 55.7301 59.547 54.5652 59.547C53.4002 59.547 52.283 59.0842 51.4593 58.2605C50.6356 57.4367 50.1728 56.3195 50.1728 55.1546C50.1728 53.9897 50.6356 52.8724 51.4593 52.0487C52.283 51.225 53.4002 50.7622 54.5652 50.7622C55.7301 50.7622 56.8473 51.225 57.6711 52.0487C58.4948 52.8724 58.9576 53.9897 58.9576 55.1546Z" stroke="#FDF7F7" stroke-width="5.44656" stroke-linecap="round"/>
</svg>
