<svg width="211" height="211" viewBox="0 0 211 211" fill="none" xmlns="http://www.w3.org/2000/svg">
<path d="M121.307 23.9994L187.434 121.307L90.1263 187.434L23.9995 90.1263L121.307 23.9994Z" fill="#14279B"/>
<path d="M78.7848 26.7152L184.285 78.7848L132.215 184.285L26.7152 132.215L78.7848 26.7152Z" fill="#B5CFE8"/>
<path d="M67.5676 114.149C67.5676 113.518 67.6537 112.944 67.8258 112.428C67.998 111.911 68.0266 111.251 67.9119 110.448C69.6906 106.661 71.6988 103.161 73.9365 99.9479C76.2316 96.6774 78.957 93.8085 82.1128 91.3413C82.6292 90.9397 83.0308 90.538 83.3177 90.1364C83.662 89.6774 83.9776 89.247 84.2645 88.8454C84.6087 88.4437 84.9817 88.0995 85.3833 87.8126C85.785 87.4683 86.3014 87.2388 86.9325 87.1241C88.3669 85.4601 90.0883 83.9396 92.0965 82.5626C94.1047 81.1855 96.199 79.8658 98.3793 78.6035C100.56 77.3412 102.74 76.0502 104.92 74.7305C107.158 73.4109 109.166 71.9764 110.945 70.4272C111.576 70.8289 112.064 70.9723 112.408 70.8576C112.81 70.6854 113.211 70.6567 113.613 70.7715C114.129 71.8617 114.789 72.6363 115.593 73.0953C116.453 73.4969 117.314 73.9273 118.175 74.3863C119.093 74.7879 119.925 75.3043 120.67 75.9355C121.474 76.5092 122.076 77.3125 122.478 78.3453C122.076 78.3453 121.875 78.4888 121.875 78.7756C121.933 79.0625 122.019 79.3781 122.134 79.7224C122.248 80.0666 122.306 80.3822 122.306 80.6691C122.306 80.956 122.047 81.0994 121.531 81.0994C121.531 81.5011 121.732 81.7019 122.134 81.7019C122.535 81.7019 122.736 81.9027 122.736 82.3044C122.736 82.6486 122.65 82.9355 122.478 83.165C122.363 83.3372 122.363 83.6527 122.478 84.1117C121.101 85.0298 119.552 85.9191 117.83 86.7798C116.166 87.5831 114.388 88.4437 112.494 89.3618C110.658 90.2798 108.765 91.2839 106.814 92.3741C104.92 93.4069 103.027 94.6118 101.133 95.9889C99.24 97.3659 97.3178 98.8864 95.367 100.55C93.4735 102.214 91.6375 103.993 89.8588 105.886C88.0801 107.723 86.4161 109.645 84.8669 111.653C83.3177 113.604 81.9981 115.526 80.9079 117.419C81.0226 117.706 81.1661 117.964 81.3382 118.194C81.5677 118.423 81.7399 118.682 81.8546 118.969C84.0349 119.083 86.0718 119.083 87.9653 118.969C89.8588 118.796 91.7522 118.911 93.6457 119.313C93.8752 119.141 94.0186 118.911 94.076 118.624C94.1334 118.337 94.3055 118.137 94.5924 118.022C98.4941 117.62 102.138 116.989 105.523 116.128C108.908 115.21 112.351 114.292 115.851 113.374C114.818 112.973 113.9 112.657 113.097 112.428C112.752 112.083 112.752 111.796 113.097 111.567C113.498 111.28 113.814 110.993 114.043 110.706C113.125 110.19 112.351 109.501 111.72 108.641C111.146 107.78 110.802 106.661 110.687 105.284C111.088 104.94 111.289 104.538 111.289 104.079C111.289 103.62 111.088 103.247 110.687 102.96C110.4 102.845 110.228 102.845 110.17 102.96C110.113 103.075 110.056 103.19 109.998 103.304C109.998 103.419 109.941 103.534 109.826 103.649C109.769 103.764 109.625 103.764 109.396 103.649C109.453 103.018 109.597 102.501 109.826 102.1C110.056 101.698 110.228 101.21 110.342 100.636L117.486 95.9028C118.232 96.4766 119.15 97.079 120.24 97.7102C121.33 98.3414 122.478 98.9725 123.683 99.6037C124.888 100.235 126.121 100.895 127.384 101.583C128.646 102.214 129.822 102.845 130.912 103.477C131.945 103.936 132.834 104.509 133.58 105.198C134.326 105.829 135.043 106.518 135.732 107.264C136.421 107.952 137.109 108.641 137.798 109.329C138.486 110.018 139.318 110.591 140.294 111.05C140.179 111.968 140.236 112.714 140.466 113.288C140.695 113.862 140.753 114.55 140.638 115.354C139.548 117.305 138.228 118.969 136.679 120.346C135.13 121.665 133.38 122.813 131.429 123.788C129.535 124.764 127.498 125.596 125.318 126.284C123.138 126.915 120.9 127.546 118.605 128.178C116.31 128.751 113.986 129.383 111.633 130.071C109.338 130.702 107.072 131.448 104.834 132.309C103.859 132.309 103.027 132.337 102.338 132.395C101.65 132.452 100.99 132.538 100.359 132.653C99.7277 132.768 99.0965 132.883 98.4654 132.997C97.8342 133.112 97.1457 133.198 96.3998 133.256C96.1129 133.198 95.9121 133.256 95.7973 133.428C95.7399 133.6 95.6252 133.743 95.4531 133.858C94.3055 134.03 93.2727 134.116 92.3547 134.116C91.4366 134.116 90.662 134.116 90.0309 134.116C89.2276 134.116 88.3956 134.231 87.535 134.46C86.6743 134.69 85.871 134.776 85.1251 134.719C79.9612 134.489 75.916 132.653 72.9898 129.21C70.0635 125.768 68.457 121.034 68.1701 115.009C68.2275 114.723 68.1701 114.55 67.998 114.493C67.8258 114.378 67.6824 114.264 67.5676 114.149Z" fill="#14279B"/>
</svg>
