<svg width="62" height="62" viewBox="0 0 62 62" fill="none" xmlns="http://www.w3.org/2000/svg">
<path d="M56.1875 0H5.8125C2.61563 0 0 2.61563 0 5.8125V56.1875C0 59.3844 2.61563 62 5.8125 62H56.1875C59.3844 62 62 59.3844 62 56.1875V5.8125C62 2.61563 59.3844 0 56.1875 0ZM23.25 50.375H15.5V23.25H23.25V50.375ZM19.375 19.375C18.3473 19.375 17.3617 18.9667 16.635 18.24C15.9083 17.5133 15.5 16.5277 15.5 15.5C15.5 14.4723 15.9083 13.4867 16.635 12.76C17.3617 12.0333 18.3473 11.625 19.375 11.625C20.4027 11.625 21.3883 12.0333 22.115 12.76C22.8417 13.4867 23.25 14.4723 23.25 15.5C23.25 16.5277 22.8417 17.5133 22.115 18.24C21.3883 18.9667 20.4027 19.375 19.375 19.375ZM50.375 50.375H42.625V34.875C42.625 33.8473 42.2167 32.8617 41.49 32.135C40.7633 31.4083 39.7777 31 38.75 31C37.7223 31 36.7367 31.4083 36.01 32.135C35.2833 32.8617 34.875 33.8473 34.875 34.875V50.375H27.125V23.25H34.875V28.0589C36.4715 25.8656 38.9205 23.25 41.6562 23.25C46.4767 23.25 50.375 27.5861 50.375 32.9375V50.375Z" fill="#6E6E7D"/>
</svg>
