<svg width="62" height="62" viewBox="0 0 62 62" fill="none" xmlns="http://www.w3.org/2000/svg">
<g clip-path="url(#clip0)">
<path d="M21.3719 18.7214V40.4808L15.9392 40.4731V26.9984L10.695 33.2087L5.55675 26.8589L5.50508 40.5118H0.00258333L0 18.7214H5.69108L10.509 25.296L15.7144 18.7188L21.3719 18.7214ZM43.6609 24.0663L43.7255 40.4317H37.6159L37.5952 33.015H30.3619C30.5427 34.3041 30.9044 36.2855 31.4392 37.6107C31.8396 38.595 32.209 39.5508 32.9453 40.5247L28.5407 43.431C27.6391 41.788 26.9338 39.9771 26.2725 38.0525C25.6109 36.2357 25.1711 34.3457 24.9627 32.4234C24.7432 30.4859 24.7122 28.6233 25.2392 26.7091C25.7572 24.8484 26.7981 23.1754 28.2384 21.8886C29.047 21.1317 30.1733 20.5969 31.0801 20.1138C31.9868 19.6307 32.9995 19.4318 33.9398 19.1864C34.9509 18.9455 35.9799 18.7874 37.0166 18.7137C38.0448 18.6258 39.8763 18.5432 43.1908 18.6413L44.5987 23.1596H37.4842C35.9522 23.1802 35.216 23.1622 34.0199 23.6995C33.0708 24.1482 32.262 24.847 31.6803 25.721C31.0986 26.5949 30.7661 27.6108 30.7184 28.6595L37.5978 28.7447L37.696 24.0689H43.6609V24.0663ZM53.9736 18.6439V35.7637L62 35.8463L60.8892 40.4317H48.4711V18.5664L53.9736 18.6439Z" fill="#6E6E7D"/>
</g>
<defs>
<clipPath id="clip0">
<rect width="62" height="62" fill="white"/>
</clipPath>
</defs>
</svg>
