<svg width="348" height="83" viewBox="0 0 348 83" fill="none" xmlns="http://www.w3.org/2000/svg">
<path d="M5.88453 61.6863C5.75661 61.7106 5.55469 61.7291 5.27877 61.7417C5.03278 61.5631 4.79139 61.3042 4.55461 60.9648C4.32819 60.6102 4.13011 60.2303 3.96036 59.8252C3.80097 59.4049 3.68117 58.9836 3.60096 58.5615C3.53112 58.1241 3.53496 57.7258 3.61247 57.3665C3.61004 57.3537 3.63844 57.1892 3.69767 56.8732C3.76969 56.5546 3.8591 56.1533 3.96591 55.6691C4.0703 55.1721 4.19175 54.6255 4.33029 54.0293C4.4664 53.4203 4.60493 52.824 4.7459 52.2406C4.88687 51.6572 5.02476 51.1273 5.15959 50.6511C5.30478 50.1596 5.43743 49.7765 5.55755 49.5019C5.63865 49.3009 5.70817 49.1088 5.76612 48.9255C5.83686 48.7397 5.90363 48.568 5.96644 48.4103C6.0634 48.1533 6.15122 47.9179 6.22989 47.7042C6.31892 47.4752 6.41921 47.2706 6.53076 47.0903C6.65266 46.8949 6.79222 46.7226 6.94944 46.5734C7.10422 46.4115 7.30102 46.2614 7.53985 46.1233C7.70551 46.1581 7.85319 46.2029 7.9829 46.2578C8.11018 46.2999 8.22831 46.3636 8.3373 46.4489L8.44591 46.7066C8.4885 46.7913 8.53903 46.8479 8.59749 46.8766C8.66631 46.89 8.71991 46.8931 8.75829 46.8858C8.93188 46.8926 9.08109 46.9106 9.20594 46.9399C9.34115 46.954 9.48033 46.954 9.62347 46.9401C9.68922 47.0071 9.74858 47.0754 9.80154 47.1448C9.86729 47.2119 9.93183 47.2725 9.99515 47.3267C10.3215 47.6491 10.6006 47.9672 10.8325 48.281C11.0644 48.5947 11.1361 48.9721 11.0476 49.413L11.1069 49.6205C11.1879 49.6979 11.2357 49.7749 11.2502 49.8517C11.2648 49.9284 11.2727 50.0396 11.2738 50.1852C11.2805 50.2899 11.2896 50.4075 11.3011 50.5378C11.323 50.653 11.3665 50.7772 11.4316 50.9107L11.595 51.0386C11.8192 51.1021 12.0272 51.1156 12.219 51.0791C12.4749 51.0305 12.6942 50.9292 12.877 50.7752C13.0598 50.6212 13.2298 50.4696 13.387 50.3204C13.5083 50.1914 13.6204 50.0839 13.7234 49.9981C13.8391 49.9098 13.9522 49.842 14.0624 49.7945C14.2824 49.4876 14.483 49.2176 14.664 48.9844C14.8553 48.736 15.0531 48.4863 15.2573 48.2355C15.6473 47.777 16.0197 47.2954 16.3744 46.7906C16.7267 46.2731 16.97 45.6702 17.1043 44.982C17.228 44.8657 17.3794 44.7905 17.5585 44.7565C17.7376 44.7225 17.9239 44.7268 18.1176 44.7695C18.3088 44.7995 18.5025 44.8422 18.6986 44.8977C18.7419 44.916 18.7775 44.9291 18.8055 44.9371C18.8463 44.9426 18.8883 44.9544 18.9316 44.9727C18.9583 45.1135 19.0402 45.2304 19.1772 45.3237C19.2508 45.3627 19.3017 45.3862 19.3297 45.3941C19.3577 45.402 19.3857 45.41 19.4138 45.4179C19.5282 45.4624 19.6223 45.5042 19.696 45.5432C19.7825 45.5798 19.8534 45.6392 19.9088 45.7215C20.0896 46.045 20.3325 46.2771 20.6376 46.418C20.6387 46.5635 20.6718 46.703 20.737 46.8365C20.7996 46.9571 20.8687 47.0765 20.9442 47.1947C20.9795 47.241 21.0084 47.2885 21.0309 47.3373C21.051 47.3732 21.0799 47.4207 21.1176 47.4798L20.6882 47.5217L20.826 47.9329C20.9057 48.143 20.9327 48.3897 20.907 48.6729C20.894 48.9537 20.8574 49.1794 20.797 49.3499C20.8955 49.7288 20.9666 50.0334 21.0104 50.2636C21.0517 50.4811 21.0778 50.6882 21.0887 50.8849C21.0996 51.0817 21.09 51.2757 21.0601 51.4669C21.0405 51.6429 21.0042 51.8354 20.9511 52.0443C21.187 53.0067 21.2408 53.9177 21.1125 54.777C20.997 55.634 20.8462 56.4446 20.66 57.2089C20.6387 57.3057 20.6161 57.3962 20.5923 57.4802C20.5685 57.5643 20.5511 57.6471 20.5401 57.7287C20.4067 57.7938 20.2873 57.8629 20.1819 57.9359C20.0765 58.009 19.9787 58.0872 19.8885 58.1706C19.7648 58.2869 19.6387 58.3904 19.5101 58.4811C19.3791 58.559 19.2369 58.6125 19.0834 58.6417C18.3843 58.3106 17.9174 57.5975 17.6828 56.5022C17.461 55.4045 17.4315 53.9589 17.5944 52.1652C17.6718 52.0842 17.6919 51.981 17.6548 51.8555L17.6147 51.6444L17.4192 51.6617C17.3552 51.6738 17.2989 51.6912 17.2501 51.7137C17.2014 51.7362 17.174 51.801 17.1678 51.9082C16.8144 52.2802 16.425 52.6723 15.9996 53.0845C15.5847 53.4814 15.1469 53.8628 14.6862 54.2286C14.2232 54.5817 13.74 54.8988 13.2368 55.18C12.7439 55.4459 12.248 55.6263 11.7491 55.7211C10.4699 55.9641 9.38019 55.4953 8.47988 54.3144L8.24157 54.0019L8.10802 54.3453C8.0818 54.4166 8.03575 54.5579 7.96987 54.7692C7.91435 54.9653 7.85851 55.1946 7.80236 55.4571C7.75899 55.7171 7.72324 55.9824 7.6951 56.2528C7.67975 56.5208 7.70309 56.7483 7.76514 56.9353C7.63837 57.1052 7.51525 57.2943 7.39577 57.5025C7.28908 57.7083 7.22564 57.9325 7.20542 58.1749C7.19199 58.2437 7.19775 58.3089 7.22269 58.3704C7.24521 58.4191 7.27533 58.473 7.31307 58.5321C7.31729 58.6241 7.30386 58.6929 7.27278 58.7386C7.24169 58.7843 7.20421 58.8312 7.16033 58.8792C7.10853 58.9554 7.05793 59.0379 7.00856 59.1268C6.95675 59.2029 6.91377 59.2906 6.87962 59.3898C6.86861 59.4715 6.86522 59.5582 6.86945 59.6502C6.87124 59.7294 6.87181 59.8022 6.87117 59.8686C6.89791 60.0093 6.89695 60.1089 6.8683 60.1673C6.79142 60.4603 6.71882 60.706 6.65051 60.9045C6.59257 61.0879 6.52733 61.2328 6.4548 61.3393C6.38227 61.4459 6.29726 61.5217 6.19979 61.5667C6.11754 61.6221 6.01245 61.662 5.88453 61.6863ZM31.8913 45.2738C31.9211 45.3609 31.9345 45.4312 31.9314 45.4848C31.9387 45.5232 31.9396 45.5628 31.9341 45.6036C31.9414 45.642 31.9499 45.6868 31.9596 45.7379C31.9669 45.7763 31.9919 45.8378 32.0345 45.9225C31.8485 46.4085 31.5922 46.7686 31.2656 47.003C30.9494 47.2221 30.5939 47.409 30.1991 47.5635C29.8019 47.7052 29.3932 47.8558 28.9728 48.0152C28.5653 48.1721 28.1747 48.4186 27.8012 48.7547C27.6228 48.7223 27.4693 48.7515 27.3407 48.8422C27.2249 48.9304 27.0367 48.9861 26.776 49.0091C26.7138 49.1004 26.6288 49.1762 26.521 49.2365C26.4107 49.2839 26.3017 49.3378 26.1938 49.3981C26.2669 49.5035 26.3092 49.6213 26.3207 49.7517C26.3425 49.8668 26.38 49.9591 26.4329 50.0286C26.8879 49.9819 27.3792 49.8819 27.9067 49.7287C28.4471 49.573 28.9783 49.4389 29.5003 49.3265C29.5252 49.388 29.5274 49.434 29.5066 49.4644C29.4835 49.4821 29.4832 49.5153 29.5057 49.564C29.6074 49.611 29.7127 49.6771 29.8217 49.7624C29.9283 49.835 30.0348 49.9075 30.1414 49.98C30.2479 50.0525 30.3521 50.1123 30.4538 50.1592C30.5658 50.191 30.6846 50.1883 30.8101 50.1512C30.8807 50.2438 30.9345 50.3528 30.9716 50.4783C31.0191 50.5886 31.0294 50.7125 31.0025 50.8502C30.8246 51.0298 30.6479 51.2158 30.4724 51.4082C30.2944 51.5878 30.1013 51.757 29.8929 51.9159C29.6973 52.0723 29.4789 52.2132 29.2376 52.3386C29.0067 52.4487 28.7366 52.5266 28.4271 52.5721C28.3632 52.5843 28.312 52.594 28.2736 52.6013C28.248 52.6061 28.206 52.5943 28.1476 52.5656C28.0574 52.649 27.9139 52.6961 27.7172 52.707C27.5332 52.7155 27.3962 52.7614 27.306 52.8448C27.1531 52.8076 26.9756 52.8148 26.7733 52.8665C26.5814 52.9029 26.4039 52.9102 26.2407 52.8882C26.087 53.1957 25.9562 53.5187 25.8483 53.8573C25.7403 54.1959 25.6552 54.5501 25.5929 54.9198C26.04 54.9011 26.403 54.8586 26.682 54.7924C26.9738 54.7237 27.2452 54.6522 27.4961 54.578C27.7447 54.491 28.0008 54.4092 28.2646 54.3326C28.5259 54.2432 28.8625 54.166 29.2743 54.101C29.5034 53.9117 29.787 53.765 30.1251 53.661C30.4735 53.5418 30.7851 53.4031 31.0599 53.2448C31.1695 53.2638 31.2724 53.3171 31.3686 53.4049C31.4624 53.4798 31.5498 53.556 31.6308 53.6334C31.7221 53.6956 31.8122 53.7513 31.9011 53.8007C31.99 53.8501 32.0908 53.8575 32.2035 53.8228C32.2644 53.8642 32.3085 53.9221 32.3359 53.9964C32.3736 54.0555 32.405 54.1159 32.4299 54.1774C32.4549 54.2389 32.485 54.2928 32.5203 54.3391C32.566 54.3702 32.626 54.3721 32.7003 54.3447C32.5886 54.8033 32.4267 55.172 32.2146 55.4509C32.0129 55.7145 31.7631 55.9343 31.4652 56.1102C31.1672 56.2861 30.8261 56.4437 30.4417 56.583C30.0701 56.7199 29.6561 56.878 29.1998 57.0575C29.0896 57.105 28.9924 57.1168 28.9084 57.093C28.8268 57.082 28.7348 57.0862 28.6324 57.1057C28.3504 57.2255 28.0095 57.3499 27.6099 57.4789C27.2103 57.6078 26.7982 57.706 26.3736 57.7734C25.9491 57.8408 25.5352 57.8598 25.132 57.8304C24.7312 57.8138 24.3862 57.707 24.097 57.5102C23.9776 57.4401 23.8878 57.3511 23.8276 57.2433C23.7777 57.1202 23.6763 57.0401 23.5235 57.0028C23.4791 56.839 23.4182 56.6583 23.341 56.461C23.2637 56.2636 23.1852 56.0598 23.1055 55.8496C23.0234 55.6267 22.9489 55.4089 22.882 55.1963C22.8279 54.9812 22.803 54.7805 22.8074 54.5942C22.8093 54.395 22.8532 54.2077 22.9392 54.0323C23.0379 53.8545 23.0511 53.6797 22.9787 53.5079C23.0402 53.483 23.0725 53.4437 23.0756 53.3901C23.0762 53.3237 23.1225 53.2884 23.2145 53.2842C23.2475 53.0394 23.2894 52.8061 23.34 52.5844C23.3907 52.3627 23.4425 52.1474 23.4956 51.9385C23.5615 51.7272 23.621 51.5171 23.6741 51.3082C23.7375 51.0841 23.7909 50.842 23.8343 50.582C23.6236 50.4497 23.4553 50.2961 23.3293 50.1213C23.2136 49.9312 23.1184 49.7438 23.0436 49.5592C22.9663 49.3619 22.8954 49.1633 22.8309 48.9634C22.764 48.7508 22.678 48.5419 22.5727 48.3366C22.6641 48.1204 22.7885 47.9377 22.9457 47.7886C23.1133 47.6242 23.2985 47.483 23.5014 47.3649C23.7043 47.2468 23.9288 47.1379 24.1749 47.0381C24.421 46.9383 24.6787 46.8297 24.948 46.7123C25.428 46.4488 25.8578 46.2346 26.2374 46.0697C26.6297 45.9024 27.0129 45.7567 27.3869 45.6326C27.7713 45.4933 28.1697 45.358 28.5822 45.2266C28.9946 45.0952 29.4597 44.9273 29.9775 44.7229C30.1145 44.8161 30.2342 44.8531 30.3365 44.8336C30.3658 44.7088 30.4173 44.6658 30.491 44.7049C30.575 44.7286 30.5997 44.6842 30.565 44.5715C30.7343 44.7647 30.9294 44.9198 31.1505 45.0368C31.3819 45.1386 31.6288 45.2176 31.8913 45.2738ZM42.5379 43.1316C42.617 43.4082 42.708 43.6427 42.8108 43.8352C42.9137 44.0278 43.0217 44.2127 43.1349 44.39C43.2329 44.5569 43.3245 44.725 43.4097 44.8944C43.5052 45.0486 43.5889 45.2447 43.6606 45.4829C43.6215 45.8349 43.6031 46.1565 43.6054 46.4477C43.6205 46.7364 43.6316 47.0391 43.6388 47.3558C43.5192 47.8425 43.3962 48.2767 43.27 48.6585C43.1437 49.0404 43.0473 49.3701 42.9808 49.6478C42.929 49.724 42.886 49.8117 42.8519 49.9109C42.8281 49.995 42.7991 50.0866 42.765 50.1859C42.7467 50.2291 42.7256 50.2928 42.7018 50.3768C42.678 50.4608 42.6558 50.5181 42.6351 50.5485L42.2258 50.4871L42.2402 50.9814L41.9861 51.1092L41.838 51.3759C41.6751 51.8442 41.4874 52.251 41.2746 52.5963C41.0595 52.9287 40.8011 53.2429 40.4994 53.5388C40.2082 53.8194 39.8633 54.097 39.4648 54.3716C39.0791 54.6436 38.6395 54.9458 38.146 55.2782C37.9237 55.2939 37.7294 55.3176 37.5631 55.3492C37.4072 55.3656 37.2576 55.3807 37.1145 55.3947C36.8714 55.4408 36.5672 55.4788 36.2017 55.5084C36.1439 55.4134 36.073 55.354 35.9889 55.3302C35.9049 55.3064 35.8309 55.3006 35.7669 55.3127C35.53 55.2517 35.3358 55.1362 35.1842 54.9662C35.043 54.781 34.8993 54.5829 34.7532 54.3721C34.6625 54.2436 34.5743 54.1278 34.4884 54.0248C34.4002 53.9091 34.3055 53.7945 34.2044 53.6812L34.5124 53.5233L34.0028 53.143C33.9699 53.1094 33.9318 53.0835 33.8886 53.0652C33.8429 53.0342 33.8037 53.0019 33.7708 52.9683L33.6933 52.665C33.4872 51.7896 33.3149 50.9874 33.1763 50.2582C33.0482 49.5139 33.0253 48.8356 33.1078 48.2235L33.0677 48.0125C33.0526 47.7238 33.0473 47.4862 33.0516 47.2998C33.0535 47.1007 33.0515 46.9155 33.0455 46.7443C33.0304 46.4556 33.0381 46.1825 33.0687 45.9248C33.2405 45.8524 33.3614 45.7565 33.4315 45.6372C33.4992 45.5051 33.5565 45.3881 33.6035 45.2864C33.7801 45.2396 33.9065 45.2421 33.9826 45.2939C34.0587 45.3457 34.1421 45.4359 34.2328 45.5645C34.3187 45.6674 34.4197 45.7808 34.536 45.9045C34.6651 46.0257 34.8328 46.1065 35.0393 46.1468C35.0843 46.2443 35.137 46.347 35.1972 46.4548C35.2678 46.5474 35.3409 46.6528 35.4163 46.771C35.56 46.969 35.6933 47.1823 35.8162 47.4107C35.9495 47.624 36.0432 47.8381 36.0973 48.0531C36.0156 48.3205 35.9667 48.6214 35.9507 48.9558C35.9475 49.2877 35.9647 49.6224 36.0023 49.9599C36.0503 50.2821 36.1163 50.5943 36.2002 50.8964C36.2945 51.1833 36.3994 51.4219 36.515 51.6119L36.6776 51.8395L36.9965 51.7392C37.3608 51.5639 37.6855 51.3896 37.9706 51.2161C38.2661 51.0274 38.5324 50.8244 38.7694 50.6071C39.0065 50.3897 39.2259 50.1492 39.4276 49.8856C39.6269 49.6092 39.8329 49.2983 40.0456 48.9531C40.2584 48.6078 40.4254 48.2315 40.5468 47.824C40.6786 47.4014 40.7695 46.9732 40.8197 46.5396C40.8826 46.1035 40.9084 45.6811 40.897 45.2724C40.896 44.8485 40.8742 44.455 40.8318 44.092C41.0346 43.9739 41.1142 43.7997 41.0705 43.5695L40.992 43.3657C40.9262 43.2987 40.9092 43.2091 40.9409 43.0971C40.9715 42.8394 41.1154 42.6199 41.3725 42.4385C41.6014 42.5276 41.8073 42.6343 41.9899 42.7586C42.1854 42.8805 42.3681 43.0048 42.5379 43.1316ZM43.4515 45.3238C43.49 45.0382 43.587 44.7812 43.7424 44.5529C43.9106 44.3221 44.0977 44.1209 44.3036 43.9492C44.5199 43.7623 44.7475 43.5998 44.9863 43.4616C45.2252 43.3235 45.4536 43.2006 45.6717 43.0928C46.1421 42.7782 46.6469 42.4702 47.186 42.1689C47.7356 41.8525 48.2964 41.5604 48.8684 41.2926C49.4533 41.0225 50.0619 40.8074 50.6942 40.6475C51.3241 40.4748 52.0102 40.424 52.7527 40.495C52.8153 40.6156 52.896 40.7262 52.9946 40.8267C53.0933 40.9273 53.1919 41.0278 53.2905 41.1284C53.4019 41.2265 53.5005 41.327 53.5864 41.43C53.6698 41.5202 53.7288 41.6216 53.7635 41.7343C53.9133 41.8251 54.0399 41.9336 54.1434 42.0598C54.2445 42.1731 54.2901 42.3433 54.2802 42.5705C54.1717 42.6972 54.0621 42.8174 53.9511 42.9313C53.8506 43.0299 53.7361 43.1246 53.6075 43.2153C53.1123 43.1901 52.6253 43.2428 52.1465 43.3736C51.6677 43.5043 51.2389 43.6189 50.86 43.7174C50.723 43.6242 50.5713 43.5933 50.405 43.6249C50.2515 43.6541 50.0901 43.7113 49.9207 43.7965C49.7641 43.8792 49.6012 43.9632 49.4318 44.0484C49.2752 44.1312 49.1178 44.1743 48.9594 44.1779C48.8509 44.3046 48.7044 44.4053 48.5198 44.4801C48.3456 44.5397 48.1522 44.603 47.9396 44.6699C47.9389 44.7363 47.9602 44.7786 48.0035 44.7969C48.0443 44.8024 48.0579 44.8396 48.0445 44.9084C48.1383 44.9834 48.2464 45.0291 48.3688 45.0456C48.504 45.0597 48.6392 45.0737 48.7744 45.0878C48.9224 45.0995 49.0537 45.1275 49.1682 45.1721C49.2802 45.2038 49.3676 45.28 49.4303 45.4006C49.6222 45.3641 49.797 45.3773 49.9547 45.4401C50.1124 45.5029 50.2482 45.5898 50.362 45.7007C50.4759 45.8116 50.5666 45.9401 50.6341 46.0864C50.712 46.2173 50.7619 46.3404 50.7838 46.4555C50.8416 46.5506 50.8949 46.5868 50.9436 46.5643C50.9924 46.5418 51.0548 46.5565 51.1309 46.6083C51.2009 46.7673 51.3296 46.9217 51.5172 47.0717C51.7023 47.2088 51.859 47.3712 51.9875 47.5588C52.0738 47.8738 52.1477 48.158 52.2091 48.4114C52.2681 48.652 52.2707 48.9099 52.217 49.1852C52.115 49.695 51.9266 50.1681 51.6517 50.6047C51.3896 51.0389 51.069 51.4444 50.69 51.8213C50.3213 52.1829 49.9134 52.5122 49.4662 52.8092C49.019 53.1063 48.5785 53.3689 48.1447 53.5971C48.0911 53.594 48.0399 53.6038 47.9912 53.6263C47.9425 53.6488 47.9236 53.6192 47.9346 53.5376C47.8493 53.6466 47.7451 53.7261 47.622 53.7759C47.5117 53.8234 47.385 53.8541 47.2419 53.868C47.1012 53.8948 46.9529 53.9163 46.7969 53.9327C46.6538 53.9467 46.5207 53.9786 46.3976 54.0285C46.2911 53.9559 46.1909 53.8822 46.0971 53.8072C46.0186 53.7426 45.948 53.65 45.8853 53.5294C45.8214 53.5415 45.7833 53.5156 45.7711 53.4517C45.7718 53.3853 45.7465 53.3569 45.6953 53.3667C45.7478 53.2242 45.7664 53.1477 45.7512 53.1374C45.7463 53.1118 45.7235 53.0962 45.6827 53.0907C45.6547 53.0828 45.6267 53.0749 45.5986 53.067C45.5682 53.0462 45.5557 53.0155 45.5612 52.9747C45.5929 52.8626 45.5903 52.7438 45.5532 52.6183C45.5136 52.4801 45.4741 52.3418 45.4346 52.2035C45.3951 52.0652 45.3759 51.9297 45.3772 51.7969C45.3913 51.6617 45.4678 51.5411 45.6067 51.4352C46.0513 51.4037 46.4583 51.3132 46.8274 51.1635C47.207 50.9986 47.5549 50.8066 47.8711 50.5875C48.1873 50.3683 48.4819 50.1401 48.7549 49.9027C49.0406 49.6628 49.3237 49.4434 49.6039 49.2443C49.6204 49.1219 49.6534 49.0162 49.7028 48.9273C49.7649 48.836 49.8283 48.7511 49.8929 48.6725C49.9575 48.594 50.0145 48.5102 50.0639 48.4213C50.1132 48.3324 50.1398 48.228 50.1435 48.108C50.1393 48.016 50.104 47.9697 50.0376 47.9691C49.9815 47.9532 49.9462 47.9069 49.9317 47.8302L49.7097 47.8127C49.4399 47.7182 49.143 47.6553 48.8189 47.6241C48.4925 47.5801 48.2096 47.5212 47.9703 47.4474C47.8441 47.5509 47.7135 47.5956 47.5783 47.5815C47.4558 47.565 47.295 47.5558 47.0959 47.5539C46.6561 47.6109 46.2254 47.6463 45.8039 47.6602C45.3952 47.6715 44.9896 47.6293 44.587 47.5335C44.5493 47.4744 44.5064 47.4229 44.4583 47.3791C44.4102 47.3352 44.3374 47.3358 44.2399 47.3808C44.1437 47.293 44.0488 47.2117 43.955 47.1367C43.8588 47.049 43.7678 46.9536 43.6819 46.8506C43.6784 46.6923 43.6732 46.5607 43.6666 46.4559C43.6575 46.3384 43.5985 46.2369 43.4895 46.1516C43.5091 45.9756 43.5219 45.834 43.5281 45.7268C43.5342 45.6196 43.5087 45.4853 43.4515 45.3238ZM60.3076 46.3557C60.2808 46.215 60.2757 46.0835 60.2922 45.961C60.3087 45.8386 60.2872 45.6903 60.2275 45.5161C60.4637 44.5965 60.7631 43.7311 61.1259 42.9199C61.4991 42.0936 61.9852 41.3385 62.5842 40.6548C62.6823 40.5434 62.7548 40.4368 62.8018 40.3351C62.8591 40.2182 62.9112 40.1089 62.9582 40.0072C63.0179 39.9031 63.0865 39.8105 63.1639 39.7295C63.2388 39.6358 63.3442 39.5627 63.4801 39.5104C63.7294 39.0787 64.0488 38.6668 64.4381 38.2747C64.8275 37.8826 65.2385 37.4997 65.6712 37.1259C66.1038 36.7521 66.5352 36.372 66.9654 35.9854C67.4084 35.5964 67.7953 35.1915 68.1263 34.7708C68.284 34.8336 68.3988 34.8449 68.4707 34.8048C68.5529 34.7494 68.6413 34.726 68.7357 34.7345C68.897 34.9557 69.0769 35.1004 69.2754 35.1687C69.4843 35.2218 69.6944 35.2813 69.9057 35.3472C70.1274 35.3978 70.3348 35.4777 70.5278 35.5868C70.7312 35.6807 70.8996 35.8343 71.0329 36.0476C70.9433 36.0646 70.9046 36.1051 70.9168 36.169C70.9417 36.2305 70.9743 36.2973 71.0144 36.3691C71.0546 36.441 71.0808 36.509 71.0929 36.5729C71.1051 36.6369 71.0536 36.6798 70.9384 36.7017C70.9555 36.7912 71.0087 36.8275 71.0983 36.8105C71.1878 36.7935 71.2411 36.8297 71.2581 36.9193C71.2727 36.996 71.2657 37.0636 71.237 37.1221C71.2187 37.1653 71.2321 37.2357 71.2771 37.3331C71.009 37.5961 70.7013 37.86 70.354 38.1248C70.017 38.3744 69.6569 38.6416 69.2737 38.9265C68.9032 39.209 68.5236 39.513 68.1349 39.8387C67.7565 40.1492 67.3854 40.498 67.0216 40.8852C66.6578 41.2724 66.2937 41.6929 65.9292 42.1465C65.5776 42.5976 65.2436 43.072 64.9272 43.5694C64.6085 44.0541 64.3189 44.5531 64.0586 45.0665C63.7959 45.567 63.5831 46.0515 63.4202 46.5198C63.458 46.5789 63.5009 46.6304 63.549 46.6743C63.6099 46.7157 63.6592 46.766 63.6969 46.8251C64.1879 46.7583 64.642 46.672 65.0593 46.5662C65.4741 46.4476 65.9011 46.393 66.3403 46.4024C66.3841 46.3543 66.4064 46.297 66.407 46.2306C66.4077 46.1642 66.4375 46.1122 66.4966 46.0744C67.3495 45.8196 68.135 45.5246 68.8533 45.1893C69.5691 44.8412 70.2978 44.4907 71.0392 44.1378C70.7919 44.092 70.5739 44.0605 70.3851 44.0434C70.2937 43.9812 70.2816 43.9172 70.3486 43.8515C70.426 43.7705 70.4842 43.6932 70.5232 43.6195C70.2967 43.5433 70.0948 43.4226 69.9177 43.2574C69.7533 43.0899 69.6291 42.855 69.5452 42.5529C69.6202 42.4591 69.6479 42.361 69.6285 42.2587C69.6091 42.1564 69.5485 42.0817 69.4468 42.0348C69.378 42.0213 69.3396 42.0286 69.3317 42.0567C69.3237 42.0847 69.3158 42.1127 69.3079 42.1407C69.3127 42.1663 69.3048 42.1943 69.2841 42.2247C69.2761 42.2528 69.2442 42.2588 69.1881 42.243C69.1742 42.0998 69.1843 41.9786 69.2184 41.8794C69.2526 41.7801 69.2703 41.6641 69.2716 41.5313L70.6637 40.1734C70.8543 40.2697 71.0845 40.3651 71.3543 40.4596C71.624 40.5542 71.9066 40.6463 72.202 40.7359C72.4974 40.8256 72.8003 40.9205 73.1109 41.0205C73.4191 41.1077 73.708 41.1986 73.9778 41.2932C74.2275 41.3517 74.4501 41.442 74.6456 41.5639C74.8386 41.673 75.0277 41.7961 75.2128 41.9333C75.3954 42.0576 75.5781 42.1819 75.7608 42.3063C75.9434 42.4306 76.1532 42.5233 76.3901 42.5843C76.4035 42.7938 76.4478 42.9577 76.5233 43.0759C76.5988 43.1941 76.6407 43.3452 76.6492 43.5291C76.4888 44.0102 76.265 44.4371 75.978 44.8097C75.6885 45.1696 75.347 45.4995 74.9534 45.7996C74.5725 46.0973 74.1537 46.3691 73.6967 46.6149C73.2374 46.848 72.7652 47.0835 72.2803 47.3214C71.7929 47.5466 71.3016 47.7857 70.8063 48.0389C70.3213 48.2768 69.8476 48.5391 69.3852 48.8258C69.1677 48.8671 68.9835 48.9087 68.8324 48.9507C68.6813 48.9927 68.5379 49.0398 68.402 49.0921C68.2662 49.1444 68.1303 49.1968 67.9945 49.2491C67.8586 49.3014 67.7087 49.3498 67.5449 49.3941C67.4785 49.3935 67.4362 49.4148 67.4179 49.458C67.4124 49.4988 67.3929 49.5357 67.3593 49.5686C67.1108 49.6555 66.8842 49.7185 66.6795 49.7574C66.4748 49.7963 66.3021 49.8291 66.1614 49.8558C65.9823 49.8898 65.8017 49.9507 65.6196 50.0383C65.4374 50.1259 65.262 50.1791 65.0932 50.1979C63.9322 50.3655 62.9526 50.1275 62.1544 49.4839C61.3562 48.8404 60.7975 47.8531 60.4783 46.5221C60.479 46.4557 60.4589 46.4198 60.4181 46.4143C60.3748 46.396 60.338 46.3765 60.3076 46.3557ZM86.7683 40.0757C86.7847 40.2316 86.8255 40.3763 86.8906 40.5097C86.9557 40.6431 87.0272 40.7753 87.1051 40.9063C87.1934 41.0221 87.2764 41.1454 87.3543 41.2764C87.4322 41.4074 87.4974 41.5408 87.5497 41.6767C87.6093 41.8509 87.647 42.0492 87.6627 42.2715C87.676 42.4811 87.6701 42.6942 87.645 42.9111C87.6175 43.1151 87.5684 43.31 87.4977 43.4957C87.4245 43.6687 87.3249 43.8069 87.1987 43.9104C87.0634 44.1747 86.88 44.3951 86.6484 44.5716C86.4169 44.7481 86.2094 44.9466 86.026 45.167C85.9023 45.2833 85.7545 45.3776 85.5827 45.45C85.4237 45.52 85.2583 45.5912 85.0865 45.6636C84.9604 45.7671 84.8099 45.8818 84.635 46.0078C84.4577 46.121 84.274 46.2354 84.084 46.3511C83.8914 46.4539 83.6965 46.544 83.4991 46.6213C83.2993 46.6857 83.1214 46.7262 82.9655 46.7425C82.6085 46.9562 82.2481 47.1174 81.8844 47.2263C81.536 47.3455 81.109 47.4001 80.6035 47.3901C80.1551 47.5416 79.7229 47.6038 79.3069 47.5768C78.9037 47.5474 78.528 47.4531 78.1796 47.294C77.8417 47.1196 77.5284 46.9008 77.2398 46.6376C76.9616 46.3591 76.7193 46.0605 76.513 45.7419C76.2721 45.0322 76.1725 44.3685 76.2142 43.7509C76.2535 43.1206 76.3664 42.5292 76.5531 41.9768C76.75 41.4092 76.9939 40.8791 77.2847 40.3865C77.573 39.8811 77.851 39.3909 78.1186 38.916C78.2002 38.927 78.2578 38.916 78.2913 38.8831C78.3352 38.835 78.3714 38.7818 78.4001 38.7233C78.4263 38.6521 78.4537 38.5872 78.4824 38.5287C78.5238 38.4678 78.5753 38.4249 78.6369 38.4C78.6899 38.1911 78.7911 38.0261 78.9404 37.9049C79.1001 37.7686 79.214 37.6011 79.2823 37.4026C79.3926 37.3551 79.4813 37.2985 79.5483 37.2328C79.6153 37.167 79.6747 37.0961 79.7265 37.02C79.7911 36.9414 79.857 36.8693 79.924 36.8035C79.9886 36.725 80.0696 36.6632 80.1671 36.6182L80.127 36.4071C80.3378 36.261 80.4822 36.1143 80.5603 35.9669C80.6487 35.8044 80.7514 35.6125 80.8684 35.3915C80.9811 35.3568 81.0694 35.3334 81.1334 35.3213C81.2102 35.3067 81.3165 35.2732 81.4523 35.2209C81.5206 35.0224 81.5846 34.8711 81.6444 34.7669C81.7169 34.6604 81.8266 34.5401 81.9734 34.4062C82.1415 34.4538 82.3176 34.4734 82.5015 34.4649C82.6982 34.454 82.8803 34.5056 83.0478 34.6196C83.0849 34.7451 83.1427 34.8401 83.2212 34.9047C83.2974 34.9565 83.3799 35.0071 83.4688 35.0565C83.5552 35.0931 83.6365 35.1373 83.7126 35.1891C83.8016 35.2384 83.8697 35.3183 83.9172 35.4285C83.9708 35.4316 84.0016 35.4191 84.0095 35.3911C84.0302 35.3607 84.0674 35.347 84.121 35.35C84.1934 35.5218 84.2612 35.6349 84.3246 35.6891C84.3854 35.7305 84.4573 35.8296 84.54 35.9861C84.5004 36.1262 84.4747 36.2702 84.4631 36.4182C84.4618 36.551 84.4033 36.6615 84.2875 36.7498C84.2917 36.8418 84.3271 36.8881 84.3934 36.8887C84.4574 36.8766 84.5019 36.9013 84.5268 36.9628C84.5615 37.0755 84.5581 37.1623 84.5166 37.2232C84.9184 37.6637 85.2943 38.1423 85.6443 38.659C85.9919 39.1629 86.3665 39.6351 86.7683 40.0757ZM84.7162 42.3542C84.7406 42.2038 84.7827 42.0765 84.8424 41.9724C84.915 41.8658 84.9406 41.7218 84.9194 41.5403C84.836 41.4501 84.783 41.3806 84.7605 41.3319C84.7356 41.2704 84.7109 41.1756 84.6866 41.0477C84.3299 40.7046 84.0066 40.3287 83.7169 39.9199C83.4247 39.4982 83.113 39.1134 82.7818 38.7655C82.766 38.8215 82.7309 38.8812 82.6767 38.9445C82.6225 39.0079 82.5497 39.0084 82.4583 38.9463C82.4522 39.0535 82.422 39.1387 82.3678 39.202C82.3111 39.2526 82.2444 39.2851 82.1676 39.2997C82.0885 39.3015 82.0017 39.2981 81.9073 39.2895C81.8232 39.2657 81.7444 39.2343 81.6707 39.1953C81.3556 39.56 81.0393 39.9183 80.7218 40.2702C80.4043 40.6221 80.1337 41.0115 79.91 41.4384C79.8637 41.4737 79.8341 41.4926 79.8213 41.495C79.8061 41.4846 79.769 41.4983 79.7099 41.5361C79.6537 41.7986 79.5683 42.0467 79.4537 42.2806C79.3494 42.4992 79.2464 42.7242 79.1446 42.9556C79.0428 43.187 78.9626 43.4276 78.904 43.6773C78.8454 43.927 78.8389 44.2065 78.8844 44.516C79.1359 44.6537 79.4124 44.7139 79.7139 44.6963C80.0154 44.6788 80.3172 44.6281 80.6194 44.5442C80.9343 44.4578 81.234 44.3611 81.5185 44.254C81.8134 44.1317 82.0887 44.0463 82.3446 43.9977C82.8575 43.7677 83.2864 43.5139 83.6313 43.2363C83.9737 42.9459 84.3354 42.6519 84.7162 42.3542ZM87.3152 36.9897C87.3537 36.704 87.4507 36.447 87.6061 36.2187C87.7743 35.9879 87.9614 35.7867 88.1673 35.615C88.3836 35.4281 88.6112 35.2656 88.85 35.1275C89.0889 34.9893 89.3173 34.8664 89.5354 34.7587C90.0058 34.444 90.5106 34.136 91.0497 33.8348C91.5993 33.5183 92.1601 33.2262 92.7321 32.9584C93.317 32.6883 93.9256 32.4732 94.5579 32.3133C95.1878 32.1406 95.8739 32.0898 96.6164 32.1608C96.679 32.2814 96.7597 32.392 96.8583 32.4925C96.957 32.5931 97.0556 32.6936 97.1542 32.7942C97.2656 32.8923 97.3643 32.9928 97.4501 33.0958C97.5335 33.186 97.5925 33.2874 97.6272 33.4001C97.777 33.491 97.9036 33.5994 98.0071 33.7256C98.1082 33.8389 98.1538 34.0092 98.1439 34.2364C98.0354 34.363 97.9258 34.4832 97.8149 34.5971C97.7143 34.6957 97.5998 34.7904 97.4712 34.8811C96.976 34.8559 96.489 34.9086 96.0102 35.0394C95.5314 35.1701 95.1026 35.2847 94.7237 35.3832C94.5867 35.29 94.435 35.2591 94.2687 35.2907C94.1152 35.3199 93.9538 35.3771 93.7844 35.4623C93.6278 35.545 93.4649 35.629 93.2955 35.7142C93.1389 35.797 92.9815 35.8402 92.8231 35.8437C92.7146 35.9704 92.5681 36.0711 92.3835 36.1459C92.2093 36.2056 92.0159 36.2688 91.8033 36.3357C91.8026 36.4021 91.8239 36.4445 91.8672 36.4627C91.908 36.4682 91.9217 36.5054 91.9082 36.5742C92.002 36.6492 92.1101 36.6949 92.2325 36.7114C92.3677 36.7255 92.5029 36.7396 92.6381 36.7536C92.7861 36.7653 92.9174 36.7933 93.0319 36.8379C93.1439 36.8696 93.2313 36.9458 93.294 37.0664C93.4859 37.0299 93.6607 37.0431 93.8184 37.1059C93.9761 37.1687 94.1119 37.2556 94.2257 37.3665C94.3396 37.4774 94.4303 37.606 94.4978 37.7522C94.5757 37.8832 94.6256 38.0062 94.6475 38.1213C94.7053 38.2164 94.7586 38.2527 94.8073 38.2301C94.8561 38.2076 94.9185 38.2223 94.9946 38.2741C95.0646 38.4331 95.1933 38.5875 95.3809 38.7375C95.566 38.8746 95.7227 39.037 95.8512 39.2247C95.9375 39.5396 96.0114 39.8238 96.0728 40.0772C96.1318 40.3178 96.1344 40.5757 96.0807 40.851C95.9787 41.3608 95.7903 41.834 95.5154 42.2706C95.2533 42.7047 94.9327 43.1102 94.5537 43.4871C94.185 43.8487 93.7771 44.178 93.3299 44.4751C92.8827 44.7721 92.4422 45.0347 92.0084 45.2629C91.9548 45.2599 91.9036 45.2696 91.8549 45.2921C91.8062 45.3146 91.7873 45.2851 91.7983 45.2034C91.713 45.3124 91.6088 45.3919 91.4857 45.4418C91.3755 45.4892 91.2487 45.5199 91.1056 45.5339C90.9649 45.5606 90.8166 45.5822 90.6606 45.5985C90.5175 45.6125 90.3844 45.6444 90.2613 45.6943C90.1548 45.6217 90.0546 45.548 89.9608 45.473C89.8823 45.4084 89.8117 45.3158 89.749 45.1952C89.6851 45.2073 89.647 45.1814 89.6348 45.1175C89.6355 45.0511 89.6102 45.0228 89.5591 45.0325C89.6115 44.89 89.6301 44.8135 89.6149 44.8032C89.61 44.7776 89.5872 44.7621 89.5464 44.7566C89.5184 44.7486 89.4904 44.7407 89.4623 44.7328C89.4319 44.712 89.4194 44.6813 89.4249 44.6405C89.4567 44.5284 89.454 44.4096 89.4169 44.2842C89.3773 44.1459 89.3378 44.0076 89.2983 43.8693C89.2588 43.731 89.2396 43.5955 89.2409 43.4627C89.255 43.3275 89.3315 43.2069 89.4704 43.101C89.915 43.0696 90.322 42.979 90.6911 42.8293C91.0707 42.6644 91.4186 42.4724 91.7348 42.2533C92.051 42.0342 92.3456 41.8059 92.6186 41.5685C92.9043 41.3286 93.1874 41.1092 93.4676 40.9101C93.4841 40.7877 93.5171 40.682 93.5665 40.5931C93.6286 40.5018 93.692 40.4169 93.7566 40.3383C93.8212 40.2598 93.8782 40.1761 93.9276 40.0872C93.9769 39.9983 94.0035 39.8938 94.0072 39.7738C94.003 39.6818 93.9677 39.6355 93.9013 39.6349C93.8453 39.619 93.8099 39.5727 93.7954 39.496L93.5734 39.4785C93.3036 39.384 93.0067 39.3211 92.6827 39.2899C92.3562 39.2459 92.0733 39.187 91.834 39.1132C91.7078 39.2167 91.5772 39.2614 91.442 39.2473C91.3195 39.2308 91.1587 39.2216 90.9596 39.2197C90.5198 39.2767 90.0891 39.3122 89.6676 39.326C89.2589 39.3374 88.8533 39.2951 88.4507 39.1993C88.413 39.1402 88.3701 39.0888 88.322 39.0449C88.2739 39.001 88.2011 39.0016 88.1036 39.0466C88.0074 38.9588 87.9125 38.8775 87.8187 38.8025C87.7225 38.7148 87.6315 38.6194 87.5456 38.5164C87.5421 38.3581 87.5369 38.2265 87.5303 38.1217C87.5212 38.0042 87.4622 37.9027 87.3532 37.8174C87.3728 37.6414 87.3856 37.4998 87.3918 37.3926C87.3979 37.2854 87.3724 37.1511 87.3152 36.9897ZM106.927 32.647C106.608 32.7078 106.267 32.799 105.906 32.9206C105.542 33.0295 105.186 33.1435 104.838 33.2627C104.589 33.3497 104.346 33.4291 104.108 33.5009C103.882 33.5702 103.675 33.6295 103.485 33.6787C103.449 33.9772 103.407 34.2436 103.359 34.4781C103.311 34.7126 103.255 34.9419 103.191 35.166C103.13 35.4029 103.077 35.645 103.031 35.8923C102.996 36.1243 102.964 36.3755 102.936 36.646C102.847 36.8749 102.774 37.0875 102.719 37.2836C102.674 37.4645 102.646 37.6685 102.636 37.8957C102.519 38.1167 102.443 38.3433 102.408 38.5753C102.37 38.7946 102.346 38.9846 102.337 39.1454L102.304 39.3902C102.242 39.4816 102.209 39.554 102.206 39.6076C102.201 39.6484 102.176 39.6929 102.132 39.741C102.146 39.8841 102.128 40.0334 102.078 40.1886C102.065 40.2575 102.058 40.3251 102.057 40.3915C102.054 40.4451 102.055 40.4847 102.06 40.5102C102.084 40.6382 102.068 40.7274 102.011 40.7779C102.036 40.8394 102.049 40.9098 102.051 40.989C102.051 41.0554 102.05 41.1218 102.049 41.1881C102.04 41.3489 102.05 41.4729 102.08 41.56C102.128 41.6039 102.169 41.6426 102.202 41.6761C102.247 41.7072 102.283 41.7535 102.308 41.815C102.394 41.8516 102.458 41.8726 102.498 41.8781C102.557 41.9068 102.642 41.937 102.754 41.9687L102.963 42.1278C103.098 42.4866 103.096 42.7917 102.958 43.0432C102.813 43.3227 102.51 43.5062 102.049 43.5937L101.819 43.6375C101.743 43.5857 101.695 43.5418 101.675 43.5059C101.565 43.4869 101.476 43.4708 101.407 43.4573C101.338 43.4439 101.271 43.4037 101.205 43.3366C101.024 43.2915 100.878 43.253 100.766 43.2213L100.575 43.1582C100.548 43.0175 100.533 42.9407 100.531 42.9279C100.42 42.8298 100.325 42.7153 100.247 42.5843C100.182 42.4508 100.123 42.3162 100.071 42.1804C100.023 42.0701 99.9707 41.9674 99.9129 41.8724C99.8679 41.7749 99.8125 41.6927 99.7467 41.6256C99.5802 40.8886 99.5314 40.2484 99.6005 39.7051C99.6696 39.1618 99.7487 38.6365 99.8378 38.1292C99.8916 37.8539 99.9453 37.5786 99.999 37.3034C100.05 37.0153 100.088 36.7232 100.111 36.4272L100.247 36.2025C100.298 35.9809 100.337 35.8012 100.363 35.6635C100.401 35.5107 100.438 35.3578 100.475 35.205C100.496 35.1081 100.513 35.0189 100.524 34.9373C100.545 34.8404 100.562 34.7576 100.576 34.6888C100.499 34.7034 100.43 34.7231 100.368 34.7481C100.304 34.7602 100.242 34.7788 100.18 34.8037C100.106 34.8311 100.038 34.8573 99.9764 34.8822C99.9124 34.8944 99.8485 34.9065 99.7845 34.9187C99.695 34.9357 99.6298 34.9414 99.589 34.9359C99.4604 35.0266 99.313 35.0878 99.1467 35.1194L98.9548 35.1558C98.9164 35.1631 98.8781 35.1704 98.8397 35.1777C98.8117 35.1698 98.7849 35.1682 98.7593 35.1731C98.6314 35.1974 98.5327 35.236 98.4632 35.289C98.3097 35.3182 98.1626 35.3461 98.0219 35.3729L97.83 35.4093C97.8044 35.4142 97.7737 35.4266 97.7377 35.4467C97.6993 35.454 97.6674 35.4601 97.6418 35.465C97.5522 35.482 97.4551 35.4938 97.3503 35.5005C97.2431 35.4943 97.1259 35.4702 96.9986 35.4281C96.8062 35.2526 96.6832 35.1633 96.6296 35.1603L96.4132 34.9628C96.3858 34.8885 96.3532 34.8218 96.3155 34.7627C96.2753 34.6908 96.234 34.6125 96.1914 34.5278C96.1159 34.4096 96.0392 34.285 95.9613 34.154C95.8938 34.0078 95.8405 33.8324 95.8016 33.6277C95.795 33.5229 95.806 33.4413 95.8347 33.3829C95.8633 33.3244 95.8868 33.2736 95.9051 33.2303L95.9079 32.9316L96.161 32.9034L96.6983 32.8013C97.1076 32.7235 97.521 32.6317 97.9382 32.5259C98.3531 32.4074 98.7807 32.2863 99.2211 32.1629C99.4721 32.0887 99.7231 32.0145 99.9741 31.9403C100.238 31.8637 100.508 31.7858 100.785 31.7068C100.814 31.5819 100.844 31.4635 100.876 31.3514L101.05 31.219C101.278 31.1625 101.444 31.1641 101.548 31.2238C101.662 31.2683 101.757 31.3165 101.834 31.3683C102.11 31.2893 102.387 31.2102 102.663 31.1312C102.95 31.0369 103.236 30.9362 103.52 30.8291C103.943 30.6825 104.367 30.5423 104.792 30.4085C105.23 30.2723 105.654 30.1653 106.063 30.0875C106.242 30.0535 106.416 30.0271 106.585 30.0083C106.754 29.9895 106.911 29.9795 107.057 29.9783L107.274 30.0762C107.327 30.1456 107.391 30.2063 107.468 30.2581C107.556 30.3075 107.645 30.3568 107.734 30.4062C107.915 30.5178 108.1 30.6549 108.29 30.8176C108.48 30.9803 108.591 31.2508 108.623 31.6291C108.549 31.802 108.49 31.9061 108.443 31.9414L108.315 32.2045L108.119 32.2218C108.042 32.2364 107.974 32.2625 107.915 32.3003C107.854 32.3252 107.793 32.3566 107.734 32.3943C107.688 32.4296 107.642 32.4649 107.595 32.5002C107.547 32.5227 107.491 32.5464 107.43 32.5714C107.315 32.5933 107.219 32.6115 107.142 32.6261C107.076 32.6254 107.004 32.6324 106.927 32.647ZM116.682 34.3919C116.699 34.5479 116.74 34.6925 116.805 34.826C116.87 34.9594 116.941 35.0916 117.019 35.2226C117.107 35.3383 117.19 35.4617 117.268 35.5927C117.346 35.7237 117.411 35.8571 117.464 35.993C117.523 36.1672 117.561 36.3655 117.577 36.5878C117.59 36.7973 117.584 37.0105 117.559 37.2273C117.532 37.4314 117.482 37.6263 117.412 37.812C117.339 37.9849 117.239 38.1232 117.113 38.2266C116.977 38.4909 116.794 38.7113 116.562 38.8879C116.331 39.0644 116.123 39.2629 115.94 39.4833C115.816 39.5996 115.669 39.6939 115.497 39.7663C115.338 39.8363 115.172 39.9075 115.001 39.9799C114.874 40.0833 114.724 40.1981 114.549 40.3241C114.372 40.4373 114.188 40.5517 113.998 40.6674C113.805 40.7702 113.611 40.8603 113.413 40.9375C113.213 41.002 113.035 41.0424 112.88 41.0588C112.523 41.2724 112.162 41.4337 111.798 41.5425C111.45 41.6618 111.023 41.7164 110.517 41.7064C110.069 41.8579 109.637 41.9201 109.221 41.8931C108.818 41.8637 108.442 41.7694 108.094 41.6103C107.756 41.4359 107.442 41.2171 107.154 40.9539C106.876 40.6754 106.633 40.3768 106.427 40.0582C106.186 39.3485 106.087 38.6848 106.128 38.0672C106.168 37.4368 106.28 36.8455 106.467 36.2931C106.664 35.7255 106.908 35.1954 107.199 34.7028C107.487 34.1974 107.765 33.7072 108.033 33.2322C108.114 33.2432 108.172 33.2323 108.205 33.1994C108.249 33.1513 108.285 33.098 108.314 33.0396C108.34 32.9683 108.368 32.9035 108.396 32.845C108.438 32.7841 108.489 32.7412 108.551 32.7163C108.604 32.5074 108.705 32.3424 108.854 32.2212C109.014 32.0848 109.128 31.9174 109.196 31.7189C109.307 31.6714 109.395 31.6148 109.462 31.5491C109.529 31.4833 109.589 31.4124 109.641 31.3363C109.705 31.2577 109.771 31.1856 109.838 31.1198C109.903 31.0413 109.984 30.9795 110.081 30.9345L110.041 30.7234C110.252 30.5773 110.396 30.4306 110.474 30.2832C110.563 30.1206 110.665 29.9288 110.782 29.7078C110.895 29.6731 110.983 29.6497 111.047 29.6375C111.124 29.623 111.231 29.5895 111.366 29.5372C111.435 29.3387 111.499 29.1873 111.558 29.0832C111.631 28.9766 111.741 28.8564 111.887 28.7225C112.056 28.7701 112.232 28.7896 112.416 28.7812C112.612 28.7703 112.794 28.8219 112.962 28.9358C112.999 29.0613 113.057 29.1564 113.135 29.221C113.211 29.2728 113.294 29.3234 113.383 29.3727C113.469 29.4093 113.551 29.4535 113.627 29.5053C113.716 29.5547 113.784 29.6345 113.831 29.7448C113.885 29.7479 113.916 29.7354 113.924 29.7074C113.944 29.6769 113.981 29.6633 114.035 29.6663C114.107 29.8381 114.175 29.9511 114.239 30.0054C114.299 30.0468 114.371 30.1458 114.454 30.3024C114.414 30.4425 114.389 30.5865 114.377 30.7345C114.376 30.8673 114.317 30.9778 114.202 31.0661C114.206 31.1581 114.241 31.2044 114.307 31.205C114.371 31.1929 114.416 31.2175 114.441 31.2791C114.476 31.3918 114.472 31.4786 114.431 31.5395C114.832 31.98 115.208 32.4586 115.558 32.9753C115.906 33.4792 116.281 33.9514 116.682 34.3919ZM114.63 36.6705C114.655 36.5201 114.697 36.3928 114.756 36.2887C114.829 36.1821 114.855 36.0381 114.833 35.8566C114.75 35.7664 114.697 35.6969 114.675 35.6482C114.65 35.5866 114.625 35.4919 114.601 35.364C114.244 35.0209 113.921 34.645 113.631 34.2361C113.339 33.8145 113.027 33.4297 112.696 33.0818C112.68 33.1378 112.645 33.1975 112.591 33.2608C112.537 33.3241 112.464 33.3247 112.372 33.2625C112.366 33.3697 112.336 33.455 112.282 33.5183C112.225 33.5688 112.158 33.6014 112.082 33.616C112.003 33.6178 111.916 33.6144 111.821 33.6058C111.737 33.582 111.658 33.5506 111.585 33.5116C111.27 33.8763 110.953 34.2346 110.636 34.5865C110.318 34.9384 110.048 35.3278 109.824 35.7547C109.778 35.79 109.748 35.8088 109.735 35.8113C109.72 35.8009 109.683 35.8146 109.624 35.8523C109.568 36.1148 109.482 36.363 109.368 36.5968C109.263 36.8155 109.16 37.0405 109.059 37.2719C108.957 37.5033 108.877 37.7438 108.818 37.9935C108.759 38.2432 108.753 38.5228 108.798 38.8322C109.05 38.97 109.326 39.0301 109.628 39.0126C109.929 38.9951 110.231 38.9444 110.533 38.8604C110.848 38.7741 111.148 38.6774 111.433 38.5703C111.727 38.448 112.003 38.3626 112.259 38.314C112.772 38.084 113.2 37.8302 113.545 37.5526C113.888 37.2622 114.249 36.9682 114.63 36.6705ZM117.229 31.3059C117.268 31.0203 117.365 30.7633 117.52 30.535C117.688 30.3042 117.875 30.103 118.081 29.9313C118.298 29.7444 118.525 29.5819 118.764 29.4437C119.003 29.3056 119.231 29.1826 119.449 29.0749C119.92 28.7603 120.425 28.4523 120.964 28.151C121.513 27.8346 122.074 27.5425 122.646 27.2747C123.231 27.0045 123.84 26.7895 124.472 26.6296C125.102 26.4569 125.788 26.4061 126.53 26.4771C126.593 26.5977 126.674 26.7083 126.772 26.8088C126.871 26.9094 126.97 27.0099 127.068 27.1105C127.18 27.2086 127.278 27.3091 127.364 27.4121C127.448 27.5023 127.507 27.6037 127.541 27.7164C127.691 27.8072 127.818 27.9157 127.921 28.0418C128.022 28.1552 128.068 28.3254 128.058 28.5526C127.949 28.6793 127.84 28.7995 127.729 28.9134C127.628 29.012 127.514 29.1066 127.385 29.1973C126.89 29.1721 126.403 29.2249 125.924 29.3556C125.445 29.4864 125.017 29.601 124.638 29.6995C124.501 29.6062 124.349 29.5754 124.183 29.607C124.029 29.6362 123.868 29.6934 123.698 29.7786C123.542 29.8613 123.379 29.9453 123.21 30.0305C123.053 30.1133 122.896 30.1564 122.737 30.16C122.629 30.2867 122.482 30.3874 122.298 30.4622C122.123 30.5218 121.93 30.5851 121.717 30.652C121.717 30.7184 121.738 30.7607 121.781 30.779C121.822 30.7845 121.836 30.8217 121.822 30.8905C121.916 30.9655 122.024 31.0112 122.147 31.0277C122.282 31.0418 122.417 31.0558 122.552 31.0699C122.7 31.0815 122.831 31.1096 122.946 31.1541C123.058 31.1859 123.145 31.262 123.208 31.3827C123.4 31.3462 123.575 31.3594 123.732 31.4222C123.89 31.485 124.026 31.5719 124.14 31.6828C124.254 31.7937 124.344 31.9222 124.412 32.0684C124.49 32.1994 124.54 32.3225 124.562 32.4376C124.619 32.5327 124.673 32.5689 124.721 32.5464C124.77 32.5239 124.833 32.5386 124.909 32.5904C124.979 32.7494 125.107 32.9038 125.295 33.0537C125.48 33.1909 125.637 33.3533 125.765 33.5409C125.852 33.8559 125.925 34.14 125.987 34.3935C126.046 34.6341 126.048 34.892 125.995 35.1673C125.893 35.6771 125.704 36.1502 125.429 36.5868C125.167 37.021 124.847 37.4265 124.468 37.8033C124.099 38.165 123.691 38.4943 123.244 38.7913C122.797 39.0884 122.356 39.351 121.922 39.5792C121.869 39.5761 121.818 39.5859 121.769 39.6084C121.72 39.6309 121.701 39.6013 121.712 39.5197C121.627 39.6287 121.523 39.7081 121.4 39.758C121.289 39.8055 121.163 39.8362 121.02 39.8501C120.879 39.8769 120.731 39.8984 120.575 39.9148C120.432 39.9287 120.298 39.9607 120.175 40.0105C120.069 39.938 119.969 39.8643 119.875 39.7893C119.796 39.7247 119.726 39.6321 119.663 39.5115C119.599 39.5236 119.561 39.4977 119.549 39.4338C119.55 39.3674 119.524 39.339 119.473 39.3488C119.526 39.2063 119.544 39.1298 119.529 39.1195C119.524 39.0939 119.501 39.0783 119.46 39.0728C119.432 39.0649 119.404 39.057 119.376 39.049C119.346 39.0283 119.333 38.9976 119.339 38.9567C119.371 38.8447 119.368 38.7259 119.331 38.6004C119.291 38.4621 119.252 38.3239 119.212 38.1856C119.173 38.0473 119.154 37.9118 119.155 37.779C119.169 37.6438 119.246 37.5232 119.384 37.4173C119.829 37.3858 120.236 37.2953 120.605 37.1456C120.985 36.9807 121.333 36.7887 121.649 36.5696C121.965 36.3504 122.26 36.1222 122.533 35.8847C122.818 35.6449 123.101 35.4254 123.382 35.2264C123.398 35.104 123.431 34.9983 123.481 34.9094C123.543 34.8181 123.606 34.7331 123.671 34.6546C123.735 34.5761 123.792 34.4923 123.842 34.4034C123.891 34.3145 123.918 34.2101 123.921 34.0901C123.917 33.9981 123.882 33.9518 123.815 33.9512C123.759 33.9353 123.724 33.889 123.709 33.8123L123.487 33.7948C123.218 33.7003 122.921 33.6374 122.597 33.6062C122.27 33.5622 121.987 33.5033 121.748 33.4295C121.622 33.5329 121.491 33.5776 121.356 33.5636C121.234 33.5471 121.073 33.5379 120.874 33.5359C120.434 33.593 120.003 33.6284 119.582 33.6423C119.173 33.6536 118.767 33.6114 118.365 33.5156C118.327 33.4565 118.284 33.405 118.236 33.3612C118.188 33.3173 118.115 33.3179 118.018 33.3629C117.921 33.2751 117.827 33.1938 117.733 33.1188C117.637 33.0311 117.546 32.9357 117.46 32.8327C117.456 32.6744 117.451 32.5428 117.444 32.438C117.435 32.3205 117.376 32.219 117.267 32.1337C117.287 31.9577 117.3 31.8161 117.306 31.7089C117.312 31.6017 117.286 31.4674 117.229 31.3059ZM134.785 31.3103C134.788 31.2567 134.81 31.2327 134.851 31.2382C134.902 31.2284 134.945 31.2135 134.981 31.1935C134.859 31.1106 134.77 30.9884 134.713 30.827C134.653 30.6527 134.561 30.5178 134.437 30.4221C134.45 30.3533 134.457 30.2857 134.458 30.2193C134.472 30.1505 134.524 30.1139 134.616 30.1097C134.524 29.8356 134.481 29.5721 134.486 29.3194C134.491 29.0666 134.524 28.8218 134.585 28.5849C134.659 28.3455 134.747 28.1101 134.848 27.8787C134.961 27.6321 135.066 27.3867 135.166 27.1425C135.276 27.095 135.349 27.0945 135.384 27.1408C135.417 27.1743 135.459 27.153 135.511 27.0769C135.689 26.8973 135.801 26.717 135.846 26.5361C135.889 26.3425 135.89 26.1433 135.852 25.9386C135.903 25.5842 135.969 25.2337 136.049 24.8871C136.14 24.5254 136.254 24.1856 136.392 23.8677C136.531 23.5498 136.689 23.2679 136.868 23.0219C137.044 22.7631 137.249 22.5518 137.483 22.3881C137.633 22.2006 137.83 22.0173 138.074 21.8384C138.332 21.657 138.608 21.5051 138.902 21.3828C139.208 21.2453 139.527 21.145 139.859 21.0818C140.189 21.0058 140.502 20.9794 140.798 21.0027C140.867 21.0161 140.903 20.9961 140.906 20.9425C140.907 20.8761 140.933 20.838 140.984 20.8283C141.638 20.7835 142.232 20.8033 142.765 20.8876C143.31 20.9694 143.793 21.1363 144.212 21.388C144.528 21.7256 144.837 22.0976 145.139 22.504C145.439 22.8976 145.693 23.3265 145.901 23.7907C146.119 24.2397 146.27 24.7213 146.354 25.2354C146.439 25.7495 146.427 26.2818 146.32 26.8324C145.979 27.4803 145.521 28.0377 144.947 28.5046C144.371 28.9587 143.734 29.3714 143.036 29.7426C142.348 30.0986 141.621 30.4223 140.854 30.7137C140.101 31.0027 139.369 31.3008 138.658 31.6081C138.737 31.9511 138.807 32.322 138.87 32.721C138.93 33.1072 138.959 33.5059 138.958 33.917C138.967 34.3129 138.936 34.7097 138.866 35.1074C138.809 35.5027 138.695 35.8821 138.526 36.2456C138.267 36.2815 138.004 36.3581 137.734 36.4755C137.478 36.5905 137.247 36.7007 137.042 36.8059C136.927 36.7614 136.813 36.7169 136.698 36.6724C136.599 36.6382 136.478 36.6281 136.335 36.6421C136.344 36.4813 136.275 36.3287 136.128 36.1842C135.994 36.0374 135.855 35.8982 135.711 35.7665C135.577 35.6197 135.476 35.4731 135.409 35.3269C135.352 35.1655 135.4 35.0038 135.555 34.8419C135.436 34.7718 135.358 34.6408 135.321 34.4489C135.382 34.4903 135.451 34.5038 135.528 34.4892C135.459 34.2638 135.432 33.9839 135.448 33.6495C135.477 33.3127 135.487 32.9859 135.48 32.6692C135.483 32.3372 135.442 32.047 135.355 31.7985C135.265 31.5371 135.075 31.3744 134.785 31.3103ZM138.92 25.8724C138.896 26.0229 138.876 26.1593 138.859 26.2817C138.853 26.3889 138.839 26.4909 138.818 26.5878C138.796 26.6846 138.769 26.7826 138.735 26.8819C138.713 26.9787 138.688 27.0896 138.659 27.2144C138.699 27.2863 138.761 27.3342 138.845 27.358C138.929 27.3818 138.991 27.4296 139.031 27.5015C139.193 27.3779 139.36 27.2799 139.532 27.2075C139.701 27.1223 139.873 27.0499 140.047 26.9903C140.222 26.9307 140.395 26.8647 140.566 26.7923C140.738 26.7199 140.912 26.6207 141.086 26.4947C141.261 26.3687 141.446 26.2607 141.641 26.1706C141.846 26.0653 142.045 25.9613 142.238 25.8584C142.43 25.7556 142.615 25.6475 142.793 25.5343C142.967 25.4083 143.112 25.2616 143.226 25.0942C143.015 24.9619 142.719 24.8658 142.336 24.806C141.954 24.7461 141.549 24.7435 141.122 24.7981C140.705 24.8375 140.294 24.9421 139.889 25.1118C139.497 25.2791 139.174 25.5327 138.92 25.8724ZM156.172 21.6603C156.202 21.7474 156.215 21.8177 156.212 21.8713C156.219 21.9097 156.22 21.9493 156.215 21.9901C156.222 22.0285 156.23 22.0732 156.24 22.1244C156.247 22.1628 156.272 22.2243 156.315 22.309C156.129 22.795 155.873 23.1551 155.546 23.3895C155.23 23.6086 154.874 23.7954 154.48 23.95C154.082 24.0917 153.674 24.2423 153.253 24.4016C152.846 24.5586 152.455 24.8051 152.082 25.1412C151.903 25.1088 151.75 25.138 151.621 25.2287C151.505 25.3169 151.317 25.3726 151.056 25.3956C150.994 25.4869 150.909 25.5627 150.801 25.623C150.691 25.6704 150.582 25.7243 150.474 25.7845C150.547 25.8899 150.59 26.0078 150.601 26.1382C150.623 26.2533 150.66 26.3456 150.713 26.415C151.168 26.3684 151.66 26.2684 152.187 26.1151C152.728 25.9595 153.259 25.8254 153.781 25.713C153.806 25.7745 153.808 25.8205 153.787 25.8509C153.764 25.8686 153.764 25.9018 153.786 25.9505C153.888 25.9974 153.993 26.0636 154.102 26.1489C154.209 26.2214 154.315 26.294 154.422 26.3665C154.528 26.439 154.633 26.4988 154.734 26.5457C154.846 26.5774 154.965 26.5747 155.091 26.5376C155.161 26.6303 155.215 26.7393 155.252 26.8648C155.3 26.9751 155.31 27.099 155.283 27.2367C155.105 27.4163 154.928 27.6023 154.753 27.7947C154.575 27.9743 154.382 28.1435 154.173 28.3024C153.978 28.4588 153.759 28.5997 153.518 28.7251C153.287 28.8352 153.017 28.9131 152.708 28.9586C152.644 28.9708 152.592 28.9805 152.554 28.9878C152.529 28.9926 152.487 28.9807 152.428 28.9521C152.338 29.0355 152.194 29.0826 151.998 29.0935C151.814 29.1019 151.677 29.1479 151.586 29.2313C151.434 29.194 151.256 29.2013 151.054 29.2529C150.862 29.2894 150.684 29.2966 150.521 29.2746C150.368 29.5821 150.237 29.9052 150.129 30.2438C150.021 30.5824 149.936 30.9366 149.873 31.3063C150.32 31.2876 150.683 31.2451 150.962 31.1788C151.254 31.1102 151.526 31.0387 151.777 30.9645C152.025 30.8775 152.281 30.7957 152.545 30.7191C152.806 30.6297 153.143 30.5525 153.555 30.4875C153.784 30.2982 154.067 30.1515 154.406 30.0475C154.754 29.9283 155.066 29.7896 155.34 29.6313C155.45 29.6503 155.553 29.7036 155.649 29.7914C155.743 29.8663 155.83 29.9425 155.911 30.0199C156.003 30.082 156.093 30.1378 156.182 30.1872C156.271 30.2366 156.371 30.2439 156.484 30.2093C156.545 30.2507 156.589 30.3086 156.616 30.3829C156.654 30.442 156.685 30.5023 156.71 30.5639C156.735 30.6254 156.765 30.6793 156.801 30.7256C156.846 30.7567 156.906 30.7586 156.981 30.7312C156.869 31.1898 156.707 31.5585 156.495 31.8374C156.293 32.101 156.044 32.3208 155.746 32.4967C155.448 32.6726 155.107 32.8302 154.722 32.9695C154.351 33.1063 153.937 33.2645 153.48 33.444C153.37 33.4914 153.273 33.5033 153.189 33.4795C153.107 33.4685 153.015 33.4727 152.913 33.4921C152.631 33.612 152.29 33.7364 151.89 33.8654C151.491 33.9943 151.079 34.0925 150.654 34.1599C150.23 34.2273 149.816 34.2463 149.412 34.2169C149.012 34.2003 148.667 34.0935 148.377 33.8966C148.258 33.8265 148.168 33.7376 148.108 33.6297C148.058 33.5067 147.957 33.4265 147.804 33.3893C147.76 33.2254 147.699 33.0448 147.621 32.8474C147.544 32.6501 147.466 32.4463 147.386 32.2361C147.304 32.0131 147.229 31.7954 147.162 31.5828C147.108 31.3677 147.083 31.167 147.088 30.9806C147.09 30.7815 147.134 30.5942 147.22 30.4188C147.318 30.241 147.332 30.0662 147.259 29.8944C147.321 29.8695 147.353 29.8302 147.356 29.7766C147.357 29.7102 147.403 29.6749 147.495 29.6707C147.528 29.4258 147.57 29.1926 147.621 28.9709C147.671 28.7492 147.723 28.5339 147.776 28.325C147.842 28.1137 147.901 27.9036 147.955 27.6947C148.018 27.4706 148.071 27.2285 148.115 26.9684C147.904 26.8362 147.736 26.6826 147.61 26.5077C147.494 26.3176 147.399 26.1303 147.324 25.9457C147.247 25.7483 147.176 25.5497 147.111 25.3499C147.045 25.1373 146.958 24.9284 146.853 24.7231C146.945 24.5069 147.069 24.3242 147.226 24.175C147.394 24.0107 147.579 23.8694 147.782 23.7514C147.985 23.6333 148.209 23.5244 148.455 23.4246C148.701 23.3248 148.959 23.2162 149.228 23.0988C149.709 22.8353 150.138 22.6211 150.518 22.4562C150.91 22.2889 151.293 22.1432 151.667 22.0191C152.052 21.8798 152.45 21.7444 152.863 21.6131C153.275 21.4817 153.74 21.3138 154.258 21.1094C154.395 21.2026 154.515 21.2395 154.617 21.2201C154.646 21.0952 154.698 21.0523 154.771 21.0913C154.856 21.1151 154.88 21.0707 154.846 20.958C155.015 21.1511 155.21 21.3062 155.431 21.4233C155.662 21.5251 155.909 21.6041 156.172 21.6603ZM156.43 23.8577C156.469 23.572 156.566 23.315 156.721 23.0867C156.889 22.8559 157.076 22.6547 157.282 22.483C157.499 22.2961 157.726 22.1336 157.965 21.9955C158.204 21.8573 158.432 21.7344 158.651 21.6267C159.121 21.312 159.626 21.004 160.165 20.7028C160.714 20.3863 161.275 20.0942 161.847 19.8264C162.432 19.5563 163.041 19.3412 163.673 19.1813C164.303 19.0087 164.989 18.9578 165.731 19.0288C165.794 19.1494 165.875 19.26 165.973 19.3606C166.072 19.4611 166.171 19.5616 166.269 19.6622C166.381 19.7603 166.479 19.8609 166.565 19.9638C166.649 20.054 166.708 20.1554 166.742 20.2681C166.892 20.359 167.019 20.4674 167.122 20.5936C167.223 20.7069 167.269 20.8772 167.259 21.1044C167.151 21.231 167.041 21.3512 166.93 21.4651C166.829 21.5637 166.715 21.6584 166.586 21.7491C166.091 21.7239 165.604 21.7766 165.125 21.9074C164.646 22.0381 164.218 22.1527 163.839 22.2512C163.702 22.158 163.55 22.1271 163.384 22.1587C163.23 22.1879 163.069 22.2451 162.899 22.3303C162.743 22.4131 162.58 22.497 162.411 22.5822C162.254 22.665 162.097 22.7082 161.938 22.7117C161.83 22.8384 161.683 22.9391 161.499 23.014C161.324 23.0736 161.131 23.1368 160.918 23.2037C160.918 23.2701 160.939 23.3125 160.982 23.3308C161.023 23.3363 161.037 23.3734 161.023 23.4422C161.117 23.5172 161.225 23.5629 161.348 23.5794C161.483 23.5935 161.618 23.6076 161.753 23.6216C161.901 23.6333 162.032 23.6614 162.147 23.7059C162.259 23.7376 162.346 23.8138 162.409 23.9344C162.601 23.8979 162.776 23.9111 162.933 23.9739C163.091 24.0367 163.227 24.1236 163.341 24.2345C163.455 24.3454 163.545 24.474 163.613 24.6202C163.691 24.7512 163.741 24.8742 163.763 24.9894C163.82 25.0844 163.874 25.1207 163.922 25.0982C163.971 25.0756 164.034 25.0903 164.11 25.1421C164.18 25.3011 164.308 25.4556 164.496 25.6055C164.681 25.7426 164.838 25.905 164.966 26.0927C165.053 26.4076 165.126 26.6918 165.188 26.9452C165.247 27.1858 165.249 27.4438 165.196 27.719C165.094 28.2288 164.905 28.702 164.63 29.1386C164.368 29.5727 164.048 29.9782 163.669 30.3551C163.3 30.7167 162.892 31.046 162.445 31.3431C161.998 31.6401 161.557 31.9027 161.123 32.1309C161.07 32.1279 161.019 32.1376 160.97 32.1601C160.921 32.1826 160.902 32.1531 160.913 32.0715C160.828 32.1804 160.724 32.2599 160.601 32.3098C160.491 32.3572 160.364 32.3879 160.221 32.4019C160.08 32.4286 159.932 32.4502 159.776 32.4665C159.633 32.4805 159.499 32.5124 159.376 32.5623C159.27 32.4898 159.17 32.416 159.076 32.341C158.997 32.2764 158.927 32.1838 158.864 32.0632C158.8 32.0754 158.762 32.0495 158.75 31.9855C158.751 31.9191 158.725 31.8908 158.674 31.9005C158.727 31.758 158.745 31.6816 158.73 31.6712C158.725 31.6456 158.702 31.6301 158.661 31.6246C158.633 31.6166 158.605 31.6087 158.577 31.6008C158.547 31.5801 158.534 31.5493 158.54 31.5085C158.572 31.3964 158.569 31.2776 158.532 31.1522C158.492 31.0139 158.453 30.8756 158.413 30.7373C158.374 30.599 158.355 30.4635 158.356 30.3307C158.37 30.1955 158.447 30.0749 158.585 29.969C159.03 29.9376 159.437 29.847 159.806 29.6973C160.186 29.5324 160.534 29.3404 160.85 29.1213C161.166 28.9022 161.461 28.6739 161.734 28.4365C162.019 28.1966 162.302 27.9772 162.583 27.7781C162.599 27.6557 162.632 27.5501 162.682 27.4612C162.744 27.3698 162.807 27.2849 162.872 27.2063C162.936 27.1278 162.993 27.0441 163.043 26.9552C163.092 26.8663 163.119 26.7618 163.122 26.6418C163.118 26.5499 163.083 26.5035 163.016 26.5029C162.96 26.487 162.925 26.4407 162.91 26.364L162.688 26.3465C162.419 26.252 162.122 26.1891 161.798 26.1579C161.471 26.1139 161.188 26.055 160.949 25.9812C160.823 26.0847 160.692 26.1294 160.557 26.1153C160.435 26.0988 160.274 26.0896 160.075 26.0877C159.635 26.1447 159.204 26.1802 158.783 26.194C158.374 26.2054 157.968 26.1632 157.566 26.0673C157.528 26.0082 157.485 25.9568 157.437 25.9129C157.389 25.869 157.316 25.8696 157.219 25.9146C157.123 25.8269 157.028 25.7455 156.934 25.6705C156.838 25.5828 156.747 25.4874 156.661 25.3844C156.657 25.2261 156.652 25.0945 156.645 24.9898C156.636 24.8722 156.577 24.7708 156.468 24.6854C156.488 24.5094 156.501 24.3678 156.507 24.2606C156.513 24.1534 156.487 24.0191 156.43 23.8577ZM165.545 22.1259C165.583 21.8403 165.68 21.5833 165.835 21.355C166.004 21.1242 166.191 20.923 166.397 20.7513C166.613 20.5644 166.841 20.4019 167.079 20.2637C167.318 20.1256 167.547 20.0026 167.765 19.8949C168.235 19.5803 168.74 19.2723 169.279 18.971C169.829 18.6546 170.389 18.3625 170.962 18.0947C171.546 17.8245 172.155 17.6095 172.787 17.4496C173.417 17.2769 174.103 17.2261 174.846 17.2971C174.908 17.4177 174.989 17.5283 175.088 17.6288C175.186 17.7294 175.285 17.8299 175.384 17.9305C175.495 18.0286 175.594 18.1291 175.679 18.2321C175.763 18.3223 175.822 18.4237 175.857 18.5364C176.006 18.6272 176.133 18.7357 176.236 18.8618C176.338 18.9752 176.383 19.1454 176.373 19.3726C176.265 19.4993 176.155 19.6195 176.044 19.7334C175.944 19.832 175.829 19.9266 175.701 20.0173C175.205 19.9921 174.718 20.0449 174.24 20.1756C173.761 20.3064 173.332 20.421 172.953 20.5195C172.816 20.4262 172.664 20.3954 172.498 20.427C172.345 20.4562 172.183 20.5134 172.014 20.5986C171.857 20.6813 171.694 20.7653 171.525 20.8505C171.368 20.9333 171.211 20.9764 171.052 20.98C170.944 21.1067 170.797 21.2074 170.613 21.2822C170.439 21.3418 170.245 21.4051 170.033 21.472C170.032 21.5384 170.053 21.5807 170.097 21.599C170.137 21.6045 170.151 21.6417 170.138 21.7105C170.231 21.7855 170.339 21.8312 170.462 21.8477C170.597 21.8618 170.732 21.8758 170.867 21.8899C171.015 21.9015 171.147 21.9296 171.261 21.9741C171.373 22.0059 171.461 22.082 171.523 22.2027C171.715 22.1662 171.89 22.1794 172.048 22.2422C172.205 22.305 172.341 22.3919 172.455 22.5028C172.569 22.6137 172.66 22.7422 172.727 22.8884C172.805 23.0194 172.855 23.1425 172.877 23.2576C172.935 23.3527 172.988 23.3889 173.037 23.3664C173.085 23.3439 173.148 23.3586 173.224 23.4104C173.294 23.5694 173.423 23.7238 173.61 23.8737C173.795 24.0109 173.952 24.1733 174.081 24.3609C174.167 24.6759 174.241 24.96 174.302 25.2135C174.361 25.4541 174.364 25.712 174.31 25.9873C174.208 26.4971 174.02 26.9702 173.745 27.4068C173.483 27.841 173.162 28.2465 172.783 28.6233C172.414 28.985 172.006 29.3143 171.559 29.6113C171.112 29.9084 170.672 30.171 170.238 30.3992C170.184 30.3961 170.133 30.4059 170.084 30.4284C170.036 30.4509 170.017 30.4213 170.028 30.3397C169.942 30.4487 169.838 30.5281 169.715 30.578C169.605 30.6255 169.478 30.6562 169.335 30.6701C169.194 30.6969 169.046 30.7184 168.89 30.7348C168.747 30.7487 168.614 30.7807 168.491 30.8306C168.384 30.758 168.284 30.6843 168.19 30.6093C168.112 30.5447 168.041 30.4521 167.978 30.3315C167.914 30.3436 167.876 30.3177 167.864 30.2538C167.865 30.1874 167.84 30.159 167.788 30.1688C167.841 30.0263 167.859 29.9498 167.844 29.9395C167.839 29.9139 167.817 29.8983 167.776 29.8928C167.748 29.8849 167.72 29.877 167.692 29.869C167.661 29.8483 167.649 29.8176 167.654 29.7767C167.686 29.6647 167.683 29.5459 167.646 29.4204C167.607 29.2821 167.567 29.1439 167.528 29.0056C167.488 28.8673 167.469 28.7318 167.47 28.599C167.484 28.4638 167.561 28.3432 167.7 28.2373C168.144 28.2058 168.551 28.1153 168.92 27.9656C169.3 27.8007 169.648 27.6087 169.964 27.3896C170.28 27.1704 170.575 26.9422 170.848 26.7047C171.134 26.4649 171.417 26.2454 171.697 26.0464C171.713 25.924 171.746 25.8183 171.796 25.7294C171.858 25.6381 171.921 25.5531 171.986 25.4746C172.051 25.3961 172.108 25.3123 172.157 25.2234C172.206 25.1345 172.233 25.0301 172.237 24.9101C172.232 24.8181 172.197 24.7718 172.131 24.7712C172.075 24.7553 172.039 24.709 172.025 24.6323L171.803 24.6148C171.533 24.5203 171.236 24.4574 170.912 24.4262C170.586 24.3822 170.303 24.3233 170.063 24.2495C169.937 24.3529 169.807 24.3977 169.671 24.3836C169.549 24.3671 169.388 24.3579 169.189 24.3559C168.749 24.413 168.319 24.4484 167.897 24.4623C167.488 24.4736 167.083 24.4314 166.68 24.3356C166.642 24.2765 166.599 24.225 166.551 24.1812C166.503 24.1373 166.43 24.1379 166.333 24.1829C166.237 24.0951 166.142 24.0138 166.048 23.9388C165.952 23.8511 165.861 23.7557 165.775 23.6527C165.771 23.4944 165.766 23.3628 165.76 23.258C165.751 23.1405 165.692 23.039 165.583 22.9537C165.602 22.7777 165.615 22.6361 165.621 22.5289C165.627 22.4217 165.602 22.2874 165.545 22.1259ZM185.702 21.2782C185.718 21.4341 185.759 21.5788 185.824 21.7122C185.889 21.8456 185.96 21.9778 186.038 22.1088C186.127 22.2246 186.21 22.348 186.288 22.479C186.365 22.6099 186.431 22.7434 186.483 22.8792C186.542 23.0534 186.58 23.2517 186.596 23.474C186.609 23.6836 186.603 23.8968 186.578 24.1136C186.551 24.3176 186.502 24.5125 186.431 24.6982C186.358 24.8712 186.258 25.0094 186.132 25.1129C185.997 25.3772 185.813 25.5976 185.582 25.7741C185.35 25.9506 185.143 26.1491 184.959 26.3695C184.835 26.4858 184.688 26.5801 184.516 26.6525C184.357 26.7225 184.192 26.7937 184.02 26.8661C183.894 26.9696 183.743 27.0843 183.568 27.2103C183.391 27.3235 183.207 27.438 183.017 27.5536C182.825 27.6564 182.63 27.7465 182.432 27.8238C182.232 27.8882 182.055 27.9287 181.899 27.945C181.542 28.1587 181.181 28.3199 180.818 28.4288C180.469 28.548 180.042 28.6026 179.537 28.5926C179.088 28.7441 178.656 28.8063 178.24 28.7793C177.837 28.7499 177.461 28.6556 177.113 28.4965C176.775 28.3222 176.462 28.1033 176.173 27.8401C175.895 27.5616 175.652 27.263 175.446 26.9444C175.205 26.2347 175.106 25.571 175.147 24.9535C175.187 24.3231 175.3 23.7317 175.486 23.1793C175.683 22.6118 175.927 22.0817 176.218 21.589C176.506 21.0836 176.784 20.5934 177.052 20.1185C177.133 20.1295 177.191 20.1185 177.224 20.0857C177.268 20.0376 177.305 19.9843 177.333 19.9258C177.359 19.8546 177.387 19.7897 177.416 19.7312C177.457 19.6704 177.509 19.6274 177.57 19.6025C177.623 19.3936 177.724 19.2286 177.874 19.1074C178.033 18.9711 178.147 18.8036 178.216 18.6051C178.326 18.5576 178.414 18.501 178.481 18.4353C178.548 18.3695 178.608 18.2986 178.66 18.2225C178.724 18.144 178.79 18.0718 178.857 18.0061C178.922 17.9275 179.003 17.8657 179.1 17.8207L179.06 17.6096C179.271 17.4635 179.415 17.3168 179.493 17.1695C179.582 17.0069 179.685 16.8151 179.802 16.594C179.914 16.5593 180.003 16.5359 180.067 16.5238C180.143 16.5092 180.25 16.4757 180.385 16.4234C180.454 16.2249 180.518 16.0736 180.578 15.9694C180.65 15.8629 180.76 15.7426 180.907 15.6087C181.075 15.6563 181.251 15.6759 181.435 15.6674C181.631 15.6565 181.814 15.7081 181.981 15.8221C182.018 15.9476 182.076 16.0426 182.154 16.1072C182.231 16.159 182.313 16.2096 182.402 16.259C182.488 16.2956 182.57 16.3398 182.646 16.3916C182.735 16.4409 182.803 16.5208 182.85 16.631C182.904 16.6341 182.935 16.6216 182.943 16.5936C182.963 16.5632 183.001 16.5495 183.054 16.5526C183.127 16.7244 183.194 16.8374 183.258 16.8916C183.319 16.9331 183.39 17.0321 183.473 17.1886C183.434 17.3287 183.408 17.4727 183.396 17.6208C183.395 17.7535 183.336 17.8641 183.221 17.9523C183.225 18.0443 183.26 18.0906 183.327 18.0912C183.391 18.0791 183.435 18.1038 183.46 18.1653C183.495 18.278 183.491 18.3648 183.45 18.4257C183.852 18.8662 184.228 19.3449 184.577 19.8615C184.925 20.3654 185.3 20.8376 185.702 21.2782ZM183.649 23.5567C183.674 23.4063 183.716 23.279 183.776 23.1749C183.848 23.0683 183.874 22.9243 183.853 22.7428C183.769 22.6526 183.716 22.5831 183.694 22.5344C183.669 22.4729 183.644 22.3782 183.62 22.2502C183.263 21.9072 182.94 21.5312 182.65 21.1224C182.358 20.7007 182.046 20.316 181.715 19.968C181.699 20.024 181.664 20.0837 181.61 20.147C181.556 20.2104 181.483 20.2109 181.392 20.1488C181.385 20.256 181.355 20.3412 181.301 20.4045C181.244 20.4551 181.178 20.4876 181.101 20.5022C181.022 20.504 180.935 20.5006 180.84 20.492C180.756 20.4683 180.678 20.4368 180.604 20.3978C180.289 20.7625 179.973 21.1208 179.655 21.4727C179.338 21.8247 179.067 22.214 178.843 22.6409C178.797 22.6762 178.767 22.6951 178.755 22.6975C178.739 22.6872 178.702 22.7008 178.643 22.7386C178.587 23.0011 178.501 23.2492 178.387 23.4831C178.283 23.7017 178.18 23.9267 178.078 24.1581C177.976 24.3895 177.896 24.6301 177.837 24.8798C177.779 25.1295 177.772 25.409 177.818 25.7185C178.069 25.8562 178.346 25.9164 178.647 25.8988C178.949 25.8813 179.25 25.8306 179.553 25.7467C179.867 25.6603 180.167 25.5636 180.452 25.4566C180.747 25.3343 181.022 25.2488 181.278 25.2002C181.791 24.9702 182.22 24.7164 182.564 24.4388C182.907 24.1484 183.269 23.8544 183.649 23.5567ZM197.81 23.2718C197.774 23.5038 197.702 23.7496 197.592 24.009C197.493 24.2532 197.358 24.4843 197.187 24.7022C197.027 24.905 196.836 25.087 196.615 25.2483C196.394 25.4096 196.15 25.5222 195.884 25.586C195.71 25.5793 195.587 25.5564 195.513 25.5174C195.454 25.4887 195.39 25.4613 195.318 25.435C195.275 25.4167 195.233 25.4048 195.192 25.3993C195.162 25.3786 195.133 25.3643 195.105 25.3564L194.856 25.3042L194.885 25.0401C194.892 24.933 194.871 24.8574 194.823 24.8135C194.772 24.7569 194.679 24.6883 194.545 24.6078C194.499 24.5768 194.454 24.5457 194.408 24.5146C194.362 24.4835 194.323 24.4512 194.29 24.4177L193.895 24.1151L194.387 23.8823C194.69 23.732 194.879 23.5768 194.955 23.4167C195.043 23.2541 195.043 23.0089 194.954 22.6812C194.689 22.6786 194.47 22.7135 194.298 22.7859C194.139 22.8559 193.975 22.9335 193.806 23.0187C193.587 23.1264 193.362 23.2289 193.128 23.3263C192.905 23.4084 192.653 23.4762 192.372 23.5297C192.27 23.5491 192.174 23.5673 192.084 23.5844C191.992 23.5886 191.894 23.594 191.789 23.6007L191.59 23.5988C191.537 23.4629 191.497 23.391 191.469 23.3831C191.439 23.3624 191.408 23.3416 191.378 23.3209C191.302 23.2691 191.216 23.1993 191.119 23.1116C191.034 23.0086 190.994 22.8703 191.001 22.6967C190.915 22.5938 190.855 22.4859 190.82 22.3732C190.773 22.5413 190.745 22.7121 190.739 22.8857L190.698 23.0922L190.514 23.167C190.491 23.1847 190.477 23.2203 190.474 23.2739C190.469 23.3147 190.469 23.3479 190.473 23.3735L190.439 23.7179C190.419 23.7484 190.398 23.7788 190.377 23.8092C190.354 23.8269 190.332 23.8509 190.311 23.8814C190.308 24.0014 190.298 24.1226 190.281 24.245C190.265 24.3674 190.247 24.4834 190.228 24.5931C190.196 24.7715 190.17 24.9488 190.15 25.1248C190.141 25.2856 190.157 25.4415 190.199 25.5926L190.163 25.8182C190.113 25.9071 190.055 25.9845 189.988 26.0502C189.918 26.1032 189.849 26.1561 189.78 26.2091C189.759 26.2395 189.725 26.2724 189.679 26.3077C189.643 26.3278 189.614 26.3467 189.59 26.3643L189.573 26.5863L189.35 26.6684C189.214 26.7208 189.115 26.7594 189.054 26.7843C189.005 26.8069 188.942 26.8254 188.866 26.84L188.67 26.8573C188.508 26.7689 188.382 26.7 188.293 26.6506C188.202 26.5884 188.099 26.5351 187.984 26.4906C187.84 26.3589 187.754 26.256 187.727 26.1817C187.699 26.1073 187.673 26.0394 187.648 25.9779C187.608 25.906 187.583 25.8445 187.573 25.7933C187.551 25.7446 187.524 25.7098 187.494 25.6891L187.201 25.5062L187.379 25.2934L187.336 24.9636C187.468 24.2626 187.618 23.5848 187.785 22.9301C187.965 22.2729 188.149 21.6018 188.337 20.9167C188.4 20.6925 188.457 20.4696 188.508 20.248C188.571 20.0238 188.635 19.7997 188.698 19.5756C188.678 19.5397 188.663 19.4961 188.653 19.4449C188.644 19.3938 188.646 19.3338 188.659 19.265C188.758 19.0208 188.837 18.807 188.895 18.6237C188.95 18.4276 189.006 18.2315 189.062 18.0354C189.123 17.7985 189.185 17.568 189.248 17.3439C189.324 17.1173 189.425 16.8795 189.55 16.6304L189.832 16.4378C189.867 16.4177 189.91 16.3964 189.959 16.3739C190.005 16.3386 190.06 16.3149 190.124 16.3027L190.419 16.2864C190.746 16.0521 191.015 15.7623 191.228 15.417C191.438 15.059 191.644 14.6421 191.845 14.1665L191.986 13.8614L192.265 13.9675C192.336 13.9938 192.433 14.0151 192.555 14.0316C192.675 14.0353 192.803 14.0442 192.938 14.0583C193.178 14.0657 193.406 14.082 193.623 14.107C193.84 14.1321 194.025 14.1964 194.177 14.3001C194.292 14.4902 194.366 14.6351 194.399 14.7351C194.431 14.835 194.47 14.9336 194.515 15.0311C194.594 15.2413 194.668 15.4527 194.734 15.6653C194.814 15.8755 194.886 16.1136 194.95 16.3798C195.055 16.5852 195.148 16.7929 195.227 17.0031C195.317 17.198 195.402 17.4006 195.482 17.6108C195.604 17.9056 195.725 18.1941 195.845 18.4761C195.962 18.7454 196.097 18.9982 196.248 19.2346C196.35 19.2152 196.415 19.2094 196.443 19.2174C196.502 19.1796 196.563 19.1483 196.624 19.1233C196.698 19.096 196.779 19.0674 196.866 19.0376L197.074 18.9783L197.187 19.1556C197.212 19.2171 197.288 19.2689 197.415 19.311C197.584 19.2922 197.713 19.3075 197.802 19.3569C197.888 19.3934 197.969 19.4376 198.046 19.4894C198.106 19.5309 198.165 19.5595 198.221 19.5754L198.531 19.6358L198.432 19.9528C198.348 20.2074 198.205 20.4665 198.003 20.7301C197.812 20.9786 197.582 21.2011 197.315 21.3977C197.342 21.472 197.363 21.5475 197.378 21.6243C197.403 21.6858 197.435 21.7525 197.475 21.8244C197.555 22.0346 197.629 22.2524 197.699 22.4778C197.768 22.7032 197.813 22.9398 197.834 23.1877L197.81 23.2718ZM191.634 21.0059C192.013 20.9074 192.353 20.8162 192.655 20.7323C192.968 20.6331 193.309 20.5087 193.678 20.3591C193.516 19.9923 193.344 19.614 193.164 19.2241C192.982 18.8214 192.794 18.4263 192.601 18.0388L192.522 18.2526C192.317 18.5698 192.125 18.9178 191.945 19.2966C191.778 19.673 191.639 20.024 191.529 20.3498C191.474 20.4796 191.419 20.6093 191.364 20.739C191.31 20.8687 191.261 20.9972 191.219 21.1245C191.293 21.0971 191.362 21.0773 191.426 21.0652C191.503 21.0506 191.572 21.0308 191.634 21.0059ZM203.195 22.5269C203.332 22.8985 203.364 23.204 203.29 23.4433C203.229 23.6802 203.106 23.8693 202.92 24.0105C202.75 24.1621 202.539 24.2686 202.285 24.33C202.032 24.3914 201.786 24.4248 201.549 24.4301C201.387 24.2754 201.229 24.0734 201.076 23.8242C200.923 23.575 200.774 23.3182 200.631 23.0538C200.486 22.7766 200.348 22.5046 200.218 22.2377C200.1 21.9685 199.995 21.73 199.903 21.5222C199.938 21.3566 199.943 21.1766 199.92 20.9823C199.906 20.7727 199.88 20.5656 199.841 20.361C199.815 20.1539 199.783 19.948 199.744 19.7433C199.715 19.5234 199.696 19.3151 199.685 19.1183C199.672 18.5641 199.703 18.0281 199.777 17.5104C199.864 16.9903 199.908 16.4583 199.911 15.9143C199.915 15.7943 199.881 15.688 199.811 15.5954C199.753 15.5004 199.728 15.4057 199.737 15.3113C199.74 15.2577 199.772 15.2184 199.834 15.1934C199.893 15.1557 199.923 15.1036 199.923 15.0373C199.935 14.8893 199.919 14.7729 199.877 14.6882C199.847 14.6011 199.852 14.4875 199.892 14.3474C199.936 14.233 199.985 14.0713 200.038 13.8624C200.101 13.6383 200.1 13.4199 200.033 13.2073C200.133 13.1087 200.225 12.9985 200.308 12.8767C200.391 12.7549 200.476 12.6459 200.564 12.5497C200.662 12.4383 200.769 12.3385 200.885 12.2502C201.013 12.1595 201.174 12.0959 201.365 12.0595C201.492 12.1679 201.583 12.2965 201.638 12.4451C201.705 12.5914 201.766 12.7388 201.821 12.8874C201.888 13.0336 201.968 13.171 202.058 13.2996C202.147 13.4154 202.275 13.497 202.443 13.5446C202.462 13.647 202.487 13.7749 202.516 13.9284C202.545 14.0819 202.58 14.2342 202.622 14.3852C202.662 14.5235 202.713 14.653 202.776 14.7736C202.849 14.879 202.94 14.9412 203.05 14.9601C202.936 15.6179 202.834 16.2668 202.744 16.9069C202.666 17.5446 202.622 18.1826 202.61 18.8209C202.597 19.4465 202.629 20.0699 202.707 20.6912C202.798 21.3101 202.961 21.922 203.195 22.5269ZM204.343 14.7542C204.381 14.4686 204.478 14.2116 204.634 13.9832C204.802 13.7525 204.989 13.5513 205.195 13.3796C205.411 13.1927 205.639 13.0302 205.877 12.892C206.116 12.7539 206.345 12.6309 206.563 12.5232C207.033 12.2085 207.538 11.9006 208.077 11.5993C208.627 11.2829 209.188 10.9907 209.76 10.723C210.344 10.4528 210.953 10.2378 211.585 10.0779C212.215 9.90521 212.901 9.85437 213.644 9.92536C213.706 10.046 213.787 10.1566 213.886 10.2571C213.984 10.3577 214.083 10.4582 214.182 10.5588C214.293 10.6569 214.392 10.7574 214.478 10.8604C214.561 10.9506 214.62 11.052 214.655 11.1647C214.804 11.2555 214.931 11.364 215.035 11.4901C215.136 11.6035 215.181 11.7737 215.171 12.0009C215.063 12.1276 214.953 12.2478 214.842 12.3617C214.742 12.4603 214.627 12.5549 214.499 12.6456C214.003 12.6204 213.516 12.6732 213.038 12.8039C212.559 12.9347 212.13 13.0493 211.751 13.1478C211.614 13.0545 211.462 13.0237 211.296 13.0553C211.143 13.0845 210.981 13.1417 210.812 13.2268C210.655 13.3096 210.492 13.3936 210.323 13.4788C210.166 13.5616 210.009 13.6047 209.851 13.6083C209.742 13.7349 209.596 13.8357 209.411 13.9105C209.237 13.9701 209.043 14.0334 208.831 14.1003C208.83 14.1667 208.851 14.209 208.895 14.2273C208.935 14.2328 208.949 14.27 208.936 14.3388C209.029 14.4138 209.138 14.4595 209.26 14.476C209.395 14.4901 209.53 14.5041 209.666 14.5182C209.814 14.5298 209.945 14.5579 210.059 14.6024C210.171 14.6342 210.259 14.7103 210.321 14.831C210.513 14.7945 210.688 14.8077 210.846 14.8705C211.004 14.9333 211.139 15.0202 211.253 15.1311C211.367 15.242 211.458 15.3705 211.525 15.5167C211.603 15.6477 211.653 15.7708 211.675 15.8859C211.733 15.981 211.786 16.0172 211.835 15.9947C211.884 15.9722 211.946 15.9868 212.022 16.0387C212.092 16.1977 212.221 16.3521 212.408 16.502C212.593 16.6392 212.75 16.8016 212.879 16.9892C212.965 17.3042 213.039 17.5883 213.1 17.8417C213.159 18.0824 213.162 18.3403 213.108 18.6156C213.006 19.1254 212.818 19.5985 212.543 20.0351C212.281 20.4693 211.96 20.8748 211.581 21.2516C211.212 21.6133 210.805 21.9426 210.357 22.2396C209.91 22.5367 209.47 22.7993 209.036 23.0275C208.982 23.0244 208.931 23.0341 208.882 23.0567C208.834 23.0792 208.815 23.0496 208.826 22.968C208.74 23.077 208.636 23.1564 208.513 23.2063C208.403 23.2538 208.276 23.2845 208.133 23.2984C207.992 23.3252 207.844 23.3467 207.688 23.3631C207.545 23.377 207.412 23.409 207.289 23.4588C207.182 23.3863 207.082 23.3126 206.988 23.2376C206.91 23.173 206.839 23.0804 206.776 22.9598C206.712 22.9719 206.674 22.946 206.662 22.8821C206.663 22.8157 206.638 22.7873 206.586 22.7971C206.639 22.6545 206.658 22.5781 206.642 22.5678C206.637 22.5422 206.615 22.5266 206.574 22.5211C206.546 22.5132 206.518 22.5053 206.49 22.4973C206.459 22.4766 206.447 22.4458 206.452 22.405C206.484 22.293 206.481 22.1742 206.444 22.0487C206.405 21.9104 206.365 21.7722 206.326 21.6339C206.286 21.4956 206.267 21.3601 206.268 21.2273C206.282 21.0921 206.359 20.9715 206.498 20.8656C206.942 20.8341 207.349 20.7436 207.719 20.5939C208.098 20.429 208.446 20.237 208.762 20.0179C209.078 19.7987 209.373 19.5705 209.646 19.333C209.932 19.0932 210.215 18.8737 210.495 18.6747C210.512 18.5523 210.545 18.4466 210.594 18.3577C210.656 18.2664 210.719 18.1814 210.784 18.1029C210.849 18.0244 210.906 17.9406 210.955 17.8517C211.004 17.7628 211.031 17.6584 211.035 17.5384C211.03 17.4464 210.995 17.4001 210.929 17.3995C210.873 17.3836 210.837 17.3373 210.823 17.2605L210.601 17.2431C210.331 17.1486 210.034 17.0857 209.71 17.0545C209.384 17.0105 209.101 16.9516 208.861 16.8777C208.735 16.9812 208.605 17.0259 208.469 17.0119C208.347 16.9954 208.186 16.9862 207.987 16.9842C207.547 17.0413 207.117 17.0767 206.695 17.0905C206.286 17.1019 205.881 17.0597 205.478 16.9639C205.44 16.9048 205.398 16.8533 205.349 16.8094C205.301 16.7656 205.229 16.7661 205.131 16.8112C205.035 16.7234 204.94 16.6421 204.846 16.5671C204.75 16.4793 204.659 16.384 204.573 16.281C204.57 16.1226 204.564 15.9911 204.558 15.8863C204.549 15.7688 204.49 15.6673 204.381 15.582C204.4 15.406 204.413 15.2644 204.419 15.1572C204.425 15.05 204.4 14.9157 204.343 14.7542Z" fill="#4E7AA3"/>
<path d="M284.5 29.9099L283.879 28.5443L283.798 28.5813L283.721 28.6277L284.5 29.9099ZM308.5 19L308.091 17.5568L307.982 17.5877L307.879 17.6345L308.5 19ZM339.81 11.2313C340.214 10.5081 339.955 9.59427 339.231 9.19036L327.445 2.6082C326.721 2.20429 325.808 2.46319 325.404 3.18648C325 3.90977 325.259 4.82355 325.982 5.22746L336.459 11.0783L330.608 21.5553C330.204 22.2786 330.463 23.1924 331.186 23.5963C331.91 24.0002 332.824 23.7413 333.227 23.018L339.81 11.2313ZM174.126 61.7406C173.38 61.379 172.483 61.6902 172.121 62.4355C171.76 63.1809 172.071 64.0782 172.816 64.4398L174.126 61.7406ZM180.5 66.5L179.845 67.8496L179.921 67.8864L180.001 67.9145L180.5 66.5ZM189 69.5L188.501 70.9145L188.568 70.938L188.636 70.9552L189 69.5ZM195 71L194.636 72.4552L194.649 72.4585L194.663 72.4616L195 71ZM201.5 72.5L201.163 73.9616L201.329 74L201.5 74L201.5 72.5ZM208.25 72.5L208.25 74L208.25 72.5ZM215.5 72.5L215.5 74L215.568 74L215.636 73.9938L215.5 72.5ZM221 72L221.136 73.4938L221.191 73.4888L221.247 73.4796L221 72ZM227 71L227.247 72.4796L227.34 72.464L227.431 72.4367L227 71ZM232 69.5L232.431 70.9367L232.528 70.9076L232.621 70.8656L232 69.5ZM237.5 67L238.121 68.3656L238.243 68.3099L238.354 68.2333L237.5 67ZM250 58L250.9 59.2L250.985 59.136L251.061 59.0607L250 58ZM255 53L256.061 54.0607L256.109 54.0125L256.152 53.9603L255 53ZM260 47L259.069 45.8239L258.947 45.9204L258.848 46.0397L260 47ZM244 62.5L244.854 63.7333L244.877 63.7171L244.9 63.7L244 62.5ZM272 37.5L271.221 36.2179L271.142 36.2662L271.069 36.3239L272 37.5ZM285.121 31.2754L309.121 20.3655L307.879 17.6345L283.879 28.5443L285.121 31.2754ZM308.909 20.4432L338.909 11.9432L338.091 9.0568L308.091 17.5568L308.909 20.4432ZM172.816 64.4398L179.845 67.8496L181.155 65.1504L174.126 61.7406L172.816 64.4398ZM180.001 67.9145L188.501 70.9145L189.499 68.0855L180.999 65.0855L180.001 67.9145ZM188.636 70.9552L194.636 72.4552L195.364 69.5448L189.364 68.0448L188.636 70.9552ZM194.663 72.4616L201.163 73.9616L201.837 71.0384L195.337 69.5384L194.663 72.4616ZM201.5 74L208.25 74L208.25 71L201.5 71L201.5 74ZM208.25 74L215.5 74L215.5 71L208.25 71L208.25 74ZM215.636 73.9938L221.136 73.4938L220.864 70.5062L215.364 71.0062L215.636 73.9938ZM221.247 73.4796L227.247 72.4796L226.753 69.5204L220.753 70.5204L221.247 73.4796ZM227.431 72.4367L232.431 70.9367L231.569 68.0633L226.569 69.5633L227.431 72.4367ZM232.621 70.8656L238.121 68.3656L236.879 65.6344L231.379 68.1344L232.621 70.8656ZM251.061 59.0607L256.061 54.0607L253.939 51.9393L248.939 56.9393L251.061 59.0607ZM256.152 53.9603L261.152 47.9603L258.848 46.0397L253.848 52.0397L256.152 53.9603ZM238.354 68.2333L244.854 63.7333L243.146 61.2667L236.646 65.7667L238.354 68.2333ZM244.9 63.7L250.9 59.2L249.1 56.8L243.1 61.3L244.9 63.7ZM260.931 48.1761L272.931 38.6761L271.069 36.3239L259.069 45.8239L260.931 48.1761ZM272.779 38.7821L285.278 31.192L283.721 28.6277L271.221 36.2179L272.779 38.7821Z" fill="#4E7AA3"/>
</svg>
