<svg width="270" height="78" viewBox="0 0 270 78" fill="none" xmlns="http://www.w3.org/2000/svg">
<path d="M0 39C0 17.4609 17.4609 0 39 0H231C252.539 0 270 17.4609 270 39V39C270 60.5391 252.539 78 231 78H39C17.4609 78 0 60.5391 0 39V39Z" fill="#B5CFE8"/>
<path d="M15 38.6533L26.6533 27M15.2158 38.6533L26.8691 50.3067" stroke="#14279B"/>
<path d="M88.69 43.9C88.69 43.22 89.01 42.88 89.65 42.88C90.33 42.88 90.67 43.14 90.67 43.66C90.67 44.8 91.05 45.7 91.81 46.36C92.59 47.02 93.63 47.35 94.93 47.35C96.29 47.35 97.34 46.97 98.08 46.21C98.82 45.45 99.19 44.3 99.19 42.76V28.9H94.96C94.72 28.9 94.53 28.81 94.39 28.63C94.27 28.43 94.21 28.2 94.21 27.94C94.21 27.7 94.27 27.5 94.39 27.34C94.53 27.16 94.72 27.07 94.96 27.07H100.24C100.86 27.07 101.17 27.32 101.17 27.82V42.76C101.17 44.98 100.6 46.61 99.46 47.65C98.34 48.67 96.85 49.18 94.99 49.18C93.09 49.18 91.56 48.69 90.4 47.71C89.26 46.71 88.69 45.44 88.69 43.9ZM104.496 43.51V40.24C104.496 38.72 105.056 37.41 106.176 36.31C107.296 35.19 108.626 34.63 110.166 34.63C111.706 34.63 113.046 35.18 114.186 36.28C115.326 37.38 115.896 38.7 115.896 40.24V43.51C115.896 45.01 115.316 46.34 114.156 47.5C113.016 48.64 111.686 49.21 110.166 49.21C108.666 49.21 107.346 48.64 106.206 47.5C105.066 46.34 104.496 45.01 104.496 43.51ZM106.446 43.51C106.446 44.53 106.806 45.44 107.526 46.24C108.266 47.02 109.146 47.41 110.166 47.41C111.206 47.41 112.096 47.02 112.836 46.24C113.576 45.44 113.946 44.53 113.946 43.51V40.24C113.946 39.26 113.566 38.38 112.806 37.6C112.066 36.82 111.186 36.43 110.166 36.43C109.146 36.43 108.266 36.82 107.526 37.6C106.806 38.38 106.446 39.26 106.446 40.24V43.51ZM117.959 51.97C117.959 50.47 118.809 49.38 120.509 48.7C119.409 48.32 118.859 47.63 118.859 46.63C118.859 45.73 119.359 45.01 120.359 44.47C119.259 43.55 118.709 42.29 118.709 40.69V39.55C118.709 38.09 119.179 36.91 120.119 36.01C121.079 35.09 122.329 34.63 123.869 34.63C125.269 34.63 126.439 35.05 127.379 35.89C127.679 35.31 128.019 34.85 128.399 34.51C128.779 34.17 129.149 34 129.509 34C129.789 34 130.009 34.08 130.169 34.24C130.329 34.4 130.409 34.58 130.409 34.78C130.409 35.14 130.239 35.36 129.899 35.44C129.199 35.58 128.639 36.01 128.219 36.73C128.779 37.47 129.059 38.41 129.059 39.55V40.69C129.059 42.13 128.569 43.32 127.589 44.26C126.609 45.2 125.359 45.67 123.839 45.67C123.019 45.67 122.249 45.5 121.529 45.16C120.909 45.5 120.599 45.89 120.599 46.33C120.599 46.75 120.829 47.07 121.289 47.29C121.749 47.51 122.319 47.65 122.999 47.71C123.699 47.77 124.449 47.87 125.249 48.01C126.069 48.13 126.819 48.29 127.499 48.49C128.199 48.69 128.779 49.06 129.239 49.6C129.699 50.14 129.929 50.84 129.929 51.7C129.929 53.06 129.389 54.11 128.309 54.85C127.229 55.59 125.809 55.96 124.049 55.96C122.249 55.96 120.779 55.6 119.639 54.88C118.519 54.16 117.959 53.19 117.959 51.97ZM119.849 51.79C119.849 52.61 120.219 53.27 120.959 53.77C121.719 54.27 122.739 54.52 124.019 54.52C125.279 54.52 126.259 54.27 126.959 53.77C127.679 53.27 128.039 52.6 128.039 51.76C128.039 51.36 127.939 51.01 127.739 50.71C127.539 50.41 127.299 50.18 127.019 50.02C126.759 49.86 126.409 49.72 125.969 49.6C125.529 49.48 125.139 49.4 124.799 49.36C124.479 49.32 124.069 49.28 123.569 49.24L122.519 49.12C120.739 49.68 119.849 50.57 119.849 51.79ZM120.599 40.66C120.599 41.7 120.889 42.55 121.469 43.21C122.069 43.87 122.879 44.2 123.899 44.2C124.879 44.2 125.659 43.87 126.239 43.21C126.839 42.55 127.139 41.71 127.139 40.69V39.55C127.139 38.55 126.839 37.73 126.239 37.09C125.659 36.43 124.869 36.1 123.869 36.1C122.869 36.1 122.069 36.43 121.469 37.09C120.889 37.73 120.599 38.55 120.599 39.55V40.66ZM132.093 43.51V40.24C132.093 38.72 132.653 37.41 133.773 36.31C134.893 35.19 136.223 34.63 137.763 34.63C139.303 34.63 140.643 35.18 141.783 36.28C142.923 37.38 143.493 38.7 143.493 40.24V43.51C143.493 45.01 142.913 46.34 141.753 47.5C140.613 48.64 139.283 49.21 137.763 49.21C136.263 49.21 134.943 48.64 133.803 47.5C132.663 46.34 132.093 45.01 132.093 43.51ZM134.043 43.51C134.043 44.53 134.403 45.44 135.123 46.24C135.863 47.02 136.743 47.41 137.763 47.41C138.803 47.41 139.693 47.02 140.433 46.24C141.173 45.44 141.543 44.53 141.543 43.51V40.24C141.543 39.26 141.163 38.38 140.403 37.6C139.663 36.82 138.783 36.43 137.763 36.43C136.743 36.43 135.863 36.82 135.123 37.6C134.403 38.38 134.043 39.26 134.043 40.24V43.51ZM145.797 47.05C145.797 46.85 145.867 46.65 146.007 46.45C146.147 46.25 146.307 46.15 146.487 46.15C146.627 46.15 146.847 46.27 147.147 46.51C147.447 46.73 147.877 46.96 148.437 47.2C148.997 47.44 149.667 47.56 150.447 47.56C151.507 47.56 152.287 47.36 152.787 46.96C153.287 46.56 153.537 46.05 153.537 45.43C153.537 44.71 153.277 44.14 152.757 43.72C152.257 43.28 151.647 42.96 150.927 42.76C150.207 42.56 149.477 42.34 148.737 42.1C148.017 41.86 147.397 41.47 146.877 40.93C146.377 40.37 146.127 39.63 146.127 38.71C146.127 37.61 146.517 36.66 147.297 35.86C148.097 35.04 149.287 34.63 150.867 34.63C151.847 34.63 152.757 34.79 153.597 35.11C154.457 35.41 154.887 35.74 154.887 36.1C154.887 36.3 154.807 36.52 154.647 36.76C154.487 37 154.297 37.12 154.077 37.12C154.017 37.12 153.647 36.98 152.967 36.7C152.287 36.42 151.597 36.28 150.897 36.28C149.897 36.28 149.147 36.52 148.647 37C148.147 37.48 147.897 38.02 147.897 38.62C147.897 39.24 148.147 39.73 148.647 40.09C149.167 40.45 149.787 40.73 150.507 40.93C151.247 41.11 151.977 41.33 152.697 41.59C153.437 41.83 154.057 42.27 154.557 42.91C155.077 43.53 155.337 44.34 155.337 45.34C155.337 46.54 154.907 47.49 154.047 48.19C153.207 48.87 152.027 49.21 150.507 49.21C149.187 49.21 148.067 48.98 147.147 48.52C146.247 48.04 145.797 47.55 145.797 47.05Z" fill="#14279B"/>
</svg>
