<svg width="270" height="78" viewBox="0 0 270 78" fill="none" xmlns="http://www.w3.org/2000/svg">
<path d="M0 39C0 17.4609 17.4609 0 39 0H231C252.539 0 270 17.4609 270 39V39C270 60.5391 252.539 78 231 78H39C17.4609 78 0 60.5391 0 39V39Z" fill="#B5CFE8"/>
<path d="M15 38.6533L26.6533 27M15.2158 38.6533L26.8691 50.3067" stroke="#14279B"/>
<path d="M88.63 48.16C88.63 48.06 88.64 47.99 88.66 47.95L94.93 27.58C95.07 27.12 95.46 26.89 96.1 26.89C96.74 26.89 97.14 27.12 97.3 27.58L103.54 47.95C103.54 47.97 103.54 48 103.54 48.04C103.56 48.08 103.57 48.11 103.57 48.13C103.57 48.37 103.44 48.58 103.18 48.76C102.92 48.92 102.65 49 102.37 49C101.99 49 101.74 48.83 101.62 48.49L100.24 43.87H91.93L90.55 48.49C90.47 48.83 90.21 49 89.77 49C89.49 49 89.23 48.92 88.99 48.76C88.75 48.6 88.63 48.4 88.63 48.16ZM92.44 42.16H99.73L96.1 30.07L92.44 42.16ZM106.091 48.22V35.53C106.091 35.31 106.181 35.14 106.361 35.02C106.541 34.88 106.771 34.81 107.051 34.81C107.291 34.81 107.501 34.88 107.681 35.02C107.861 35.16 107.951 35.33 107.951 35.53V36.91C108.291 36.27 108.811 35.73 109.511 35.29C110.211 34.85 111.031 34.63 111.971 34.63C113.411 34.63 114.661 35.18 115.721 36.28C116.781 37.38 117.311 38.7 117.311 40.24V48.22C117.311 48.46 117.211 48.65 117.011 48.79C116.811 48.93 116.581 49 116.321 49C116.081 49 115.861 48.93 115.661 48.79C115.461 48.65 115.361 48.46 115.361 48.22V40.24C115.361 39.26 114.991 38.38 114.251 37.6C113.511 36.82 112.631 36.43 111.611 36.43C110.671 36.43 109.841 36.78 109.121 37.48C108.401 38.18 108.041 39.1 108.041 40.24V48.22C108.041 48.42 107.941 48.6 107.741 48.76C107.541 48.92 107.311 49 107.051 49C106.771 49 106.541 48.92 106.361 48.76C106.181 48.6 106.091 48.42 106.091 48.22ZM120.974 30.25C120.714 29.99 120.584 29.69 120.584 29.35C120.584 29.01 120.714 28.72 120.974 28.48C121.234 28.24 121.554 28.12 121.934 28.12C122.294 28.12 122.594 28.24 122.834 28.48C123.094 28.72 123.224 29.01 123.224 29.35C123.224 29.69 123.094 29.99 122.834 30.25C122.594 30.49 122.294 30.61 121.934 30.61C121.554 30.61 121.234 30.49 120.974 30.25ZM120.974 48.22V35.53C120.974 35.33 121.064 35.16 121.244 35.02C121.424 34.88 121.654 34.81 121.934 34.81C122.214 34.81 122.444 34.88 122.624 35.02C122.824 35.16 122.924 35.33 122.924 35.53V48.22C122.924 48.42 122.824 48.6 122.624 48.76C122.424 48.92 122.194 49 121.934 49C121.674 49 121.444 48.92 121.244 48.76C121.064 48.6 120.974 48.42 120.974 48.22ZM126.716 48.22V35.53C126.716 35.33 126.806 35.16 126.986 35.02C127.166 34.88 127.396 34.81 127.676 34.81C127.936 34.81 128.156 34.88 128.336 35.02C128.516 35.16 128.606 35.33 128.606 35.53V36.91C128.966 36.25 129.486 35.71 130.166 35.29C130.866 34.85 131.676 34.63 132.596 34.63C133.556 34.63 134.416 34.91 135.176 35.47C135.936 36.01 136.496 36.73 136.856 37.63C137.356 36.65 138.016 35.91 138.836 35.41C139.656 34.89 140.516 34.63 141.416 34.63C142.776 34.63 143.956 35.14 144.956 36.16C145.956 37.18 146.456 38.54 146.456 40.24V48.22C146.456 48.42 146.356 48.6 146.156 48.76C145.976 48.92 145.746 49 145.466 49C145.206 49 144.976 48.92 144.776 48.76C144.596 48.6 144.506 48.42 144.506 48.22V40.24C144.506 39.06 144.156 38.13 143.456 37.45C142.776 36.77 141.986 36.43 141.086 36.43C140.166 36.43 139.346 36.78 138.626 37.48C137.926 38.16 137.576 39.04 137.576 40.12V48.25C137.576 48.75 137.246 49 136.586 49C135.946 49 135.626 48.75 135.626 48.25V40.15C135.626 39.09 135.286 38.21 134.606 37.51C133.946 36.79 133.146 36.43 132.206 36.43C131.266 36.43 130.436 36.78 129.716 37.48C129.016 38.16 128.666 39.08 128.666 40.24V48.22C128.666 48.42 128.566 48.6 128.366 48.76C128.166 48.92 127.936 49 127.676 49C127.416 49 127.186 48.92 126.986 48.76C126.806 48.6 126.716 48.42 126.716 48.22ZM149.584 43.51V40.15C149.584 38.65 150.144 37.36 151.264 36.28C152.384 35.18 153.734 34.63 155.314 34.63C156.834 34.63 158.144 35.15 159.244 36.19C160.364 37.23 160.924 38.53 160.924 40.09C160.924 40.65 160.854 41.1 160.714 41.44C160.594 41.78 160.384 42.02 160.084 42.16C159.804 42.3 159.544 42.39 159.304 42.43C159.064 42.47 158.734 42.49 158.314 42.49H151.534V43.6C151.534 44.78 151.954 45.73 152.794 46.45C153.654 47.15 154.754 47.5 156.094 47.5C156.774 47.5 157.364 47.4 157.864 47.2C158.384 47 158.774 46.8 159.034 46.6C159.314 46.4 159.534 46.3 159.694 46.3C159.914 46.3 160.104 46.41 160.264 46.63C160.444 46.83 160.534 47.03 160.534 47.23C160.534 47.65 160.104 48.09 159.244 48.55C158.384 48.99 157.314 49.21 156.034 49.21C154.134 49.21 152.584 48.69 151.384 47.65C150.184 46.59 149.584 45.21 149.584 43.51ZM151.534 41.05H157.534C158.134 41.05 158.534 40.99 158.734 40.87C158.934 40.73 159.034 40.45 159.034 40.03C159.034 39.03 158.674 38.15 157.954 37.39C157.254 36.63 156.364 36.25 155.284 36.25C154.244 36.25 153.354 36.61 152.614 37.33C151.894 38.05 151.534 38.91 151.534 39.91V41.05ZM162.965 47.05C162.965 46.85 163.035 46.65 163.175 46.45C163.315 46.25 163.475 46.15 163.655 46.15C163.795 46.15 164.015 46.27 164.315 46.51C164.615 46.73 165.045 46.96 165.605 47.2C166.165 47.44 166.835 47.56 167.615 47.56C168.675 47.56 169.455 47.36 169.955 46.96C170.455 46.56 170.705 46.05 170.705 45.43C170.705 44.71 170.445 44.14 169.925 43.72C169.425 43.28 168.815 42.96 168.095 42.76C167.375 42.56 166.645 42.34 165.905 42.1C165.185 41.86 164.565 41.47 164.045 40.93C163.545 40.37 163.295 39.63 163.295 38.71C163.295 37.61 163.685 36.66 164.465 35.86C165.265 35.04 166.455 34.63 168.035 34.63C169.015 34.63 169.925 34.79 170.765 35.11C171.625 35.41 172.055 35.74 172.055 36.1C172.055 36.3 171.975 36.52 171.815 36.76C171.655 37 171.465 37.12 171.245 37.12C171.185 37.12 170.815 36.98 170.135 36.7C169.455 36.42 168.765 36.28 168.065 36.28C167.065 36.28 166.315 36.52 165.815 37C165.315 37.48 165.065 38.02 165.065 38.62C165.065 39.24 165.315 39.73 165.815 40.09C166.335 40.45 166.955 40.73 167.675 40.93C168.415 41.11 169.145 41.33 169.865 41.59C170.605 41.83 171.225 42.27 171.725 42.91C172.245 43.53 172.505 44.34 172.505 45.34C172.505 46.54 172.075 47.49 171.215 48.19C170.375 48.87 169.195 49.21 167.675 49.21C166.355 49.21 165.235 48.98 164.315 48.52C163.415 48.04 162.965 47.55 162.965 47.05Z" fill="#14279B"/>
</svg>
