<svg width="270" height="78" viewBox="0 0 270 78" fill="none" xmlns="http://www.w3.org/2000/svg">
<path d="M0 39C0 17.4609 17.4609 0 39 0H231C252.539 0 270 17.4609 270 39V39C270 60.5391 252.539 78 231 78H39C17.4609 78 0 60.5391 0 39V39Z" fill="#B5CFE8"/>
<path d="M15 38.6533L26.6533 27M15.2158 38.6533L26.8691 50.3067" stroke="#14279B"/>
<path d="M90.28 48.22V28.03C90.28 27.39 90.61 27.07 91.27 27.07C91.85 27.07 92.38 27.53 92.86 28.45L98.02 38.41L103.18 28.45C103.66 27.53 104.19 27.07 104.77 27.07C105.43 27.07 105.76 27.39 105.76 28.03V48.22C105.76 48.46 105.66 48.65 105.46 48.79C105.28 48.93 105.05 49 104.77 49C104.51 49 104.28 48.93 104.08 48.79C103.88 48.65 103.78 48.46 103.78 48.22V31.36L98.8 40.78C98.58 41.2 98.31 41.41 97.99 41.41C97.69 41.41 97.43 41.2 97.21 40.78L92.26 31.27V48.22C92.26 48.46 92.16 48.65 91.96 48.79C91.76 48.93 91.53 49 91.27 49C90.99 49 90.75 48.93 90.55 48.79C90.37 48.65 90.28 48.46 90.28 48.22ZM109.545 43.57V35.56C109.545 35.38 109.635 35.21 109.815 35.05C110.015 34.89 110.255 34.81 110.535 34.81C110.775 34.81 110.995 34.89 111.195 35.05C111.395 35.21 111.495 35.38 111.495 35.56V43.57C111.495 44.57 111.865 45.46 112.605 46.24C113.345 47.02 114.225 47.41 115.245 47.41C116.265 47.41 117.145 47.02 117.885 46.24C118.625 45.46 118.995 44.57 118.995 43.57V35.53C118.995 35.33 119.095 35.16 119.295 35.02C119.495 34.88 119.725 34.81 119.985 34.81C120.245 34.81 120.465 34.88 120.645 35.02C120.845 35.16 120.945 35.33 120.945 35.53V43.57C120.945 45.07 120.375 46.39 119.235 47.53C118.115 48.65 116.785 49.21 115.245 49.21C113.685 49.21 112.345 48.65 111.225 47.53C110.105 46.39 109.545 45.07 109.545 43.57ZM113.025 30.43C113.025 30.17 113.135 29.99 113.355 29.89L116.715 28.06C116.775 28 116.855 27.97 116.955 27.97C117.175 27.97 117.345 28.06 117.465 28.24C117.605 28.4 117.675 28.59 117.675 28.81C117.675 29.13 117.555 29.35 117.315 29.47L114.105 31.18C114.025 31.24 113.925 31.27 113.805 31.27C113.605 31.27 113.425 31.19 113.265 31.03C113.105 30.85 113.025 30.65 113.025 30.43ZM123.677 47.05C123.677 46.85 123.748 46.65 123.888 46.45C124.028 46.25 124.188 46.15 124.368 46.15C124.508 46.15 124.728 46.27 125.028 46.51C125.328 46.73 125.758 46.96 126.318 47.2C126.878 47.44 127.548 47.56 128.328 47.56C129.388 47.56 130.168 47.36 130.668 46.96C131.168 46.56 131.418 46.05 131.418 45.43C131.418 44.71 131.158 44.14 130.638 43.72C130.138 43.28 129.528 42.96 128.808 42.76C128.088 42.56 127.358 42.34 126.618 42.1C125.898 41.86 125.278 41.47 124.758 40.93C124.258 40.37 124.008 39.63 124.008 38.71C124.008 37.61 124.398 36.66 125.178 35.86C125.978 35.04 127.168 34.63 128.748 34.63C129.728 34.63 130.638 34.79 131.478 35.11C132.338 35.41 132.768 35.74 132.768 36.1C132.768 36.3 132.688 36.52 132.528 36.76C132.368 37 132.178 37.12 131.958 37.12C131.898 37.12 131.528 36.98 130.848 36.7C130.168 36.42 129.478 36.28 128.778 36.28C127.778 36.28 127.028 36.52 126.528 37C126.028 37.48 125.778 38.02 125.778 38.62C125.778 39.24 126.028 39.73 126.528 40.09C127.048 40.45 127.668 40.73 128.388 40.93C129.128 41.11 129.858 41.33 130.578 41.59C131.318 41.83 131.938 42.27 132.438 42.91C132.958 43.53 133.218 44.34 133.218 45.34C133.218 46.54 132.788 47.49 131.928 48.19C131.088 48.87 129.908 49.21 128.388 49.21C127.068 49.21 125.948 48.98 125.028 48.52C124.128 48.04 123.677 47.55 123.677 47.05ZM136.12 30.25C135.86 29.99 135.73 29.69 135.73 29.35C135.73 29.01 135.86 28.72 136.12 28.48C136.38 28.24 136.7 28.12 137.08 28.12C137.44 28.12 137.74 28.24 137.98 28.48C138.24 28.72 138.37 29.01 138.37 29.35C138.37 29.69 138.24 29.99 137.98 30.25C137.74 30.49 137.44 30.61 137.08 30.61C136.7 30.61 136.38 30.49 136.12 30.25ZM136.12 48.22V35.53C136.12 35.33 136.21 35.16 136.39 35.02C136.57 34.88 136.8 34.81 137.08 34.81C137.36 34.81 137.59 34.88 137.77 35.02C137.97 35.16 138.07 35.33 138.07 35.53V48.22C138.07 48.42 137.97 48.6 137.77 48.76C137.57 48.92 137.34 49 137.08 49C136.82 49 136.59 48.92 136.39 48.76C136.21 48.6 136.12 48.42 136.12 48.22ZM141.353 43.51V40.3C141.353 38.62 141.843 37.26 142.823 36.22C143.803 35.16 145.243 34.63 147.143 34.63C148.343 34.63 149.343 34.85 150.143 35.29C150.963 35.71 151.373 36.14 151.373 36.58C151.373 36.8 151.283 37.02 151.103 37.24C150.923 37.44 150.723 37.54 150.503 37.54C150.383 37.54 150.193 37.45 149.933 37.27C149.693 37.09 149.343 36.91 148.883 36.73C148.423 36.53 147.873 36.43 147.233 36.43C145.953 36.43 144.973 36.77 144.293 37.45C143.633 38.13 143.303 39.08 143.303 40.3V43.51C143.303 44.75 143.633 45.71 144.293 46.39C144.973 47.07 145.963 47.41 147.263 47.41C147.943 47.41 148.513 47.32 148.973 47.14C149.453 46.94 149.813 46.75 150.053 46.57C150.313 46.37 150.513 46.27 150.653 46.27C150.913 46.27 151.123 46.37 151.283 46.57C151.463 46.77 151.553 46.99 151.553 47.23C151.553 47.69 151.133 48.14 150.293 48.58C149.453 49 148.413 49.21 147.173 49.21C145.253 49.21 143.803 48.69 142.823 47.65C141.843 46.61 141.353 45.23 141.353 43.51ZM153.207 45.25C153.207 43.71 153.797 42.64 154.977 42.04C156.177 41.44 157.917 41.14 160.197 41.14H161.727V40.42C161.727 39.32 161.437 38.37 160.857 37.57C160.277 36.75 159.387 36.34 158.187 36.34C157.387 36.34 156.657 36.49 155.997 36.79C155.357 37.07 155.017 37.21 154.977 37.21C154.737 37.21 154.547 37.1 154.407 36.88C154.267 36.66 154.197 36.42 154.197 36.16C154.197 35.78 154.627 35.43 155.487 35.11C156.347 34.79 157.267 34.63 158.247 34.63C160.127 34.63 161.497 35.18 162.357 36.28C163.237 37.36 163.677 38.74 163.677 40.42V48.22C163.677 48.44 163.587 48.63 163.407 48.79C163.227 48.93 162.997 49 162.717 49C162.457 49 162.237 48.93 162.057 48.79C161.897 48.63 161.817 48.44 161.817 48.22V46.9C160.477 48.44 158.967 49.21 157.287 49.21C156.087 49.21 155.107 48.88 154.347 48.22C153.587 47.54 153.207 46.55 153.207 45.25ZM155.157 45.07C155.157 45.91 155.397 46.54 155.877 46.96C156.357 47.36 156.987 47.56 157.767 47.56C158.707 47.56 159.597 47.21 160.437 46.51C161.297 45.81 161.727 45.11 161.727 44.41V42.49H160.467C159.667 42.49 158.987 42.52 158.427 42.58C157.887 42.64 157.347 42.75 156.807 42.91C156.267 43.07 155.857 43.33 155.577 43.69C155.297 44.05 155.157 44.51 155.157 45.07ZM166.451 47.05C166.451 46.85 166.521 46.65 166.661 46.45C166.801 46.25 166.961 46.15 167.141 46.15C167.281 46.15 167.501 46.27 167.801 46.51C168.101 46.73 168.531 46.96 169.091 47.2C169.651 47.44 170.321 47.56 171.101 47.56C172.161 47.56 172.941 47.36 173.441 46.96C173.941 46.56 174.191 46.05 174.191 45.43C174.191 44.71 173.931 44.14 173.411 43.72C172.911 43.28 172.301 42.96 171.581 42.76C170.861 42.56 170.131 42.34 169.391 42.1C168.671 41.86 168.051 41.47 167.531 40.93C167.031 40.37 166.781 39.63 166.781 38.71C166.781 37.61 167.171 36.66 167.951 35.86C168.751 35.04 169.941 34.63 171.521 34.63C172.501 34.63 173.411 34.79 174.251 35.11C175.111 35.41 175.541 35.74 175.541 36.1C175.541 36.3 175.461 36.52 175.301 36.76C175.141 37 174.951 37.12 174.731 37.12C174.671 37.12 174.301 36.98 173.621 36.7C172.941 36.42 172.251 36.28 171.551 36.28C170.551 36.28 169.801 36.52 169.301 37C168.801 37.48 168.551 38.02 168.551 38.62C168.551 39.24 168.801 39.73 169.301 40.09C169.821 40.45 170.441 40.73 171.161 40.93C171.901 41.11 172.631 41.33 173.351 41.59C174.091 41.83 174.711 42.27 175.211 42.91C175.731 43.53 175.991 44.34 175.991 45.34C175.991 46.54 175.561 47.49 174.701 48.19C173.861 48.87 172.681 49.21 171.161 49.21C169.841 49.21 168.721 48.98 167.801 48.52C166.901 48.04 166.451 47.55 166.451 47.05Z" fill="#14279B"/>
</svg>
