<svg width="270" height="78" viewBox="0 0 270 78" fill="none" xmlns="http://www.w3.org/2000/svg">
<path d="M0 39C0 17.4609 17.4609 0 39 0H231C252.539 0 270 17.4609 270 39V39C270 60.5391 252.539 78 231 78H39C17.4609 78 0 60.5391 0 39V39Z" fill="#B5CFE8"/>
<path d="M15 38.6533L26.6533 27M15.2158 38.6533L26.8691 50.3067" stroke="#14279B"/>
<path d="M90.28 48.22V27.79C90.28 27.31 90.61 27.07 91.27 27.07C91.93 27.07 92.26 27.31 92.26 27.79V48.22C92.26 48.46 92.16 48.65 91.96 48.79C91.76 48.93 91.53 49 91.27 49C90.99 49 90.75 48.93 90.55 48.79C90.37 48.65 90.28 48.46 90.28 48.22ZM96.2767 48.22V35.53C96.2767 35.31 96.3667 35.14 96.5467 35.02C96.7267 34.88 96.9567 34.81 97.2367 34.81C97.4767 34.81 97.6867 34.88 97.8667 35.02C98.0467 35.16 98.1367 35.33 98.1367 35.53V36.91C98.4767 36.27 98.9967 35.73 99.6967 35.29C100.397 34.85 101.217 34.63 102.157 34.63C103.597 34.63 104.847 35.18 105.907 36.28C106.967 37.38 107.497 38.7 107.497 40.24V48.22C107.497 48.46 107.397 48.65 107.197 48.79C106.997 48.93 106.767 49 106.507 49C106.267 49 106.047 48.93 105.847 48.79C105.647 48.65 105.547 48.46 105.547 48.22V40.24C105.547 39.26 105.177 38.38 104.437 37.6C103.697 36.82 102.817 36.43 101.797 36.43C100.857 36.43 100.027 36.78 99.3067 37.48C98.5867 38.18 98.2267 39.1 98.2267 40.24V48.22C98.2267 48.42 98.1267 48.6 97.9267 48.76C97.7267 48.92 97.4967 49 97.2367 49C96.9567 49 96.7267 48.92 96.5467 48.76C96.3667 48.6 96.2767 48.42 96.2767 48.22ZM109.93 30.43C109.93 30.17 110.04 29.99 110.26 29.89L113.62 28.06C113.68 28 113.76 27.97 113.86 27.97C114.08 27.97 114.25 28.06 114.37 28.24C114.51 28.4 114.58 28.59 114.58 28.81C114.58 29.13 114.46 29.35 114.22 29.47L111.01 31.18C110.93 31.24 110.83 31.27 110.71 31.27C110.51 31.27 110.33 31.19 110.17 31.03C110.01 30.85 109.93 30.65 109.93 30.43ZM111.16 48.22V35.53C111.16 35.33 111.25 35.16 111.43 35.02C111.61 34.88 111.84 34.81 112.12 34.81C112.4 34.81 112.63 34.88 112.81 35.02C113.01 35.16 113.11 35.33 113.11 35.53V48.22C113.11 48.42 113.01 48.6 112.81 48.76C112.61 48.92 112.38 49 112.12 49C111.86 49 111.63 48.92 111.43 48.76C111.25 48.6 111.16 48.42 111.16 48.22ZM116.392 43.51V40.3C116.392 38.62 116.882 37.26 117.862 36.22C118.842 35.16 120.282 34.63 122.182 34.63C123.382 34.63 124.382 34.85 125.182 35.29C126.002 35.71 126.412 36.14 126.412 36.58C126.412 36.8 126.322 37.02 126.142 37.24C125.962 37.44 125.762 37.54 125.542 37.54C125.422 37.54 125.232 37.45 124.972 37.27C124.732 37.09 124.382 36.91 123.922 36.73C123.462 36.53 122.912 36.43 122.272 36.43C120.992 36.43 120.012 36.77 119.332 37.45C118.672 38.13 118.342 39.08 118.342 40.3V43.51C118.342 44.75 118.672 45.71 119.332 46.39C120.012 47.07 121.002 47.41 122.302 47.41C122.982 47.41 123.552 47.32 124.012 47.14C124.492 46.94 124.852 46.75 125.092 46.57C125.352 46.37 125.552 46.27 125.692 46.27C125.952 46.27 126.162 46.37 126.322 46.57C126.502 46.77 126.592 46.99 126.592 47.23C126.592 47.69 126.172 48.14 125.332 48.58C124.492 49 123.452 49.21 122.212 49.21C120.292 49.21 118.842 48.69 117.862 47.65C116.882 46.61 116.392 45.23 116.392 43.51ZM129.236 30.25C128.976 29.99 128.846 29.69 128.846 29.35C128.846 29.01 128.976 28.72 129.236 28.48C129.496 28.24 129.816 28.12 130.196 28.12C130.556 28.12 130.856 28.24 131.096 28.48C131.356 28.72 131.486 29.01 131.486 29.35C131.486 29.69 131.356 29.99 131.096 30.25C130.856 30.49 130.556 30.61 130.196 30.61C129.816 30.61 129.496 30.49 129.236 30.25ZM129.236 48.22V35.53C129.236 35.33 129.326 35.16 129.506 35.02C129.686 34.88 129.916 34.81 130.196 34.81C130.476 34.81 130.706 34.88 130.886 35.02C131.086 35.16 131.186 35.33 131.186 35.53V48.22C131.186 48.42 131.086 48.6 130.886 48.76C130.686 48.92 130.456 49 130.196 49C129.936 49 129.706 48.92 129.506 48.76C129.326 48.6 129.236 48.42 129.236 48.22ZM134.408 43.51V40.24C134.408 38.72 134.968 37.41 136.088 36.31C137.208 35.19 138.538 34.63 140.078 34.63C141.618 34.63 142.958 35.18 144.098 36.28C145.238 37.38 145.808 38.7 145.808 40.24V43.51C145.808 45.01 145.228 46.34 144.068 47.5C142.928 48.64 141.598 49.21 140.078 49.21C138.578 49.21 137.258 48.64 136.118 47.5C134.978 46.34 134.408 45.01 134.408 43.51ZM136.358 43.51C136.358 44.53 136.718 45.44 137.438 46.24C138.178 47.02 139.058 47.41 140.078 47.41C141.118 47.41 142.008 47.02 142.748 46.24C143.488 45.44 143.858 44.53 143.858 43.51V40.24C143.858 39.26 143.478 38.38 142.718 37.6C141.978 36.82 141.098 36.43 140.078 36.43C139.058 36.43 138.178 36.82 137.438 37.6C136.718 38.38 136.358 39.26 136.358 40.24V43.51Z" fill="#14279B"/>
</svg>
