<svg width="493" height="493" viewBox="0 0 493 493" fill="none" xmlns="http://www.w3.org/2000/svg">
<path d="M283.433 56.0746L437.938 283.433L210.58 437.938L56.0746 210.58L283.433 56.0746Z" fill="#B5CFE8"/>
<path d="M184.08 62.4199L430.58 184.08L308.92 430.58L62.4199 308.92L184.08 62.4199Z" fill="#14279B"/>
<path d="M89.7148 264.65L90.8574 263.771L90.9453 261.926C92.4102 258.352 93.9043 254.924 95.4277 251.643C97.0098 248.361 98.6504 244.992 100.35 241.535C100.877 240.422 101.404 239.309 101.932 238.195C102.518 237.082 103.074 235.939 103.602 234.768C103.543 234.533 103.514 234.299 103.514 234.064C103.514 233.771 103.572 233.449 103.689 233.098C104.51 231.926 105.154 230.871 105.623 229.934C106.15 228.996 106.648 228.029 107.117 227.033C107.645 225.861 108.201 224.689 108.787 223.518C109.432 222.346 110.223 221.203 111.16 220.09L111.775 219.211L112.742 219.299C112.977 219.182 113.211 219.094 113.445 219.035C113.738 218.918 114.09 218.859 114.5 218.859L116.082 219.123C118.016 218.244 119.715 216.984 121.18 215.344C122.703 213.645 124.227 211.623 125.75 209.279L126.805 207.785L128.211 208.664C128.504 208.84 128.973 209.016 129.617 209.191C130.262 209.367 130.936 209.572 131.639 209.807C132.869 210.1 134.07 210.451 135.242 210.861C136.414 211.213 137.322 211.711 137.967 212.355L138.406 213.146C138.523 213.791 138.611 214.377 138.67 214.904C138.787 215.432 138.904 215.959 139.021 216.486C139.256 217.717 139.461 218.947 139.637 220.178C139.812 221.35 139.93 222.668 139.988 224.133C140.281 225.305 140.545 226.506 140.779 227.736C141.072 228.908 141.336 230.08 141.57 231.252C141.863 232.951 142.186 234.592 142.537 236.174C142.889 237.697 143.357 239.162 143.943 240.568C144.529 240.568 144.881 240.598 144.998 240.656C145.701 240.363 146.521 240.188 147.459 240.129L148.602 240.041L148.953 241.096C149.07 241.271 149.217 241.447 149.393 241.623C149.568 241.799 149.773 241.975 150.008 242.15C150.945 242.209 151.619 242.414 152.029 242.766C152.498 243.059 152.879 243.352 153.172 243.645C153.289 243.762 153.436 243.908 153.611 244.084C153.787 244.201 153.934 244.289 154.051 244.348L155.633 244.963L154.754 246.633C154.109 247.863 153.113 249.064 151.766 250.236C150.477 251.408 149.012 252.375 147.371 253.137C147.488 253.547 147.547 253.928 147.547 254.279C147.605 254.631 147.693 255.041 147.811 255.51C148.045 256.682 148.221 257.912 148.338 259.201C148.514 260.432 148.514 261.721 148.338 263.068C147.752 264.592 147.049 265.969 146.229 267.199C145.467 268.371 144.529 269.455 143.416 270.451C142.361 271.389 141.16 272.18 139.812 272.824C138.465 273.41 137.059 273.732 135.594 273.791C134.773 273.615 134.158 273.41 133.748 273.176C133.396 272.941 133.074 272.707 132.781 272.473C132.312 272.121 131.932 271.887 131.639 271.77L130.496 271.242L130.848 269.924C131.023 269.455 130.994 269.045 130.76 268.693C130.584 268.342 130.174 267.873 129.529 267.287C129.295 267.111 129.09 266.936 128.914 266.76C128.738 266.525 128.533 266.291 128.299 266.057L126.541 264.035L129.441 263.244C131.199 262.775 132.371 262.189 132.957 261.486C133.543 260.725 133.777 259.406 133.66 257.531C132.195 257.238 130.994 257.209 130.057 257.443C129.119 257.619 128.182 257.824 127.244 258.059C125.896 258.41 124.578 258.732 123.289 259.025C122 259.26 120.594 259.377 119.07 259.377C118.074 259.377 117.02 259.289 115.906 259.113L114.939 259.025L114.676 258.059C114.676 257.941 114.588 257.824 114.412 257.707C114.295 257.531 114.178 257.385 114.061 257.268C113.768 256.916 113.416 256.447 113.006 255.861C112.596 255.275 112.508 254.543 112.742 253.664C112.332 253.02 112.098 252.346 112.039 251.643C111.805 252.111 111.6 252.58 111.424 253.049C111.307 253.459 111.189 253.869 111.072 254.279L110.721 255.422L109.578 255.598C109.461 255.715 109.344 255.891 109.227 256.125C109.168 256.359 109.168 256.535 109.227 256.652L109.578 257.619L108.699 258.41C108.582 258.586 108.436 258.732 108.26 258.85C108.084 258.967 107.938 259.084 107.82 259.201C107.703 259.846 107.527 260.461 107.293 261.047C107.117 261.633 106.912 262.219 106.678 262.805C106.385 263.742 106.092 264.65 105.799 265.529C105.564 266.408 105.447 267.287 105.447 268.166L105.096 269.309C104.803 269.777 104.422 270.129 103.953 270.363C103.543 270.598 103.133 270.803 102.723 270.979C102.137 271.213 101.727 271.447 101.492 271.682L101.229 272.824L99.9102 273C99.1484 273.176 98.5918 273.293 98.2402 273.352C97.9473 273.41 97.5957 273.439 97.1855 273.439L96.043 273.352C95.3398 272.648 94.7539 272.121 94.2852 271.77C93.875 271.359 93.377 271.008 92.791 270.715L92.2637 270.012C92.0293 269.543 91.8828 269.133 91.8242 268.781C91.7656 268.371 91.6777 267.961 91.5605 267.551C91.4434 266.789 91.2676 266.262 91.0332 265.969L89.7148 264.65ZM117.752 241.799C116.932 242.971 116.141 244.201 115.379 245.49C115.789 245.432 116.17 245.402 116.521 245.402C116.932 245.402 117.342 245.373 117.752 245.314C119.803 245.197 121.707 245.051 123.465 244.875C125.223 244.699 127.127 244.406 129.178 243.996C128.709 241.828 128.182 239.631 127.596 237.404C127.068 235.119 126.482 232.834 125.838 230.549L125.398 231.428C123.934 233.01 122.527 234.709 121.18 236.525C119.832 238.342 118.719 240.07 117.84 241.711L117.752 241.799ZM173.211 257.004C172.684 257.121 172.303 257.443 172.068 257.971C171.834 258.439 171.6 258.938 171.365 259.465C171.189 259.992 170.984 260.49 170.75 260.959C170.574 261.369 170.281 261.574 169.871 261.574C169.812 262.043 169.637 262.453 169.344 262.805C169.109 263.156 168.875 263.537 168.641 263.947C168.406 264.299 168.23 264.709 168.113 265.178C167.996 265.588 168.055 266.086 168.289 266.672C167.82 267.023 167.527 267.521 167.41 268.166C167.293 268.811 167.146 269.426 166.971 270.012C166.854 270.598 166.619 271.096 166.268 271.506C165.916 271.916 165.271 272.092 164.334 272.033C164.158 272.268 164.129 272.414 164.246 272.473C164.363 272.531 164.451 272.736 164.51 273.088C163.865 272.971 163.367 273 163.016 273.176C162.723 273.41 162.342 273.557 161.873 273.615C160.76 273.264 159.822 272.648 159.061 271.77C158.357 270.891 157.713 269.924 157.127 268.869C156.6 267.756 156.102 266.643 155.633 265.529C155.223 264.416 154.812 263.449 154.402 262.629C154.578 261.984 154.607 261.369 154.49 260.783C154.373 260.139 154.168 259.611 153.875 259.201C156.746 253.107 159.881 246.604 163.279 239.689C166.678 232.775 169.9 225.949 172.947 219.211C174.295 219.738 175.613 220.354 176.902 221.057C178.25 221.701 179.451 222.463 180.506 223.342C181.619 224.221 182.557 225.246 183.318 226.418C184.08 227.531 184.578 228.791 184.812 230.197C184.695 230.549 184.549 230.695 184.373 230.637C184.256 230.52 184.139 230.549 184.021 230.725C184.256 231.018 184.373 231.223 184.373 231.34C184.432 231.457 184.432 231.574 184.373 231.691C184.373 231.809 184.373 231.984 184.373 232.219C184.373 232.395 184.461 232.658 184.637 233.01C184.402 232.951 184.227 232.98 184.109 233.098C184.051 233.215 183.875 233.215 183.582 233.098C183.816 233.742 183.875 234.27 183.758 234.68C183.699 235.09 183.582 235.471 183.406 235.822C183.23 236.115 183.084 236.467 182.967 236.877C182.85 237.229 182.879 237.697 183.055 238.283C182.879 238.283 182.732 238.342 182.615 238.459C182.557 238.518 182.498 238.605 182.439 238.723C182.381 238.781 182.293 238.869 182.176 238.986C182.117 239.045 182 239.045 181.824 238.986C182 240.275 182.059 241.564 182 242.854C181.941 244.143 181.883 245.461 181.824 246.809C181.824 248.098 181.854 249.475 181.912 250.939C181.971 252.346 182.176 253.811 182.527 255.334C184.637 254.104 186.307 252.521 187.537 250.588C188.826 248.654 189.852 246.486 190.613 244.084C191.434 241.682 192.049 239.104 192.459 236.35C192.869 233.596 193.309 230.783 193.777 227.912C194.305 227.385 194.715 226.74 195.008 225.979C195.301 225.217 195.564 224.426 195.799 223.605C196.033 222.727 196.268 221.877 196.502 221.057C196.736 220.178 197.029 219.387 197.381 218.684C198.26 218.801 198.992 219.094 199.578 219.562C200.223 219.973 200.809 220.441 201.336 220.969C201.863 221.438 202.42 221.906 203.006 222.375C203.592 222.785 204.324 223.049 205.203 223.166C205.906 224.162 206.551 225.129 207.137 226.066C207.723 227.004 208.104 228 208.279 229.055C207.986 229.523 207.752 230.051 207.576 230.637C207.459 231.223 207.312 231.809 207.137 232.395C206.961 232.98 206.727 233.537 206.434 234.064C206.141 234.533 205.73 234.943 205.203 235.295C205.027 236.818 204.793 238.225 204.5 239.514C204.266 240.744 204.002 241.975 203.709 243.205C203.475 244.436 203.27 245.725 203.094 247.072C202.918 248.361 202.859 249.797 202.918 251.379C202.449 252.727 201.951 254.162 201.424 255.686C200.896 257.209 200.486 258.586 200.193 259.816C199.256 260.578 198.523 261.486 197.996 262.541C197.469 263.596 196.912 264.65 196.326 265.705C196.092 265.939 195.945 265.998 195.887 265.881C195.828 265.764 195.623 265.676 195.271 265.617C195.33 265.852 195.33 266.027 195.271 266.145C195.213 266.262 195.125 266.379 195.008 266.496C194.949 266.555 194.891 266.672 194.832 266.848C194.832 267.023 194.891 267.258 195.008 267.551C194.188 267.902 193.455 268.4 192.811 269.045C192.166 269.689 191.463 270.275 190.701 270.803C189.998 271.33 189.119 271.682 188.064 271.857C187.068 272.033 185.75 271.828 184.109 271.242C181.707 269.484 179.568 267.463 177.693 265.178C175.877 262.893 174.383 260.168 173.211 257.004ZM224.627 266.848C224.92 268.605 224.803 269.982 224.275 270.979C223.807 271.975 223.104 272.707 222.166 273.176C221.287 273.703 220.262 273.996 219.09 274.055C217.918 274.113 216.805 274.055 215.75 273.879C215.164 273.059 214.637 272.033 214.168 270.803C213.699 269.572 213.26 268.312 212.85 267.023C212.439 265.676 212.059 264.357 211.707 263.068C211.414 261.779 211.15 260.637 210.916 259.641C211.209 258.938 211.385 258.146 211.443 257.268C211.561 256.33 211.619 255.393 211.619 254.455C211.678 253.518 211.707 252.58 211.707 251.643C211.766 250.646 211.854 249.709 211.971 248.83C212.381 246.369 212.967 244.025 213.729 241.799C214.549 239.572 215.193 237.258 215.662 234.855C215.779 234.328 215.721 233.83 215.486 233.361C215.311 232.893 215.281 232.453 215.398 232.043C215.457 231.809 215.633 231.662 215.926 231.604C216.219 231.486 216.395 231.281 216.453 230.988C216.629 230.344 216.658 229.816 216.541 229.406C216.482 228.996 216.6 228.498 216.893 227.912C217.186 227.443 217.537 226.77 217.947 225.891C218.416 224.953 218.592 223.986 218.475 222.99C219.002 222.639 219.5 222.229 219.969 221.76C220.438 221.291 220.906 220.881 221.375 220.529C221.902 220.119 222.459 219.768 223.045 219.475C223.689 219.182 224.451 219.035 225.33 219.035C225.799 219.621 226.092 220.266 226.209 220.969C226.385 221.672 226.531 222.375 226.648 223.078C226.824 223.781 227.059 224.455 227.352 225.1C227.645 225.686 228.143 226.154 228.846 226.506C228.846 226.975 228.846 227.561 228.846 228.264C228.846 228.967 228.875 229.67 228.934 230.373C228.992 231.018 229.109 231.633 229.285 232.219C229.52 232.746 229.871 233.098 230.34 233.273C229.285 236.086 228.289 238.869 227.352 241.623C226.473 244.377 225.74 247.16 225.154 249.973C224.568 252.727 224.188 255.51 224.012 258.322C223.895 261.135 224.1 263.977 224.627 266.848ZM295.643 271.418C295.057 271.711 294.5 271.975 293.973 272.209C293.504 272.443 292.947 272.561 292.303 272.561C290.018 270.861 288.816 267.902 288.699 263.684C288.641 259.465 289.549 254.104 291.424 247.6C291.717 247.424 291.863 247.072 291.863 246.545L291.072 245.666C290.838 245.666 290.604 245.695 290.369 245.754C290.193 245.812 290.047 246.018 289.93 246.369C288.406 247.482 286.736 248.654 284.92 249.885C283.104 251.057 281.199 252.17 279.207 253.225C277.273 254.221 275.281 255.041 273.23 255.686C271.238 256.33 269.275 256.652 267.342 256.652C262.42 256.652 258.729 254.162 256.268 249.182L255.564 247.863L254.861 249.006C254.686 249.24 254.422 249.738 254.07 250.5C253.719 251.203 253.367 252.023 253.016 252.961C252.664 253.898 252.342 254.865 252.049 255.861C251.814 256.799 251.727 257.619 251.785 258.322C251.258 258.85 250.701 259.465 250.115 260.168C249.529 260.871 249.09 261.662 248.797 262.541C248.68 263.01 248.738 263.449 248.973 263.859C248.855 264.387 248.592 264.797 248.182 265.09C247.947 265.383 247.684 265.676 247.391 265.969C247.156 266.203 246.951 266.467 246.775 266.76C246.658 267.053 246.57 267.346 246.512 267.639C246.512 267.932 246.482 268.225 246.424 268.518C246.424 268.928 246.365 269.309 246.248 269.66C245.252 271.711 244.461 273.029 243.875 273.615C243.289 274.26 242.498 274.582 241.502 274.582C241.033 274.582 240.271 274.494 239.217 274.318C238.455 273.498 237.752 272.385 237.107 270.979C236.521 269.514 236.053 267.961 235.701 266.32C235.408 264.68 235.262 263.039 235.262 261.398C235.32 259.699 235.613 258.234 236.141 257.004C236.141 256.945 236.375 256.359 236.844 255.246C237.312 254.133 237.898 252.697 238.602 250.939C239.363 249.182 240.213 247.248 241.15 245.139C242.088 242.971 243.025 240.891 243.963 238.898C244.9 236.848 245.779 234.973 246.6 233.273C247.479 231.574 248.211 230.285 248.797 229.406C249.266 228.703 249.676 228.059 250.027 227.473C250.438 226.828 250.818 226.213 251.17 225.627C252.225 223.811 253.221 222.316 254.158 221.145C255.154 219.914 256.59 218.947 258.465 218.244C259.754 218.771 260.691 219.387 261.277 220.09L261.453 221.057C261.688 221.643 262.039 221.936 262.508 221.936C263.152 222.111 263.68 222.287 264.09 222.463C264.559 222.58 265.057 222.697 265.584 222.814C265.994 223.283 266.375 223.84 266.727 224.484C267.195 225.188 267.635 225.891 268.045 226.594C268.514 227.238 268.865 227.912 269.1 228.615C269.393 229.26 269.539 229.934 269.539 230.637C269.598 231.34 269.48 232.072 269.188 232.834L269.275 233.713C269.568 234.24 269.627 234.973 269.451 235.91C269.393 236.32 269.363 236.76 269.363 237.229C269.363 237.639 269.422 238.107 269.539 238.635C270.594 239.455 271.531 239.865 272.352 239.865C273.289 239.865 274.139 239.66 274.9 239.25C275.721 238.781 276.482 238.312 277.186 237.844C277.654 237.492 278.123 237.199 278.592 236.965C279.061 236.672 279.529 236.496 279.998 236.438C281.053 235.441 281.99 234.562 282.811 233.801C283.689 233.039 284.598 232.277 285.535 231.516C287.293 230.109 288.992 228.586 290.633 226.945C292.273 225.305 293.592 223.254 294.588 220.793C295.174 220.441 295.789 220.266 296.434 220.266C297.078 220.266 297.752 220.412 298.455 220.705C299.158 220.998 299.832 221.291 300.477 221.584C300.652 221.701 300.799 221.789 300.916 221.848C301.092 221.906 301.238 221.965 301.355 222.023C301.355 222.609 301.59 223.107 302.059 223.518C302.293 223.693 302.439 223.811 302.498 223.869C302.557 223.928 302.645 223.986 302.762 224.045C303.641 224.514 304.197 224.982 304.432 225.451C304.842 226.799 305.574 227.824 306.629 228.527C306.512 229.113 306.512 229.67 306.629 230.197C306.805 230.666 307.01 231.164 307.244 231.691C307.303 231.867 307.361 232.043 307.42 232.219C307.479 232.395 307.566 232.6 307.684 232.834L306.014 232.658L306.277 234.328C306.395 235.148 306.307 236.057 306.014 237.053C305.779 238.049 305.486 238.84 305.135 239.426C305.193 240.949 305.223 242.15 305.223 243.029C305.281 243.85 305.252 244.641 305.135 245.402C305.018 246.105 304.842 246.779 304.607 247.424C304.432 248.068 304.168 248.771 303.816 249.533C304.051 253.283 303.611 256.711 302.498 259.816C301.443 262.863 300.33 265.734 299.158 268.43C299.041 268.723 298.895 269.016 298.719 269.309C298.602 269.602 298.484 269.895 298.367 270.188C297.84 270.363 297.371 270.568 296.961 270.803C296.551 270.979 296.111 271.184 295.643 271.418ZM357.166 223.518C357.225 223.928 357.225 224.25 357.166 224.484C357.166 224.66 357.137 224.836 357.078 225.012C357.078 225.188 357.078 225.393 357.078 225.627C357.078 225.803 357.137 226.096 357.254 226.506C356.023 228.498 354.588 229.875 352.947 230.637C351.365 231.34 349.637 231.867 347.762 232.219C345.887 232.512 343.953 232.834 341.961 233.186C340.027 233.537 338.094 234.299 336.16 235.471C335.398 235.178 334.695 235.178 334.051 235.471C333.465 235.764 332.586 235.852 331.414 235.734C331.062 236.086 330.623 236.35 330.096 236.525C329.568 236.643 329.041 236.789 328.514 236.965C328.748 237.492 328.836 238.049 328.777 238.635C328.777 239.162 328.865 239.602 329.041 239.953C331.092 240.129 333.348 240.1 335.809 239.865C338.328 239.631 340.789 239.484 343.191 239.426C343.25 239.719 343.221 239.924 343.104 240.041C342.986 240.1 342.957 240.246 343.016 240.48C343.426 240.773 343.836 241.154 344.246 241.623C344.656 242.033 345.066 242.443 345.477 242.854C345.887 243.264 346.297 243.615 346.707 243.908C347.176 244.143 347.703 244.23 348.289 244.172C348.523 244.641 348.67 245.168 348.729 245.754C348.846 246.281 348.787 246.838 348.553 247.424C347.615 248.068 346.678 248.742 345.74 249.445C344.803 250.09 343.807 250.676 342.752 251.203C341.756 251.73 340.672 252.17 339.5 252.521C338.387 252.814 337.127 252.932 335.721 252.873C335.428 252.873 335.193 252.873 335.018 252.873C334.9 252.873 334.725 252.785 334.49 252.609C334.021 252.902 333.348 252.99 332.469 252.873C331.648 252.756 331.004 252.844 330.535 253.137C329.891 252.844 329.1 252.727 328.162 252.785C327.283 252.785 326.492 252.668 325.789 252.434C324.852 253.664 324.002 254.982 323.24 256.389C322.479 257.795 321.805 259.289 321.219 260.871C323.211 261.164 324.852 261.281 326.141 261.223C327.488 261.164 328.748 261.076 329.92 260.959C331.092 260.783 332.293 260.637 333.523 260.52C334.754 260.344 336.307 260.285 338.182 260.344C339.354 259.699 340.73 259.289 342.312 259.113C343.953 258.879 345.447 258.527 346.795 258.059C347.264 258.234 347.674 258.557 348.025 259.025C348.377 259.436 348.699 259.846 348.992 260.256C349.344 260.607 349.695 260.93 350.047 261.223C350.398 261.516 350.838 261.633 351.365 261.574C351.6 261.809 351.746 262.102 351.805 262.453C351.922 262.746 352.01 263.039 352.068 263.332C352.127 263.625 352.215 263.889 352.332 264.123C352.508 264.299 352.771 264.357 353.123 264.299C352.244 266.232 351.219 267.727 350.047 268.781C348.934 269.777 347.645 270.539 346.18 271.066C344.715 271.594 343.074 272.004 341.258 272.297C339.5 272.59 337.537 272.941 335.369 273.352C334.842 273.469 334.402 273.439 334.051 273.264C333.699 273.146 333.289 273.088 332.82 273.088C331.473 273.381 329.861 273.645 327.986 273.879C326.111 274.113 324.207 274.201 322.273 274.143C320.34 274.084 318.494 273.82 316.736 273.352C314.979 272.941 313.543 272.18 312.43 271.066C311.961 270.656 311.639 270.188 311.463 269.66C311.346 269.074 310.965 268.635 310.32 268.342C310.262 267.58 310.145 266.73 309.969 265.793C309.793 264.855 309.617 263.889 309.441 262.893C309.266 261.838 309.119 260.812 309.002 259.816C308.943 258.82 309.002 257.912 309.178 257.092C309.354 256.213 309.705 255.422 310.232 254.719C310.818 254.016 311.023 253.254 310.848 252.434C311.141 252.375 311.316 252.229 311.375 251.994C311.434 251.701 311.668 251.584 312.078 251.643C312.43 250.588 312.811 249.592 313.221 248.654C313.631 247.717 314.041 246.809 314.451 245.93C314.92 245.051 315.359 244.172 315.77 243.293C316.238 242.355 316.678 241.33 317.088 240.217C316.268 239.455 315.652 238.635 315.242 237.756C314.891 236.818 314.627 235.91 314.451 235.031C314.275 234.094 314.129 233.156 314.012 232.219C313.895 231.223 313.689 230.227 313.396 229.23C313.982 228.352 314.686 227.648 315.506 227.121C316.385 226.535 317.322 226.066 318.318 225.715C319.314 225.363 320.398 225.07 321.57 224.836C322.742 224.602 323.973 224.338 325.262 224.045C327.605 223.283 329.686 222.697 331.502 222.287C333.377 221.877 335.193 221.555 336.951 221.32C338.768 221.027 340.643 220.764 342.576 220.529C344.51 220.295 346.707 219.943 349.168 219.475C349.695 220.002 350.193 220.266 350.662 220.266C350.896 219.738 351.16 219.592 351.453 219.826C351.805 220.002 351.951 219.826 351.893 219.299C352.479 220.295 353.211 221.145 354.09 221.848C355.027 222.492 356.053 223.049 357.166 223.518ZM356.463 233.449C356.873 232.219 357.518 231.164 358.396 230.285C359.334 229.406 360.33 228.674 361.385 228.088C362.498 227.443 363.641 226.916 364.812 226.506C365.984 226.096 367.098 225.744 368.152 225.451C370.496 224.455 372.986 223.518 375.623 222.639C378.318 221.701 381.043 220.881 383.797 220.178C386.609 219.475 389.48 219.035 392.41 218.859C395.34 218.625 398.416 218.977 401.639 219.914C401.814 220.5 402.078 221.057 402.43 221.584C402.781 222.111 403.133 222.639 403.484 223.166C403.895 223.693 404.246 224.221 404.539 224.748C404.832 225.217 405.008 225.715 405.066 226.242C405.652 226.77 406.121 227.355 406.473 228C406.824 228.586 406.883 229.377 406.648 230.373C406.062 230.842 405.477 231.281 404.891 231.691C404.363 232.043 403.777 232.365 403.133 232.658C400.965 232.131 398.768 231.955 396.541 232.131C394.314 232.307 392.322 232.453 390.564 232.57C390.037 232.043 389.393 231.779 388.631 231.779C387.928 231.779 387.166 231.896 386.346 232.131C385.584 232.365 384.793 232.6 383.973 232.834C383.211 233.068 382.479 233.127 381.775 233.01C381.189 233.479 380.457 233.801 379.578 233.977C378.758 234.094 377.85 234.211 376.854 234.328C376.795 234.621 376.854 234.826 377.029 234.943C377.205 235.002 377.234 235.178 377.117 235.471C377.469 235.881 377.908 236.174 378.436 236.35C379.021 236.525 379.607 236.701 380.193 236.877C380.838 237.053 381.395 237.287 381.863 237.58C382.332 237.814 382.654 238.225 382.83 238.811C383.709 238.811 384.471 239.016 385.115 239.426C385.76 239.836 386.287 240.334 386.697 240.92C387.107 241.506 387.4 242.15 387.576 242.854C387.811 243.498 387.928 244.084 387.928 244.611C388.104 245.08 388.309 245.285 388.543 245.227C388.777 245.168 389.041 245.285 389.334 245.578C389.51 246.34 389.949 247.131 390.652 247.951C391.355 248.713 391.912 249.562 392.322 250.5C392.439 251.965 392.527 253.283 392.586 254.455C392.645 255.568 392.439 256.711 391.971 257.883C391.092 260.051 389.861 261.984 388.279 263.684C386.756 265.383 384.998 266.906 383.006 268.254C381.072 269.543 378.992 270.656 376.766 271.594C374.539 272.531 372.371 273.322 370.262 273.967C370.027 273.908 369.793 273.908 369.559 273.967C369.324 274.025 369.266 273.879 369.383 273.527C368.914 273.938 368.387 274.201 367.801 274.318C367.273 274.436 366.688 274.465 366.043 274.406C365.398 274.406 364.725 274.377 364.021 274.318C363.377 274.26 362.762 274.289 362.176 274.406C361.766 273.996 361.385 273.586 361.033 273.176C360.74 272.824 360.506 272.355 360.33 271.77C360.037 271.77 359.891 271.623 359.891 271.33C359.949 271.037 359.861 270.891 359.627 270.891C359.979 270.305 360.125 269.982 360.066 269.924C360.066 269.807 359.979 269.719 359.803 269.66C359.686 269.602 359.568 269.543 359.451 269.484C359.334 269.367 359.305 269.221 359.363 269.045C359.598 268.576 359.686 268.049 359.627 267.463C359.568 266.818 359.51 266.174 359.451 265.529C359.393 264.885 359.422 264.27 359.539 263.684C359.715 263.098 360.154 262.629 360.857 262.277C362.85 262.512 364.725 262.453 366.482 262.102C368.299 261.691 369.998 261.135 371.58 260.432C373.162 259.729 374.656 258.967 376.062 258.146C377.527 257.326 378.963 256.594 380.369 255.949C380.545 255.422 380.779 254.982 381.072 254.631C381.424 254.279 381.775 253.957 382.127 253.664C382.479 253.371 382.801 253.049 383.094 252.697C383.387 252.346 383.592 251.906 383.709 251.379C383.768 250.969 383.65 250.734 383.357 250.676C383.123 250.559 383.006 250.324 383.006 249.973L382.039 249.709C380.926 249.064 379.666 248.537 378.26 248.127C376.854 247.658 375.652 247.16 374.656 246.633C374.012 246.984 373.396 247.072 372.811 246.896C372.283 246.721 371.58 246.545 370.701 246.369C368.709 246.252 366.775 246.047 364.9 245.754C363.084 245.461 361.326 244.934 359.627 244.172C359.51 243.879 359.363 243.615 359.188 243.381C359.012 243.146 358.689 243.088 358.221 243.205C357.869 242.736 357.518 242.297 357.166 241.887C356.814 241.418 356.492 240.92 356.199 240.393C356.316 239.689 356.404 239.104 356.463 238.635C356.521 238.107 356.346 237.609 355.936 237.141C356.17 236.379 356.346 235.764 356.463 235.295C356.58 234.826 356.58 234.211 356.463 233.449Z" fill="#E6E6E6"/>
</svg>
