<svg width="493" height="493" viewBox="0 0 493 493" fill="none" xmlns="http://www.w3.org/2000/svg">
<path d="M283.433 56.0745L437.938 283.433L210.58 437.937L56.0746 210.579L283.433 56.0745Z" fill="#14279B"/>
<path d="M184.08 62.4199L430.58 184.08L308.92 430.58L62.4199 308.92L184.08 62.4199Z" fill="#B5CFE8"/>
<path d="M136.652 271.418C135.773 271.535 134.924 271.682 134.104 271.857C133.342 272.033 132.551 272.238 131.73 272.473C131.379 272.59 131.027 272.678 130.676 272.736C130.324 272.795 129.943 272.883 129.533 273C128.479 272.766 127.453 272.59 126.457 272.473C125.52 272.355 124.67 272.297 123.908 272.297L122.59 271.945C121.887 271.711 121.359 271.535 121.008 271.418C120.656 271.242 120.305 271.125 119.953 271.066C119.66 270.949 119.279 270.861 118.811 270.803C118.4 270.744 117.785 270.656 116.965 270.539C115.969 270.949 115.002 271.154 114.064 271.154C113.42 271.154 112.746 271.066 112.043 270.891C111.34 270.656 110.637 270.246 109.934 269.66C109.23 269.016 108.557 268.166 107.912 267.111C107.268 265.998 106.711 264.592 106.242 262.893C106.418 261.545 106.623 260.373 106.857 259.377C107.092 258.381 107.326 257.59 107.561 257.004L108.264 256.213C109.318 255.803 110.52 255.598 111.867 255.598C113.156 255.598 114.416 255.803 115.646 256.213C116.877 256.623 118.107 257.062 119.338 257.531C119.865 257.766 120.246 257.941 120.48 258.059C120.715 258.176 120.891 258.264 121.008 258.322C121.125 258.381 121.271 258.41 121.447 258.41C121.682 258.41 122.062 258.41 122.59 258.41C122.883 258.41 123.146 258.41 123.381 258.41C123.674 258.352 123.967 258.293 124.26 258.234L125.314 258.322C125.725 258.557 126.223 258.674 126.809 258.674C127.219 258.674 127.629 258.615 128.039 258.498C128.508 258.381 128.977 258.264 129.445 258.146C129.914 257.971 130.324 257.854 130.676 257.795C131.027 257.736 131.35 257.648 131.643 257.531L132.521 256.74C133.107 256.506 133.547 256.242 133.84 255.949C134.191 255.656 134.484 255.334 134.719 254.982C134.953 254.572 135.158 254.162 135.334 253.752C135.568 253.342 135.861 252.902 136.213 252.434C136.506 252.082 136.77 251.73 137.004 251.379C137.297 251.027 137.59 250.705 137.883 250.412V249.533C138.82 247.365 139.641 245.168 140.344 242.941C141.047 240.715 141.662 238.488 142.189 236.262C142.717 234.035 143.156 231.867 143.508 229.758C143.918 227.648 144.27 225.744 144.562 224.045C144.387 224.045 144.211 224.045 144.035 224.045C143.859 223.986 143.713 223.957 143.596 223.957C141.838 223.957 140.402 223.986 139.289 224.045C138.176 224.104 137.15 224.191 136.213 224.309C135.275 224.426 134.279 224.602 133.225 224.836C132.229 225.012 130.939 225.246 129.357 225.539L127.863 225.803C126.75 226.33 125.666 226.828 124.611 227.297C123.615 227.707 122.561 227.912 121.447 227.912C119.689 227.912 118.166 227.209 116.877 225.803C115.529 224.982 114.768 223.811 114.592 222.287C114.299 221.76 114.182 221.262 114.24 220.793C114.006 219.973 113.859 219.24 113.801 218.596C113.801 217.893 113.801 217.248 113.801 216.662L113.889 215.168H115.207C115.559 214.816 115.793 214.553 115.91 214.377C116.086 214.201 116.203 213.996 116.262 213.762L116.525 212.883L117.404 212.795C118.635 212.619 119.895 212.414 121.184 212.18C122.473 211.945 123.791 211.682 125.139 211.389C126.486 211.154 127.629 210.949 128.566 210.773C129.562 210.598 130.5 210.48 131.379 210.422C132.258 210.305 133.166 210.246 134.104 210.246C135.041 210.188 136.125 210.158 137.355 210.158C137.824 210.158 138.234 210.188 138.586 210.246C138.996 210.246 139.406 210.246 139.816 210.246C140.051 209.953 140.285 209.777 140.52 209.719C140.754 209.66 140.93 209.631 141.047 209.631C141.457 209.689 141.75 209.748 141.926 209.807C142.16 209.865 142.336 209.924 142.453 209.982C144.445 209.631 146.262 209.426 147.902 209.367C149.602 209.25 151.125 209.191 152.473 209.191C153.117 209.191 153.762 209.191 154.406 209.191C155.051 209.191 155.666 209.221 156.252 209.279H159.592H161.965C162.258 209.221 162.521 209.191 162.756 209.191C163.049 209.191 163.342 209.191 163.635 209.191C164.221 209.191 164.66 209.191 164.953 209.191C165.305 209.191 165.598 209.221 165.832 209.279C166.066 209.279 166.301 209.309 166.535 209.367C166.77 209.367 167.092 209.396 167.502 209.455C168.498 209.631 169.406 209.777 170.227 209.895C171.047 210.012 171.867 210.07 172.688 210.07L174.357 209.982L174.621 211.037L175.412 212.18C175.588 212.531 175.822 212.854 176.115 213.146C176.408 213.439 176.73 213.732 177.082 214.025C177.785 214.67 178.459 215.49 179.104 216.486C179.807 217.424 180.07 218.801 179.895 220.617L179.104 221.672C178.869 221.789 178.635 221.936 178.4 222.111C178.225 222.287 178.02 222.492 177.785 222.727L176.906 223.518C176.145 223.576 175.5 223.635 174.973 223.693C174.445 223.693 173.859 223.693 173.215 223.693C172.16 223.693 171.076 223.664 169.963 223.605C168.908 223.547 167.795 223.488 166.623 223.43C165.979 223.371 165.48 223.342 165.129 223.342C164.777 223.342 164.455 223.342 164.162 223.342C163.869 223.342 163.518 223.371 163.107 223.43C162.756 223.43 162.287 223.43 161.701 223.43C161.115 223.43 160.676 223.43 160.383 223.43C160.148 223.43 159.797 223.459 159.328 223.518C159.211 225.393 158.977 227.033 158.625 228.439C158.332 229.787 157.951 231.223 157.482 232.746C156.369 238.488 154.992 243.908 153.352 249.006C151.77 254.104 149.982 258.703 147.99 262.805C146.115 264.797 144.328 266.584 142.629 268.166C140.93 269.689 139.025 270.773 136.916 271.418H136.652ZM219.445 246.633C219.387 247.336 219.445 248.01 219.621 248.654C219.797 249.299 220.002 249.943 220.236 250.588C220.529 251.174 220.793 251.789 221.027 252.434C221.262 253.078 221.438 253.723 221.555 254.367C221.672 255.188 221.672 256.096 221.555 257.092C221.438 258.029 221.232 258.967 220.939 259.904C220.646 260.783 220.266 261.604 219.797 262.365C219.328 263.068 218.771 263.596 218.127 263.947C217.307 265.002 216.311 265.822 215.139 266.408C213.967 266.994 212.883 267.697 211.887 268.518C211.242 268.928 210.51 269.221 209.689 269.396C208.928 269.572 208.137 269.748 207.316 269.924C206.672 270.275 205.91 270.656 205.031 271.066C204.152 271.418 203.244 271.77 202.307 272.121C201.369 272.414 200.432 272.648 199.494 272.824C198.557 272.941 197.736 272.971 197.033 272.912C195.275 273.557 193.547 273.967 191.848 274.143C190.207 274.377 188.273 274.26 186.047 273.791C183.938 274.084 181.975 273.996 180.158 273.527C178.4 273.059 176.818 272.326 175.412 271.33C174.064 270.275 172.863 269.045 171.809 267.639C170.812 266.174 169.992 264.65 169.348 263.068C168.879 259.729 168.996 256.711 169.699 254.016C170.402 251.262 171.398 248.742 172.688 246.457C174.035 244.113 175.559 241.975 177.258 240.041C178.957 238.049 180.598 236.115 182.18 234.24C182.531 234.357 182.795 234.357 182.971 234.24C183.205 234.064 183.41 233.859 183.586 233.625C183.762 233.332 183.938 233.068 184.113 232.834C184.348 232.6 184.611 232.453 184.904 232.395C185.314 231.516 185.9 230.871 186.662 230.461C187.482 229.992 188.127 229.348 188.596 228.527C189.123 228.41 189.562 228.234 189.914 228C190.266 227.766 190.588 227.502 190.881 227.209C191.232 226.916 191.584 226.652 191.936 226.418C192.287 226.125 192.697 225.92 193.166 225.803V224.836C194.221 224.367 194.982 223.84 195.451 223.254C195.979 222.609 196.594 221.848 197.297 220.969C197.824 220.91 198.234 220.881 198.527 220.881C198.879 220.881 199.377 220.822 200.021 220.705C200.49 219.885 200.9 219.27 201.252 218.859C201.662 218.449 202.248 218.01 203.01 217.541C203.713 217.893 204.475 218.127 205.295 218.244C206.174 218.361 206.936 218.742 207.58 219.387C207.639 219.973 207.814 220.441 208.107 220.793C208.4 221.086 208.723 221.379 209.074 221.672C209.426 221.906 209.748 222.17 210.041 222.463C210.393 222.756 210.627 223.166 210.744 223.693C210.979 223.752 211.125 223.723 211.184 223.605C211.301 223.488 211.477 223.459 211.711 223.518C211.887 224.338 212.092 224.895 212.326 225.188C212.561 225.422 212.795 225.92 213.029 226.682C212.736 227.268 212.502 227.883 212.326 228.527C212.209 229.113 211.857 229.553 211.271 229.846C211.213 230.256 211.33 230.49 211.623 230.549C211.916 230.549 212.092 230.695 212.15 230.988C212.209 231.516 212.121 231.896 211.887 232.131C213.293 234.416 214.553 236.848 215.666 239.426C216.779 241.945 218.039 244.348 219.445 246.633ZM208.459 254.982C208.693 254.338 208.986 253.811 209.338 253.4C209.748 252.99 209.982 252.375 210.041 251.555C209.748 251.086 209.572 250.734 209.514 250.5C209.455 250.207 209.426 249.768 209.426 249.182C208.137 247.365 207.023 245.432 206.086 243.381C205.148 241.271 204.094 239.309 202.922 237.492C202.805 237.727 202.6 237.961 202.307 238.195C202.014 238.43 201.691 238.371 201.34 238.02C201.223 238.488 201.018 238.84 200.725 239.074C200.432 239.25 200.109 239.338 199.758 239.338C199.406 239.279 199.025 239.191 198.615 239.074C198.264 238.898 197.941 238.693 197.648 238.459C195.949 239.807 194.25 241.125 192.551 242.414C190.852 243.703 189.328 245.197 187.98 246.896C187.746 247.014 187.6 247.072 187.541 247.072C187.482 247.014 187.307 247.043 187.014 247.16C186.545 248.273 185.959 249.299 185.256 250.236C184.611 251.115 183.967 252.023 183.322 252.961C182.678 253.898 182.121 254.895 181.652 255.949C181.184 257.004 180.92 258.234 180.861 259.641C181.857 260.461 183.029 260.959 184.377 261.135C185.725 261.311 187.102 261.34 188.508 261.223C189.973 261.105 191.379 260.93 192.727 260.695C194.133 260.402 195.422 260.256 196.594 260.256C199.055 259.67 201.164 258.908 202.922 257.971C204.68 256.975 206.525 255.979 208.459 254.982ZM287.121 257.18C285.715 259.699 283.869 261.662 281.584 263.068C279.299 264.416 276.779 265.559 274.025 266.496C271.271 267.375 268.371 268.166 265.324 268.869C262.336 269.572 259.436 270.48 256.623 271.594C255.803 271.594 255.07 271.623 254.426 271.682C253.84 271.74 253.254 271.828 252.668 271.945C252.141 272.004 251.613 272.092 251.086 272.209C250.559 272.268 249.973 272.326 249.328 272.385C249.094 272.326 248.947 272.385 248.889 272.561C248.83 272.678 248.742 272.795 248.625 272.912C247.629 273.088 246.721 273.176 245.9 273.176C245.139 273.176 244.494 273.176 243.967 273.176C243.264 273.176 242.531 273.264 241.77 273.439C241.066 273.674 240.422 273.762 239.836 273.703C235.441 273.469 231.984 271.916 229.465 269.045C227.004 266.115 225.627 262.072 225.334 256.916C225.393 256.623 225.334 256.447 225.158 256.389C225.041 256.33 224.924 256.242 224.807 256.125C224.807 255.539 224.865 255.041 224.982 254.631C225.158 254.221 225.188 253.693 225.07 253.049C226.594 249.826 228.322 246.838 230.256 244.084C232.189 241.271 234.504 238.811 237.199 236.701C237.609 236.35 237.961 235.998 238.254 235.646C238.547 235.295 238.811 234.943 239.045 234.592C239.338 234.24 239.66 233.947 240.012 233.713C240.363 233.42 240.803 233.215 241.33 233.098C242.561 231.691 244.025 230.402 245.725 229.23C247.424 228.059 249.211 226.945 251.086 225.891C252.961 224.777 254.807 223.693 256.623 222.639C258.498 221.525 260.197 220.295 261.721 218.947C262.365 219.24 262.834 219.328 263.127 219.211C263.42 219.094 263.742 219.094 264.094 219.211C264.504 220.09 265.061 220.705 265.764 221.057C266.525 221.408 267.258 221.789 267.961 222.199C268.723 222.551 269.426 222.99 270.07 223.518C270.715 224.045 271.213 224.748 271.564 225.627C271.213 225.627 271.037 225.773 271.037 226.066C271.096 226.301 271.184 226.564 271.301 226.857C271.418 227.092 271.447 227.355 271.389 227.648C271.389 227.883 271.184 228 270.773 228C270.832 228.293 271.008 228.469 271.301 228.527C271.652 228.527 271.828 228.674 271.828 228.967C271.828 229.26 271.74 229.494 271.564 229.67C271.447 229.846 271.447 230.139 271.564 230.549C270.393 231.311 269.074 232.043 267.609 232.746C266.203 233.449 264.709 234.211 263.127 235.031C261.604 235.793 259.992 236.643 258.293 237.58C256.652 238.459 255.041 239.484 253.459 240.656C251.877 241.828 250.266 243.146 248.625 244.611C246.984 246.018 245.402 247.512 243.879 249.094C242.355 250.676 240.92 252.316 239.572 254.016C238.225 255.656 237.082 257.297 236.145 258.938C236.262 259.23 236.379 259.465 236.496 259.641C236.672 259.758 236.818 259.963 236.936 260.256C238.811 260.373 240.539 260.373 242.121 260.256C243.762 260.08 245.402 260.168 247.043 260.52C247.219 260.402 247.336 260.227 247.395 259.992C247.453 259.758 247.6 259.582 247.834 259.465C251.174 259.113 254.279 258.586 257.15 257.883C260.021 257.121 262.951 256.33 265.939 255.51C265.471 255.334 265.031 255.188 264.621 255.07C264.27 254.895 263.918 254.748 263.566 254.631C263.273 254.338 263.273 254.104 263.566 253.928C263.918 253.693 264.211 253.459 264.445 253.225C263.625 252.756 262.951 252.17 262.424 251.467C261.955 250.764 261.662 249.826 261.545 248.654C261.896 248.361 262.072 248.01 262.072 247.6C262.072 247.189 261.896 246.867 261.545 246.633C261.311 246.574 261.164 246.574 261.105 246.633C261.047 246.691 260.988 246.779 260.93 246.896C260.93 247.014 260.9 247.131 260.842 247.248C260.783 247.307 260.637 247.277 260.402 247.16C260.461 246.633 260.578 246.193 260.754 245.842C260.988 245.49 261.164 245.08 261.281 244.611L267.346 240.568C267.99 241.037 268.781 241.564 269.719 242.15C270.656 242.678 271.623 243.234 272.619 243.82C273.674 244.348 274.729 244.904 275.783 245.49C276.896 246.018 277.922 246.545 278.859 247.072C279.68 247.424 280.412 247.893 281.057 248.479C281.701 249.064 282.316 249.68 282.902 250.324C283.488 250.91 284.074 251.496 284.66 252.082C285.305 252.668 286.037 253.166 286.857 253.576C286.74 254.338 286.77 254.953 286.945 255.422C287.121 255.891 287.18 256.477 287.121 257.18ZM334.758 246.633C334.699 247.336 334.758 248.01 334.934 248.654C335.109 249.299 335.314 249.943 335.549 250.588C335.842 251.174 336.105 251.789 336.34 252.434C336.574 253.078 336.75 253.723 336.867 254.367C336.984 255.188 336.984 256.096 336.867 257.092C336.75 258.029 336.545 258.967 336.252 259.904C335.959 260.783 335.578 261.604 335.109 262.365C334.641 263.068 334.084 263.596 333.439 263.947C332.619 265.002 331.623 265.822 330.451 266.408C329.279 266.994 328.195 267.697 327.199 268.518C326.555 268.928 325.822 269.221 325.002 269.396C324.24 269.572 323.449 269.748 322.629 269.924C321.984 270.275 321.223 270.656 320.344 271.066C319.465 271.418 318.557 271.77 317.619 272.121C316.682 272.414 315.744 272.648 314.807 272.824C313.869 272.941 313.049 272.971 312.346 272.912C310.588 273.557 308.859 273.967 307.16 274.143C305.52 274.377 303.586 274.26 301.359 273.791C299.25 274.084 297.287 273.996 295.471 273.527C293.713 273.059 292.131 272.326 290.725 271.33C289.377 270.275 288.176 269.045 287.121 267.639C286.125 266.174 285.305 264.65 284.66 263.068C284.191 259.729 284.309 256.711 285.012 254.016C285.715 251.262 286.711 248.742 288 246.457C289.348 244.113 290.871 241.975 292.57 240.041C294.27 238.049 295.91 236.115 297.492 234.24C297.844 234.357 298.107 234.357 298.283 234.24C298.518 234.064 298.723 233.859 298.898 233.625C299.074 233.332 299.25 233.068 299.426 232.834C299.66 232.6 299.924 232.453 300.217 232.395C300.627 231.516 301.213 230.871 301.975 230.461C302.795 229.992 303.439 229.348 303.908 228.527C304.436 228.41 304.875 228.234 305.227 228C305.578 227.766 305.9 227.502 306.193 227.209C306.545 226.916 306.896 226.652 307.248 226.418C307.6 226.125 308.01 225.92 308.479 225.803V224.836C309.533 224.367 310.295 223.84 310.764 223.254C311.291 222.609 311.906 221.848 312.609 220.969C313.137 220.91 313.547 220.881 313.84 220.881C314.191 220.881 314.689 220.822 315.334 220.705C315.803 219.885 316.213 219.27 316.564 218.859C316.975 218.449 317.561 218.01 318.322 217.541C319.025 217.893 319.787 218.127 320.607 218.244C321.486 218.361 322.248 218.742 322.893 219.387C322.951 219.973 323.127 220.441 323.42 220.793C323.713 221.086 324.035 221.379 324.387 221.672C324.738 221.906 325.061 222.17 325.354 222.463C325.705 222.756 325.939 223.166 326.057 223.693C326.291 223.752 326.438 223.723 326.496 223.605C326.613 223.488 326.789 223.459 327.023 223.518C327.199 224.338 327.404 224.895 327.639 225.188C327.873 225.422 328.107 225.92 328.342 226.682C328.049 227.268 327.814 227.883 327.639 228.527C327.521 229.113 327.17 229.553 326.584 229.846C326.525 230.256 326.643 230.49 326.936 230.549C327.229 230.549 327.404 230.695 327.463 230.988C327.521 231.516 327.434 231.896 327.199 232.131C328.605 234.416 329.865 236.848 330.979 239.426C332.092 241.945 333.352 244.348 334.758 246.633ZM323.771 254.982C324.006 254.338 324.299 253.811 324.65 253.4C325.061 252.99 325.295 252.375 325.354 251.555C325.061 251.086 324.885 250.734 324.826 250.5C324.768 250.207 324.738 249.768 324.738 249.182C323.449 247.365 322.336 245.432 321.398 243.381C320.461 241.271 319.406 239.309 318.234 237.492C318.117 237.727 317.912 237.961 317.619 238.195C317.326 238.43 317.004 238.371 316.652 238.02C316.535 238.488 316.33 238.84 316.037 239.074C315.744 239.25 315.422 239.338 315.07 239.338C314.719 239.279 314.338 239.191 313.928 239.074C313.576 238.898 313.254 238.693 312.961 238.459C311.262 239.807 309.562 241.125 307.863 242.414C306.164 243.703 304.641 245.197 303.293 246.896C303.059 247.014 302.912 247.072 302.854 247.072C302.795 247.014 302.619 247.043 302.326 247.16C301.857 248.273 301.271 249.299 300.568 250.236C299.924 251.115 299.279 252.023 298.635 252.961C297.99 253.898 297.434 254.895 296.965 255.949C296.496 257.004 296.232 258.234 296.174 259.641C297.17 260.461 298.342 260.959 299.689 261.135C301.037 261.311 302.414 261.34 303.82 261.223C305.285 261.105 306.691 260.93 308.039 260.695C309.445 260.402 310.734 260.256 311.906 260.256C314.367 259.67 316.477 258.908 318.234 257.971C319.992 256.975 321.838 255.979 323.771 254.982ZM339.768 233.449C340.178 232.219 340.822 231.164 341.701 230.285C342.639 229.406 343.635 228.674 344.689 228.088C345.803 227.443 346.945 226.916 348.117 226.506C349.289 226.096 350.402 225.744 351.457 225.451C353.801 224.455 356.291 223.518 358.928 222.639C361.623 221.701 364.348 220.881 367.102 220.178C369.914 219.475 372.785 219.035 375.715 218.859C378.645 218.625 381.721 218.977 384.943 219.914C385.119 220.5 385.383 221.057 385.734 221.584C386.086 222.111 386.438 222.639 386.789 223.166C387.199 223.693 387.551 224.221 387.844 224.748C388.137 225.217 388.312 225.715 388.371 226.242C388.957 226.77 389.426 227.355 389.777 228C390.129 228.586 390.188 229.377 389.953 230.373C389.367 230.842 388.781 231.281 388.195 231.691C387.668 232.043 387.082 232.365 386.438 232.658C384.27 232.131 382.072 231.955 379.846 232.131C377.619 232.307 375.627 232.453 373.869 232.57C373.342 232.043 372.697 231.779 371.936 231.779C371.232 231.779 370.471 231.896 369.65 232.131C368.889 232.365 368.098 232.6 367.277 232.834C366.516 233.068 365.783 233.127 365.08 233.01C364.494 233.479 363.762 233.801 362.883 233.977C362.062 234.094 361.154 234.211 360.158 234.328C360.1 234.621 360.158 234.826 360.334 234.943C360.51 235.002 360.539 235.178 360.422 235.471C360.773 235.881 361.213 236.174 361.74 236.35C362.326 236.525 362.912 236.701 363.498 236.877C364.143 237.053 364.699 237.287 365.168 237.58C365.637 237.814 365.959 238.225 366.135 238.811C367.014 238.811 367.775 239.016 368.42 239.426C369.064 239.836 369.592 240.334 370.002 240.92C370.412 241.506 370.705 242.15 370.881 242.854C371.115 243.498 371.232 244.084 371.232 244.611C371.408 245.08 371.613 245.285 371.848 245.227C372.082 245.168 372.346 245.285 372.639 245.578C372.814 246.34 373.254 247.131 373.957 247.951C374.66 248.713 375.217 249.562 375.627 250.5C375.744 251.965 375.832 253.283 375.891 254.455C375.949 255.568 375.744 256.711 375.275 257.883C374.396 260.051 373.166 261.984 371.584 263.684C370.061 265.383 368.303 266.906 366.311 268.254C364.377 269.543 362.297 270.656 360.07 271.594C357.844 272.531 355.676 273.322 353.566 273.967C353.332 273.908 353.098 273.908 352.863 273.967C352.629 274.025 352.57 273.879 352.688 273.527C352.219 273.938 351.691 274.201 351.105 274.318C350.578 274.436 349.992 274.465 349.348 274.406C348.703 274.406 348.029 274.377 347.326 274.318C346.682 274.26 346.066 274.289 345.48 274.406C345.07 273.996 344.689 273.586 344.338 273.176C344.045 272.824 343.811 272.355 343.635 271.77C343.342 271.77 343.195 271.623 343.195 271.33C343.254 271.037 343.166 270.891 342.932 270.891C343.283 270.305 343.43 269.982 343.371 269.924C343.371 269.807 343.283 269.719 343.107 269.66C342.99 269.602 342.873 269.543 342.756 269.484C342.639 269.367 342.609 269.221 342.668 269.045C342.902 268.576 342.99 268.049 342.932 267.463C342.873 266.818 342.814 266.174 342.756 265.529C342.697 264.885 342.727 264.27 342.844 263.684C343.02 263.098 343.459 262.629 344.162 262.277C346.154 262.512 348.029 262.453 349.787 262.102C351.604 261.691 353.303 261.135 354.885 260.432C356.467 259.729 357.961 258.967 359.367 258.146C360.832 257.326 362.268 256.594 363.674 255.949C363.85 255.422 364.084 254.982 364.377 254.631C364.729 254.279 365.08 253.957 365.432 253.664C365.783 253.371 366.105 253.049 366.398 252.697C366.691 252.346 366.896 251.906 367.014 251.379C367.072 250.969 366.955 250.734 366.662 250.676C366.428 250.559 366.311 250.324 366.311 249.973L365.344 249.709C364.23 249.064 362.971 248.537 361.564 248.127C360.158 247.658 358.957 247.16 357.961 246.633C357.316 246.984 356.701 247.072 356.115 246.896C355.588 246.721 354.885 246.545 354.006 246.369C352.014 246.252 350.08 246.047 348.205 245.754C346.389 245.461 344.631 244.934 342.932 244.172C342.814 243.879 342.668 243.615 342.492 243.381C342.316 243.146 341.994 243.088 341.525 243.205C341.174 242.736 340.822 242.297 340.471 241.887C340.119 241.418 339.797 240.92 339.504 240.393C339.621 239.689 339.709 239.104 339.768 238.635C339.826 238.107 339.65 237.609 339.24 237.141C339.475 236.379 339.65 235.764 339.768 235.295C339.885 234.826 339.885 234.211 339.768 233.449Z" fill="#14279B"/>
</svg>
