<svg width="493" height="493" viewBox="0 0 493 493" fill="none" xmlns="http://www.w3.org/2000/svg">
<path d="M283.433 56.0745L437.938 283.433L210.58 437.937L56.0746 210.579L283.433 56.0745Z" fill="#B5CFE8"/>
<path d="M184.08 62.4199L430.58 184.08L308.92 430.58L62.4199 308.92L184.08 62.4199Z" fill="#14279B"/>
<path d="M104.592 271.025C104.104 271.025 103.347 270.952 102.321 270.806C101.54 269.976 100.832 268.853 100.197 267.437C99.6113 265.972 99.1475 264.434 98.8057 262.822C98.5127 261.162 98.3662 259.526 98.3662 257.915C98.415 256.255 98.708 254.79 99.2451 253.521C99.2451 253.472 99.4648 252.886 99.9043 251.763C100.393 250.64 101.003 249.224 101.735 247.515C102.468 245.757 103.298 243.828 104.226 241.729C105.153 239.58 106.081 237.48 107.009 235.43C107.937 233.379 108.815 231.523 109.646 229.863C110.524 228.154 111.281 226.836 111.916 225.908C112.355 225.225 112.746 224.565 113.088 223.931C113.479 223.296 113.845 222.71 114.187 222.173C114.724 221.294 115.212 220.488 115.651 219.756C116.14 218.975 116.652 218.291 117.189 217.705C117.775 217.07 118.41 216.533 119.094 216.094C119.777 215.605 120.607 215.19 121.584 214.849C122.17 215.093 122.683 215.361 123.122 215.654C123.562 215.898 123.952 216.216 124.294 216.606L124.514 217.632C124.611 217.974 124.758 218.218 124.953 218.364C125.197 218.462 125.393 218.511 125.539 218.511C126.174 218.657 126.711 218.828 127.15 219.023C127.639 219.17 128.151 219.268 128.688 219.316C128.884 219.609 129.055 219.902 129.201 220.195C129.396 220.488 129.592 220.757 129.787 221.001C130.764 222.417 131.569 223.784 132.204 225.103C132.839 226.421 132.839 227.861 132.204 229.424L132.277 230.229C132.521 230.571 132.644 230.889 132.644 231.182C132.644 231.475 132.595 231.89 132.497 232.427C132.448 232.817 132.399 233.257 132.351 233.745C132.351 234.185 132.424 234.673 132.57 235.21L133.083 235.796C133.864 236.187 134.621 236.382 135.354 236.382C136.33 236.382 137.209 236.162 137.99 235.723C138.771 235.283 139.504 234.844 140.188 234.404C140.725 234.014 141.213 233.696 141.652 233.452C142.141 233.208 142.604 233.037 143.044 232.939C144.069 231.963 144.997 231.108 145.827 230.376C146.706 229.595 147.609 228.813 148.537 228.032C150.295 226.616 152.004 225.103 153.664 223.491C155.324 221.831 156.643 219.78 157.619 217.339C158.156 216.997 158.767 216.826 159.45 216.826C160.134 216.826 160.817 216.973 161.501 217.266C162.185 217.51 162.868 217.803 163.552 218.145C163.698 218.242 163.82 218.315 163.918 218.364C164.064 218.413 164.211 218.486 164.357 218.584C164.357 219.121 164.577 219.609 165.017 220.049C165.261 220.244 165.432 220.366 165.529 220.415C165.627 220.464 165.725 220.513 165.822 220.562C166.213 220.806 166.53 221.025 166.774 221.221C167.067 221.416 167.287 221.685 167.434 222.026C167.873 223.345 168.605 224.37 169.631 225.103C169.533 225.64 169.558 226.177 169.704 226.714C169.851 227.202 170.021 227.69 170.217 228.179C170.314 228.374 170.388 228.569 170.437 228.765C170.485 228.911 170.559 229.106 170.656 229.351L169.045 229.204L169.265 230.815C169.411 231.646 169.338 232.573 169.045 233.599C168.801 234.624 168.508 235.43 168.166 236.016C168.264 237.48 168.312 238.652 168.312 239.531C168.312 240.361 168.264 241.143 168.166 241.875C168.068 242.607 167.897 243.315 167.653 243.999C167.458 244.634 167.189 245.317 166.848 246.05C167.043 249.761 166.604 253.154 165.529 256.23C164.504 259.307 163.381 262.188 162.16 264.873C162.014 265.215 161.867 265.532 161.721 265.825C161.574 266.118 161.452 266.411 161.354 266.704C160.817 266.851 160.329 267.021 159.89 267.217C159.45 267.412 159.035 267.632 158.645 267.876C158.107 268.218 157.57 268.511 157.033 268.755C156.496 268.95 155.935 269.048 155.349 269.048C153.005 267.339 151.784 264.385 151.687 260.186C151.638 255.986 152.541 250.64 154.396 244.146C154.738 243.901 154.885 243.535 154.836 243.047V242.241L154.104 242.168C153.859 242.168 153.64 242.192 153.444 242.241C153.249 242.29 153.103 242.51 153.005 242.9C151.442 244.023 149.733 245.195 147.878 246.416C146.071 247.588 144.191 248.687 142.238 249.712C140.285 250.688 138.283 251.519 136.232 252.202C134.23 252.837 132.277 253.154 130.373 253.154C125.49 253.154 121.804 250.664 119.313 245.684L118.654 244.365L117.922 245.537C117.775 245.781 117.507 246.27 117.116 247.002C116.774 247.686 116.408 248.491 116.018 249.419C115.676 250.347 115.358 251.299 115.065 252.275C114.821 253.252 114.748 254.106 114.846 254.839C114.26 255.376 113.674 255.986 113.088 256.67C112.551 257.354 112.16 258.135 111.916 259.014C111.818 259.258 111.794 259.502 111.843 259.746C111.892 259.941 111.965 260.161 112.062 260.405C112.014 260.747 111.916 260.991 111.77 261.138C111.623 261.284 111.452 261.431 111.257 261.577C111.013 261.821 110.769 262.09 110.524 262.383C110.28 262.627 110.061 262.92 109.865 263.262C109.768 263.555 109.694 263.872 109.646 264.214C109.597 264.507 109.548 264.775 109.499 265.02C109.499 265.557 109.426 265.923 109.279 266.118C108.791 267.144 108.352 267.998 107.961 268.682C107.619 269.316 107.277 269.805 106.936 270.146C106.594 270.488 106.228 270.708 105.837 270.806C105.495 270.952 105.08 271.025 104.592 271.025ZM214.235 228.325C214.333 229.399 214.504 230.327 214.748 231.108C214.992 231.89 215.261 232.646 215.554 233.379C215.798 234.062 216.018 234.746 216.213 235.43C216.457 236.064 216.628 236.846 216.726 237.773C216.335 239.043 216.042 240.215 215.847 241.289C215.7 242.363 215.529 243.486 215.334 244.658C214.553 246.367 213.796 247.881 213.063 249.199C212.331 250.518 211.745 251.665 211.306 252.642C211.062 252.886 210.842 253.179 210.646 253.521C210.5 253.813 210.329 254.131 210.134 254.473C210.036 254.619 209.914 254.839 209.768 255.132C209.621 255.425 209.499 255.62 209.401 255.718L207.937 255.205L207.644 257.036L206.618 257.329L205.886 258.208C204.958 259.819 203.981 261.187 202.956 262.31C201.931 263.384 200.759 264.36 199.44 265.239C198.171 266.069 196.706 266.851 195.046 267.583C193.435 268.315 191.604 269.121 189.553 270C188.723 269.902 187.99 269.854 187.355 269.854C186.77 269.805 186.208 269.756 185.671 269.707C184.743 269.707 183.596 269.634 182.229 269.487C182.082 269.097 181.862 268.828 181.569 268.682C181.276 268.535 181.008 268.462 180.764 268.462C179.934 268.071 179.299 267.51 178.859 266.777C178.469 265.996 178.078 265.166 177.688 264.287C177.443 263.75 177.199 263.262 176.955 262.822C176.711 262.334 176.442 261.846 176.149 261.357L177.395 260.991L175.783 259.233C175.686 259.087 175.563 258.965 175.417 258.867C175.271 258.721 175.148 258.574 175.051 258.428L174.978 257.256C174.831 253.887 174.758 250.811 174.758 248.027C174.807 245.195 175.197 242.681 175.93 240.483V239.678C176.076 238.604 176.223 237.725 176.369 237.041C176.516 236.309 176.638 235.625 176.735 234.99C176.882 233.916 177.102 232.915 177.395 231.987C178.078 231.841 178.591 231.572 178.933 231.182C179.274 230.742 179.567 230.352 179.812 230.01C180.495 229.961 180.959 230.059 181.203 230.303C181.447 230.547 181.691 230.938 181.936 231.475C182.18 231.914 182.473 232.402 182.814 232.939C183.205 233.477 183.767 233.892 184.499 234.185C184.597 234.575 184.719 234.99 184.865 235.43C185.061 235.82 185.256 236.26 185.451 236.748C185.842 237.578 186.184 238.457 186.477 239.385C186.818 240.264 187.014 241.118 187.062 241.948C186.574 242.876 186.184 243.95 185.891 245.171C185.646 246.392 185.476 247.637 185.378 248.906C185.329 250.127 185.354 251.323 185.451 252.495C185.598 253.618 185.817 254.57 186.11 255.352L186.55 256.304L187.795 256.157C189.26 255.767 190.578 255.352 191.75 254.912C192.971 254.424 194.094 253.862 195.119 253.228C196.145 252.593 197.121 251.86 198.049 251.03C198.977 250.151 199.953 249.15 200.979 248.027C202.004 246.904 202.883 245.635 203.615 244.219C204.396 242.754 205.031 241.24 205.52 239.678C206.057 238.115 206.447 236.577 206.691 235.063C206.984 233.501 207.18 232.036 207.277 230.669C208.107 230.376 208.522 229.79 208.522 228.911L208.376 228.105C208.181 227.812 208.181 227.471 208.376 227.08C208.669 226.152 209.353 225.444 210.427 224.956C211.208 225.444 211.892 225.981 212.478 226.567C213.112 227.153 213.698 227.739 214.235 228.325ZM213.576 213.018C213.186 213.115 212.526 213.457 211.599 214.043C210.72 214.629 209.572 215.557 208.156 216.826C207.424 217.461 206.545 218.267 205.52 219.243C204.494 220.171 203.371 221.099 202.15 222.026C200.979 222.905 199.758 223.687 198.488 224.37C197.219 225.054 195.998 225.42 194.826 225.469C194.484 225.127 194.143 224.785 193.801 224.443C193.459 224.102 193.166 223.76 192.922 223.418C192.727 223.076 192.604 222.71 192.556 222.319C192.507 221.929 192.629 221.489 192.922 221.001C192.287 219.976 192.019 219.194 192.116 218.657C192.214 218.12 192.458 217.656 192.849 217.266C193.288 216.875 193.752 216.509 194.24 216.167C194.777 215.825 195.144 215.312 195.339 214.629C196.462 213.408 197.683 212.163 199.001 210.894C200.368 209.575 201.638 208.257 202.81 206.938C203.298 206.841 203.762 206.621 204.201 206.279C204.689 205.889 205.153 205.474 205.593 205.034C206.032 204.595 206.472 204.155 206.911 203.716C207.399 203.228 207.912 202.837 208.449 202.544C208.547 202.837 208.815 203.13 209.255 203.423C209.743 203.667 210.109 203.716 210.354 203.569C210.402 204.106 210.671 204.644 211.159 205.181C211.647 205.669 212.087 206.011 212.478 206.206C212.771 206.89 213.063 207.524 213.356 208.11C213.649 208.647 213.869 209.185 214.016 209.722C214.162 210.259 214.211 210.796 214.162 211.333C214.162 211.87 213.967 212.432 213.576 213.018ZM216.066 237.041C216.408 236.016 216.945 235.137 217.678 234.404C218.459 233.672 219.289 233.062 220.168 232.573C221.096 232.036 222.048 231.597 223.024 231.255C224.001 230.913 224.929 230.62 225.808 230.376C227.761 229.546 229.836 228.765 232.033 228.032C234.279 227.251 236.55 226.567 238.845 225.981C241.188 225.396 243.581 225.029 246.022 224.883C248.464 224.688 251.027 224.98 253.713 225.762C253.859 226.25 254.079 226.714 254.372 227.153C254.665 227.593 254.958 228.032 255.251 228.472C255.593 228.911 255.886 229.351 256.13 229.79C256.374 230.181 256.521 230.596 256.569 231.035C257.058 231.475 257.448 231.963 257.741 232.5C258.034 232.988 258.083 233.647 257.888 234.478C257.399 234.868 256.911 235.234 256.423 235.576C255.983 235.869 255.495 236.138 254.958 236.382C253.151 235.942 251.32 235.796 249.465 235.942C247.609 236.089 245.949 236.211 244.484 236.309C244.045 235.869 243.508 235.649 242.873 235.649C242.287 235.649 241.652 235.747 240.969 235.942C240.334 236.138 239.675 236.333 238.991 236.528C238.356 236.724 237.746 236.772 237.16 236.675C236.672 237.065 236.062 237.334 235.329 237.48C234.646 237.578 233.889 237.676 233.059 237.773C233.01 238.018 233.059 238.188 233.205 238.286C233.352 238.335 233.376 238.481 233.278 238.726C233.571 239.067 233.938 239.312 234.377 239.458C234.865 239.604 235.354 239.751 235.842 239.897C236.379 240.044 236.843 240.239 237.233 240.483C237.624 240.679 237.893 241.021 238.039 241.509C238.771 241.509 239.406 241.68 239.943 242.021C240.48 242.363 240.92 242.778 241.262 243.267C241.604 243.755 241.848 244.292 241.994 244.878C242.189 245.415 242.287 245.903 242.287 246.343C242.434 246.733 242.604 246.904 242.8 246.855C242.995 246.807 243.215 246.904 243.459 247.148C243.605 247.783 243.972 248.442 244.558 249.126C245.144 249.761 245.607 250.469 245.949 251.25C246.047 252.471 246.12 253.569 246.169 254.546C246.218 255.474 246.047 256.426 245.656 257.402C244.924 259.209 243.898 260.82 242.58 262.236C241.311 263.652 239.846 264.922 238.186 266.045C236.574 267.119 234.841 268.047 232.985 268.828C231.13 269.609 229.323 270.269 227.565 270.806C227.37 270.757 227.175 270.757 226.979 270.806C226.784 270.854 226.735 270.732 226.833 270.439C226.442 270.781 226.003 271.001 225.515 271.099C225.075 271.196 224.587 271.221 224.05 271.172C223.513 271.172 222.951 271.147 222.365 271.099C221.828 271.05 221.315 271.074 220.827 271.172C220.485 270.83 220.168 270.488 219.875 270.146C219.631 269.854 219.436 269.463 219.289 268.975C219.045 268.975 218.923 268.853 218.923 268.608C218.972 268.364 218.898 268.242 218.703 268.242C218.996 267.754 219.118 267.485 219.069 267.437C219.069 267.339 218.996 267.266 218.85 267.217C218.752 267.168 218.654 267.119 218.557 267.07C218.459 266.973 218.435 266.851 218.483 266.704C218.679 266.313 218.752 265.874 218.703 265.386C218.654 264.849 218.605 264.312 218.557 263.774C218.508 263.237 218.532 262.725 218.63 262.236C218.776 261.748 219.143 261.357 219.729 261.064C221.389 261.26 222.951 261.211 224.416 260.918C225.93 260.576 227.346 260.112 228.664 259.526C229.982 258.94 231.228 258.306 232.399 257.622C233.62 256.938 234.816 256.328 235.988 255.791C236.135 255.352 236.33 254.985 236.574 254.692C236.867 254.399 237.16 254.131 237.453 253.887C237.746 253.643 238.015 253.374 238.259 253.081C238.503 252.788 238.674 252.422 238.771 251.982C238.82 251.641 238.723 251.445 238.479 251.396C238.283 251.299 238.186 251.104 238.186 250.811L237.38 250.591C236.452 250.054 235.402 249.614 234.23 249.272C233.059 248.882 232.058 248.467 231.228 248.027C230.69 248.32 230.178 248.394 229.689 248.247C229.25 248.101 228.664 247.954 227.932 247.808C226.271 247.71 224.66 247.539 223.098 247.295C221.584 247.051 220.119 246.611 218.703 245.977C218.605 245.732 218.483 245.513 218.337 245.317C218.19 245.122 217.922 245.073 217.531 245.171C217.238 244.78 216.945 244.414 216.652 244.072C216.359 243.682 216.091 243.267 215.847 242.827C215.944 242.241 216.018 241.753 216.066 241.362C216.115 240.923 215.969 240.508 215.627 240.117C215.822 239.482 215.969 238.97 216.066 238.579C216.164 238.188 216.164 237.676 216.066 237.041ZM265.212 264.873C265.456 266.338 265.358 267.485 264.919 268.315C264.528 269.146 263.942 269.756 263.161 270.146C262.429 270.586 261.574 270.83 260.598 270.879C259.621 270.928 258.693 270.879 257.814 270.732C257.326 270.049 256.887 269.194 256.496 268.169C256.105 267.144 255.739 266.094 255.397 265.02C255.056 263.896 254.738 262.798 254.445 261.724C254.201 260.649 253.981 259.697 253.786 258.867C254.03 258.281 254.177 257.622 254.226 256.89C254.323 256.108 254.372 255.327 254.372 254.546C254.421 253.765 254.445 252.983 254.445 252.202C254.494 251.372 254.567 250.591 254.665 249.858C255.007 247.808 255.495 245.854 256.13 243.999C256.813 242.144 257.351 240.215 257.741 238.213C257.839 237.773 257.79 237.358 257.595 236.968C257.448 236.577 257.424 236.211 257.521 235.869C257.57 235.674 257.717 235.552 257.961 235.503C258.205 235.405 258.352 235.234 258.4 234.99C258.547 234.453 258.571 234.014 258.474 233.672C258.425 233.33 258.522 232.915 258.767 232.427C259.011 232.036 259.304 231.475 259.646 230.742C260.036 229.961 260.183 229.155 260.085 228.325C260.524 228.032 260.939 227.69 261.33 227.3C261.721 226.909 262.111 226.567 262.502 226.274C262.941 225.933 263.405 225.64 263.894 225.396C264.431 225.151 265.065 225.029 265.798 225.029C266.188 225.518 266.433 226.055 266.53 226.641C266.677 227.227 266.799 227.812 266.896 228.398C267.043 228.984 267.238 229.546 267.482 230.083C267.727 230.571 268.142 230.962 268.728 231.255C268.728 231.646 268.728 232.134 268.728 232.72C268.728 233.306 268.752 233.892 268.801 234.478C268.85 235.015 268.947 235.527 269.094 236.016C269.289 236.455 269.582 236.748 269.973 236.895C269.094 239.238 268.264 241.558 267.482 243.853C266.75 246.147 266.14 248.467 265.651 250.811C265.163 253.105 264.846 255.425 264.699 257.769C264.602 260.112 264.772 262.48 265.212 264.873ZM304.177 270.146C303.396 270.195 302.419 270.171 301.247 270.073C300.124 269.976 299.074 270.146 298.098 270.586C295.51 270.488 292.873 270.171 290.188 269.634C287.502 269.097 285.036 268.438 282.79 267.656C282.302 267.119 281.813 266.631 281.325 266.191C280.837 265.703 280.178 265.361 279.348 265.166C278.176 264.238 277.224 263.115 276.491 261.797C275.759 260.43 275.173 258.989 274.733 257.476C274.294 255.962 274.001 254.424 273.854 252.861C273.708 251.25 273.659 249.712 273.708 248.247C274.44 246.05 275.466 244.17 276.784 242.607C278.151 240.996 279.543 239.409 280.959 237.847C281.594 237.554 282.058 237.261 282.351 236.968C282.692 236.626 283.034 236.333 283.376 236.089C283.767 235.796 284.133 235.527 284.475 235.283C284.865 234.99 285.207 234.648 285.5 234.258C286.525 234.014 287.404 233.672 288.137 233.232C288.918 232.744 289.675 232.256 290.407 231.768C291.14 231.23 291.896 230.742 292.678 230.303C293.459 229.863 294.362 229.521 295.388 229.277C295.778 228.838 296.242 228.496 296.779 228.252C297.316 227.959 297.854 227.69 298.391 227.446C298.977 227.153 299.514 226.86 300.002 226.567C300.539 226.274 300.954 225.884 301.247 225.396C301.491 225.786 301.833 225.933 302.272 225.835C302.712 225.688 303.127 225.542 303.518 225.396C303.762 225.347 303.957 225.396 304.104 225.542C304.299 225.688 304.47 225.835 304.616 225.981C304.763 226.128 304.885 226.226 304.982 226.274C305.129 226.274 305.251 226.152 305.349 225.908C305.593 225.908 305.666 226.03 305.568 226.274C305.471 226.519 305.397 226.689 305.349 226.787C305.739 226.738 306.057 226.836 306.301 227.08C306.594 227.275 307.033 227.397 307.619 227.446C307.814 227.69 307.863 227.886 307.766 228.032C307.668 228.13 307.619 228.325 307.619 228.618C309.084 229.058 310.012 229.766 310.402 230.742C310.793 231.67 310.817 232.646 310.476 233.672C310.134 234.697 309.523 235.649 308.645 236.528C307.766 237.407 306.813 237.993 305.788 238.286C303.444 238.921 301.223 239.629 299.123 240.41C297.072 241.143 295.388 242.241 294.069 243.706C292.897 244.048 291.848 244.512 290.92 245.098C290.041 245.635 289.187 246.27 288.356 247.002C287.575 247.686 286.818 248.418 286.086 249.199C285.402 249.932 284.67 250.664 283.889 251.396C283.938 252.08 283.815 252.617 283.522 253.008C283.278 253.35 283.034 253.716 282.79 254.106C282.888 254.839 283.059 255.498 283.303 256.084C283.547 256.621 283.815 257.158 284.108 257.695C287.331 258.672 290.749 259.282 294.362 259.526C298.024 259.771 301.687 259.917 305.349 259.966C305.69 260.454 306.081 260.918 306.521 261.357C307.009 261.748 307.448 262.188 307.839 262.676C308.229 263.115 308.547 263.628 308.791 264.214C309.035 264.751 309.084 265.435 308.938 266.265C308.254 266.997 307.497 267.681 306.667 268.315C305.837 268.901 305.007 269.512 304.177 270.146ZM350.979 263.848C350.686 264.678 350.246 265.532 349.66 266.411C349.123 267.241 348.464 267.998 347.683 268.682C346.95 269.316 346.12 269.854 345.192 270.293C344.265 270.732 343.288 270.977 342.263 271.025C341.628 270.879 341.188 270.708 340.944 270.513C340.749 270.366 340.529 270.22 340.285 270.073C340.139 269.976 339.992 269.902 339.846 269.854C339.748 269.756 339.65 269.683 339.553 269.634L338.674 269.268L338.967 268.315C339.064 267.925 339.04 267.632 338.894 267.437C338.747 267.192 338.454 266.875 338.015 266.484C337.868 266.338 337.722 266.191 337.575 266.045C337.429 265.898 337.307 265.752 337.209 265.605L335.964 264.214L337.941 263.701C339.162 263.359 339.968 262.92 340.358 262.383C340.798 261.846 340.969 260.942 340.871 259.673C339.895 259.478 339.064 259.453 338.381 259.6C337.746 259.746 337.087 259.917 336.403 260.112C335.524 260.356 334.621 260.576 333.693 260.771C332.814 260.918 331.838 260.991 330.764 260.991C330.373 260.991 330.007 260.991 329.665 260.991C329.323 260.942 328.957 260.894 328.566 260.845L327.834 260.698C327.736 260.161 327.639 259.868 327.541 259.819C327.443 259.722 327.346 259.624 327.248 259.526C327.004 259.282 326.735 258.965 326.442 258.574C326.198 258.135 326.149 257.598 326.296 256.963C326.052 256.523 325.905 256.084 325.856 255.645C325.563 256.23 325.344 256.841 325.197 257.476L324.904 258.208L324.172 258.354C324.074 258.403 324.001 258.525 323.952 258.721C323.903 258.867 323.879 258.989 323.879 259.087L323.513 260.332C323.415 260.43 323.317 260.527 323.22 260.625C323.122 260.674 323.024 260.747 322.927 260.845C322.829 261.284 322.707 261.724 322.561 262.163C322.414 262.603 322.268 263.018 322.121 263.408C321.877 264.043 321.657 264.678 321.462 265.312C321.315 265.898 321.267 266.484 321.315 267.07L321.022 267.876C320.778 268.169 320.51 268.413 320.217 268.608C319.924 268.755 319.631 268.901 319.338 269.048C319.24 269.146 319.094 269.243 318.898 269.341C318.752 269.39 318.63 269.438 318.532 269.487L318.312 270.293L317.434 270.439C316.896 270.537 316.506 270.61 316.262 270.659C316.066 270.708 315.822 270.732 315.529 270.732L314.797 270.659C314.26 270.22 313.845 269.878 313.552 269.634C313.259 269.341 312.917 269.072 312.526 268.828C312.087 268.242 311.843 267.803 311.794 267.51C311.745 267.217 311.696 266.948 311.647 266.704C311.55 266.411 311.501 266.167 311.501 265.972C311.452 265.776 311.379 265.63 311.281 265.532L310.329 264.653L311.135 263.994L311.208 262.749C312.185 260.259 313.21 257.866 314.284 255.571C315.407 253.276 316.555 250.933 317.727 248.54C318.117 247.759 318.483 246.978 318.825 246.196C319.216 245.415 319.606 244.634 319.997 243.853C319.948 243.706 319.924 243.535 319.924 243.34C319.924 243.145 319.973 242.925 320.07 242.681C320.607 241.851 321.047 241.118 321.389 240.483C321.73 239.8 322.072 239.116 322.414 238.433C322.805 237.603 323.195 236.797 323.586 236.016C324.025 235.234 324.562 234.429 325.197 233.599L326.369 233.086C326.516 233.037 326.687 232.988 326.882 232.939C327.077 232.842 327.297 232.793 327.541 232.793L328.64 232.939C330.007 232.305 331.203 231.426 332.229 230.303C333.254 229.131 334.304 227.739 335.378 226.128L336.11 225.103L337.062 225.688C337.307 225.835 337.648 225.981 338.088 226.128C338.527 226.226 338.991 226.348 339.479 226.494C340.358 226.689 341.188 226.909 341.97 227.153C342.751 227.397 343.386 227.764 343.874 228.252C344.167 229.033 344.338 229.619 344.387 230.01C344.436 230.4 344.509 230.791 344.606 231.182C344.753 232.012 344.875 232.842 344.973 233.672C345.119 234.502 345.217 235.43 345.266 236.455C345.51 237.285 345.705 238.115 345.852 238.945C346.047 239.727 346.218 240.532 346.364 241.362C346.608 242.534 346.853 243.682 347.097 244.805C347.341 245.879 347.658 246.904 348.049 247.881C348.439 247.881 348.684 247.905 348.781 247.954C349.025 247.856 349.27 247.783 349.514 247.734C349.807 247.686 350.124 247.637 350.466 247.588L351.271 247.515L351.564 248.247C351.613 248.491 351.857 248.735 352.297 248.979C352.932 249.028 353.396 249.175 353.688 249.419C353.981 249.614 354.25 249.834 354.494 250.078C354.689 250.273 354.885 250.42 355.08 250.518L356.179 250.957L355.593 252.056C355.104 252.935 354.396 253.789 353.469 254.619C352.59 255.4 351.589 256.06 350.466 256.597C350.515 256.89 350.539 257.183 350.539 257.476C350.588 257.72 350.661 257.988 350.759 258.281C350.905 259.111 351.027 259.966 351.125 260.845C351.223 261.724 351.223 262.627 351.125 263.555L350.979 263.848ZM329.812 251.177C331.276 251.079 332.595 250.981 333.767 250.884C334.987 250.737 336.33 250.518 337.795 250.225C337.453 248.76 337.087 247.246 336.696 245.684C336.306 244.072 335.891 242.485 335.451 240.923L335.012 241.655C334.035 242.681 333.083 243.828 332.155 245.098C331.276 246.367 330.52 247.563 329.885 248.687C329.592 249.126 329.299 249.565 329.006 250.005C328.713 250.444 328.444 250.884 328.2 251.323C328.493 251.274 328.762 251.25 329.006 251.25C329.299 251.25 329.567 251.226 329.812 251.177ZM355.52 237.041C355.861 236.016 356.398 235.137 357.131 234.404C357.912 233.672 358.742 233.062 359.621 232.573C360.549 232.036 361.501 231.597 362.478 231.255C363.454 230.913 364.382 230.62 365.261 230.376C367.214 229.546 369.289 228.765 371.486 228.032C373.732 227.251 376.003 226.567 378.298 225.981C380.642 225.396 383.034 225.029 385.476 224.883C387.917 224.688 390.48 224.98 393.166 225.762C393.312 226.25 393.532 226.714 393.825 227.153C394.118 227.593 394.411 228.032 394.704 228.472C395.046 228.911 395.339 229.351 395.583 229.79C395.827 230.181 395.974 230.596 396.022 231.035C396.511 231.475 396.901 231.963 397.194 232.5C397.487 232.988 397.536 233.647 397.341 234.478C396.853 234.868 396.364 235.234 395.876 235.576C395.437 235.869 394.948 236.138 394.411 236.382C392.604 235.942 390.773 235.796 388.918 235.942C387.062 236.089 385.402 236.211 383.938 236.309C383.498 235.869 382.961 235.649 382.326 235.649C381.74 235.649 381.105 235.747 380.422 235.942C379.787 236.138 379.128 236.333 378.444 236.528C377.81 236.724 377.199 236.772 376.613 236.675C376.125 237.065 375.515 237.334 374.782 237.48C374.099 237.578 373.342 237.676 372.512 237.773C372.463 238.018 372.512 238.188 372.658 238.286C372.805 238.335 372.829 238.481 372.731 238.726C373.024 239.067 373.391 239.312 373.83 239.458C374.318 239.604 374.807 239.751 375.295 239.897C375.832 240.044 376.296 240.239 376.687 240.483C377.077 240.679 377.346 241.021 377.492 241.509C378.225 241.509 378.859 241.68 379.396 242.021C379.934 242.363 380.373 242.778 380.715 243.267C381.057 243.755 381.301 244.292 381.447 244.878C381.643 245.415 381.74 245.903 381.74 246.343C381.887 246.733 382.058 246.904 382.253 246.855C382.448 246.807 382.668 246.904 382.912 247.148C383.059 247.783 383.425 248.442 384.011 249.126C384.597 249.761 385.061 250.469 385.402 251.25C385.5 252.471 385.573 253.569 385.622 254.546C385.671 255.474 385.5 256.426 385.109 257.402C384.377 259.209 383.352 260.82 382.033 262.236C380.764 263.652 379.299 264.922 377.639 266.045C376.027 267.119 374.294 268.047 372.438 268.828C370.583 269.609 368.776 270.269 367.019 270.806C366.823 270.757 366.628 270.757 366.433 270.806C366.237 270.854 366.188 270.732 366.286 270.439C365.896 270.781 365.456 271.001 364.968 271.099C364.528 271.196 364.04 271.221 363.503 271.172C362.966 271.172 362.404 271.147 361.818 271.099C361.281 271.05 360.769 271.074 360.28 271.172C359.938 270.83 359.621 270.488 359.328 270.146C359.084 269.854 358.889 269.463 358.742 268.975C358.498 268.975 358.376 268.853 358.376 268.608C358.425 268.364 358.352 268.242 358.156 268.242C358.449 267.754 358.571 267.485 358.522 267.437C358.522 267.339 358.449 267.266 358.303 267.217C358.205 267.168 358.107 267.119 358.01 267.07C357.912 266.973 357.888 266.851 357.937 266.704C358.132 266.313 358.205 265.874 358.156 265.386C358.107 264.849 358.059 264.312 358.01 263.774C357.961 263.237 357.985 262.725 358.083 262.236C358.229 261.748 358.596 261.357 359.182 261.064C360.842 261.26 362.404 261.211 363.869 260.918C365.383 260.576 366.799 260.112 368.117 259.526C369.436 258.94 370.681 258.306 371.853 257.622C373.073 256.938 374.27 256.328 375.441 255.791C375.588 255.352 375.783 254.985 376.027 254.692C376.32 254.399 376.613 254.131 376.906 253.887C377.199 253.643 377.468 253.374 377.712 253.081C377.956 252.788 378.127 252.422 378.225 251.982C378.273 251.641 378.176 251.445 377.932 251.396C377.736 251.299 377.639 251.104 377.639 250.811L376.833 250.591C375.905 250.054 374.855 249.614 373.684 249.272C372.512 248.882 371.511 248.467 370.681 248.027C370.144 248.32 369.631 248.394 369.143 248.247C368.703 248.101 368.117 247.954 367.385 247.808C365.725 247.71 364.113 247.539 362.551 247.295C361.037 247.051 359.572 246.611 358.156 245.977C358.059 245.732 357.937 245.513 357.79 245.317C357.644 245.122 357.375 245.073 356.984 245.171C356.691 244.78 356.398 244.414 356.105 244.072C355.812 243.682 355.544 243.267 355.3 242.827C355.397 242.241 355.471 241.753 355.52 241.362C355.568 240.923 355.422 240.508 355.08 240.117C355.275 239.482 355.422 238.97 355.52 238.579C355.617 238.188 355.617 237.676 355.52 237.041Z" fill="#E6E6E6"/>
</svg>
