<svg width="503" height="511" viewBox="0 0 503 511" fill="none" xmlns="http://www.w3.org/2000/svg">
<path d="M285.781 58.1219L445.927 293.781L210.268 453.927L50.1219 218.268L285.781 58.1219Z" fill="#14279B"/>
<path d="M182.801 64.6989L438.301 190.801L312.199 446.301L56.6989 320.199L182.801 64.6989Z" fill="#B5CFE8"/>
<path d="M121 263.17C121 262.525 121.088 261.939 121.264 261.412C121.439 260.885 121.469 260.211 121.352 259.391C123.168 255.523 125.219 251.949 127.504 248.668C129.848 245.328 132.631 242.398 135.854 239.879C136.381 239.469 136.791 239.059 137.084 238.648C137.436 238.18 137.758 237.74 138.051 237.33C138.402 236.92 138.783 236.568 139.193 236.275C139.604 235.924 140.131 235.689 140.775 235.572C142.24 233.873 143.998 232.32 146.049 230.914C148.1 229.508 150.238 228.16 152.465 226.871C154.691 225.582 156.918 224.264 159.145 222.916C161.43 221.568 163.48 220.104 165.297 218.521C165.941 218.932 166.439 219.078 166.791 218.961C167.201 218.785 167.611 218.756 168.021 218.873C168.549 219.986 169.223 220.777 170.043 221.246C170.922 221.656 171.801 222.096 172.68 222.564C173.617 222.975 174.467 223.502 175.229 224.146C176.049 224.732 176.664 225.553 177.074 226.607C176.664 226.607 176.459 226.754 176.459 227.047C176.518 227.34 176.605 227.662 176.723 228.014C176.84 228.365 176.898 228.688 176.898 228.98C176.898 229.273 176.635 229.42 176.107 229.42C176.107 229.83 176.312 230.035 176.723 230.035C177.133 230.035 177.338 230.24 177.338 230.65C177.338 231.002 177.25 231.295 177.074 231.529C176.957 231.705 176.957 232.027 177.074 232.496C175.668 233.434 174.086 234.342 172.328 235.221C170.629 236.041 168.812 236.92 166.879 237.857C165.004 238.795 163.07 239.82 161.078 240.934C159.145 241.988 157.211 243.219 155.277 244.625C153.344 246.031 151.381 247.584 149.389 249.283C147.455 250.982 145.58 252.799 143.764 254.732C141.947 256.607 140.248 258.57 138.666 260.621C137.084 262.613 135.736 264.576 134.623 266.51C134.74 266.803 134.887 267.066 135.062 267.301C135.297 267.535 135.473 267.799 135.59 268.092C137.816 268.209 139.896 268.209 141.83 268.092C143.764 267.916 145.697 268.033 147.631 268.443C147.865 268.268 148.012 268.033 148.07 267.74C148.129 267.447 148.305 267.242 148.598 267.125C152.582 266.715 156.303 266.07 159.76 265.191C163.217 264.254 166.732 263.316 170.307 262.379C169.252 261.969 168.314 261.646 167.494 261.412C167.143 261.061 167.143 260.768 167.494 260.533C167.904 260.24 168.227 259.947 168.461 259.654C167.523 259.127 166.732 258.424 166.088 257.545C165.502 256.666 165.15 255.523 165.033 254.117C165.443 253.766 165.648 253.355 165.648 252.887C165.648 252.418 165.443 252.037 165.033 251.744C164.74 251.627 164.564 251.627 164.506 251.744C164.447 251.861 164.389 251.979 164.33 252.096C164.33 252.213 164.271 252.33 164.154 252.447C164.096 252.564 163.949 252.564 163.715 252.447C163.773 251.803 163.92 251.275 164.154 250.865C164.389 250.455 164.564 249.957 164.682 249.371L171.977 244.537C172.738 245.123 173.676 245.738 174.789 246.383C175.902 247.027 177.074 247.672 178.305 248.316C179.535 248.961 180.795 249.635 182.084 250.338C183.373 250.982 184.574 251.627 185.688 252.271C186.742 252.74 187.65 253.326 188.412 254.029C189.174 254.674 189.906 255.377 190.609 256.139C191.312 256.842 192.016 257.545 192.719 258.248C193.422 258.951 194.271 259.537 195.268 260.006C195.15 260.943 195.209 261.705 195.443 262.291C195.678 262.877 195.736 263.58 195.619 264.4C194.506 266.393 193.158 268.092 191.576 269.498C189.994 270.846 188.207 272.018 186.215 273.014C184.281 274.01 182.201 274.859 179.975 275.562C177.748 276.207 175.463 276.852 173.119 277.496C170.775 278.082 168.402 278.727 166 279.43C163.656 280.074 161.342 280.836 159.057 281.715C158.061 281.715 157.211 281.744 156.508 281.803C155.805 281.861 155.131 281.949 154.486 282.066C153.842 282.184 153.197 282.301 152.553 282.418C151.908 282.535 151.205 282.623 150.443 282.682C150.15 282.623 149.945 282.682 149.828 282.857C149.77 283.033 149.652 283.18 149.477 283.297C148.305 283.473 147.25 283.561 146.312 283.561C145.375 283.561 144.584 283.561 143.939 283.561C143.119 283.561 142.27 283.678 141.391 283.912C140.512 284.146 139.691 284.234 138.93 284.176C133.656 283.941 129.525 282.066 126.537 278.551C123.549 275.035 121.908 270.201 121.615 264.049C121.674 263.756 121.615 263.58 121.439 263.521C121.264 263.404 121.117 263.287 121 263.17ZM206.166 277.848C206.459 279.605 206.342 280.982 205.814 281.979C205.346 282.975 204.643 283.707 203.705 284.176C202.826 284.703 201.801 284.996 200.629 285.055C199.457 285.113 198.344 285.055 197.289 284.879C196.703 284.059 196.176 283.033 195.707 281.803C195.238 280.572 194.799 279.312 194.389 278.023C193.979 276.676 193.598 275.357 193.246 274.068C192.953 272.779 192.689 271.637 192.455 270.641C192.748 269.938 192.924 269.146 192.982 268.268C193.1 267.33 193.158 266.393 193.158 265.455C193.217 264.518 193.246 263.58 193.246 262.643C193.305 261.646 193.393 260.709 193.51 259.83C193.92 257.369 194.506 255.025 195.268 252.799C196.088 250.572 196.732 248.258 197.201 245.855C197.318 245.328 197.26 244.83 197.025 244.361C196.85 243.893 196.82 243.453 196.938 243.043C196.996 242.809 197.172 242.662 197.465 242.604C197.758 242.486 197.934 242.281 197.992 241.988C198.168 241.344 198.197 240.816 198.08 240.406C198.021 239.996 198.139 239.498 198.432 238.912C198.725 238.443 199.076 237.77 199.486 236.891C199.955 235.953 200.131 234.986 200.014 233.99C200.541 233.639 201.039 233.229 201.508 232.76C201.977 232.291 202.445 231.881 202.914 231.529C203.441 231.119 203.998 230.768 204.584 230.475C205.229 230.182 205.99 230.035 206.869 230.035C207.338 230.621 207.631 231.266 207.748 231.969C207.924 232.672 208.07 233.375 208.188 234.078C208.363 234.781 208.598 235.455 208.891 236.1C209.184 236.686 209.682 237.154 210.385 237.506C210.385 237.975 210.385 238.561 210.385 239.264C210.385 239.967 210.414 240.67 210.473 241.373C210.531 242.018 210.648 242.633 210.824 243.219C211.059 243.746 211.41 244.098 211.879 244.273C210.824 247.086 209.828 249.869 208.891 252.623C208.012 255.377 207.279 258.16 206.693 260.973C206.107 263.727 205.727 266.51 205.551 269.322C205.434 272.135 205.639 274.977 206.166 277.848ZM230.512 274.859C229.867 277.203 229.281 278.99 228.754 280.221C228.285 281.393 227.553 282.623 226.557 283.912C225.795 283.795 225.268 283.883 224.975 284.176C224.682 284.469 224.359 284.732 224.008 284.967C223.48 285.084 223.1 285.084 222.865 284.967C222.631 284.85 222.426 284.703 222.25 284.527C222.074 284.41 221.84 284.264 221.547 284.088C221.312 283.971 220.932 283.912 220.404 283.912C220.287 283.443 220.141 283.004 219.965 282.594C219.848 282.184 219.467 282.037 218.822 282.154C218.939 281.686 218.969 281.305 218.91 281.012C218.852 280.66 218.764 280.367 218.646 280.133C218.588 279.84 218.529 279.576 218.471 279.342C218.412 279.049 218.441 278.697 218.559 278.287C218.266 278.287 218.031 278.082 217.855 277.672C217.68 277.262 217.475 276.852 217.24 276.441C217.416 275.387 217.592 274.391 217.768 273.453C217.943 272.516 218.148 271.637 218.383 270.816C218.676 269.996 218.91 269.176 219.086 268.355C219.262 267.535 219.174 266.686 218.822 265.807C219.057 265.982 219.232 265.953 219.35 265.719C219.467 265.426 219.555 265.074 219.613 264.664C219.672 264.195 219.701 263.756 219.701 263.346C219.701 262.877 219.672 262.496 219.613 262.203C220.199 260.68 220.668 259.127 221.02 257.545C221.43 255.904 221.781 254.293 222.074 252.711C222.426 251.129 222.777 249.576 223.129 248.053C223.48 246.529 223.949 245.123 224.535 243.834C225.18 243.717 225.883 243.805 226.645 244.098C227.465 244.332 227.963 244.654 228.139 245.064C229.662 243.893 231.01 242.486 232.182 240.846C233.354 239.146 234.555 237.506 235.785 235.924C237.016 234.342 238.363 232.936 239.828 231.705C241.352 230.475 243.256 229.742 245.541 229.508C246.713 230.387 248.002 231.295 249.408 232.232C250.873 233.111 252.074 234.283 253.012 235.748C253.48 235.982 253.861 236.246 254.154 236.539C254.506 236.773 254.916 237.037 255.385 237.33V238.385C256.088 239.029 256.645 239.791 257.055 240.67C257.523 241.49 257.934 242.398 258.285 243.395C258.637 244.332 258.988 245.299 259.34 246.295C259.691 247.232 260.102 248.141 260.57 249.02C260.453 249.312 260.395 249.576 260.395 249.811C260.395 249.986 260.424 250.191 260.482 250.426C260.6 250.66 260.688 250.895 260.746 251.129C260.805 251.363 260.805 251.686 260.746 252.096C260.57 254.674 259.721 256.754 258.197 258.336C256.732 259.918 254.945 261.236 252.836 262.291C250.727 263.287 248.471 264.137 246.068 264.84C243.666 265.543 241.498 266.305 239.564 267.125C239.564 267.359 239.652 267.477 239.828 267.477C240.062 267.477 240.15 267.623 240.092 267.916C241.498 268.795 242.611 269.498 243.432 270.025C244.252 270.553 245.014 270.992 245.717 271.344C246.479 271.695 247.27 272.018 248.09 272.311C248.969 272.545 250.17 272.838 251.693 273.189C253.217 273.541 254.389 273.834 255.209 274.068C256.088 274.244 256.879 274.42 257.582 274.596C258.285 274.713 258.988 274.83 259.691 274.947C260.453 275.006 261.508 275.094 262.855 275.211C263.383 275.738 263.822 276.383 264.174 277.145C264.584 277.848 264.848 278.58 264.965 279.342C265.082 280.045 265.111 280.748 265.053 281.451C264.994 282.096 264.789 282.623 264.438 283.033C264.496 283.209 264.613 283.297 264.789 283.297C265.023 283.238 265.258 283.238 265.492 283.297C265.141 283.531 264.848 283.824 264.613 284.176C264.379 284.527 264.145 284.879 263.91 285.23C263.676 285.582 263.412 285.875 263.119 286.109C262.826 286.402 262.416 286.578 261.889 286.637C260.072 287.34 257.787 287.369 255.033 286.725C252.279 286.139 248.793 285.025 244.574 283.385C242.465 282.564 240.736 281.861 239.389 281.275C238.1 280.631 236.957 280.016 235.961 279.43C235.023 278.785 234.145 278.111 233.324 277.408C232.562 276.705 231.625 275.855 230.512 274.859ZM243.08 244.713C242.436 245.65 241.703 246.5 240.883 247.262C240.121 248.023 239.359 248.814 238.598 249.635C237.895 250.396 237.25 251.275 236.664 252.271C236.078 253.209 235.668 254.322 235.434 255.611C237.484 255.377 239.623 254.82 241.85 253.941C244.076 253.004 246.186 252.125 248.178 251.305C247.943 249.488 247.299 248.023 246.244 246.91C245.248 245.797 244.193 245.064 243.08 244.713ZM311.547 276.617C311.195 277.613 310.668 278.639 309.965 279.693C309.32 280.689 308.529 281.598 307.592 282.418C306.713 283.18 305.717 283.824 304.604 284.352C303.49 284.879 302.318 285.172 301.088 285.23C300.326 285.055 299.799 284.85 299.506 284.615C299.271 284.439 299.008 284.264 298.715 284.088C298.539 283.971 298.363 283.883 298.188 283.824C298.07 283.707 297.953 283.619 297.836 283.561L296.781 283.121L297.133 281.979C297.25 281.51 297.221 281.158 297.045 280.924C296.869 280.631 296.518 280.25 295.99 279.781C295.814 279.605 295.639 279.43 295.463 279.254C295.287 279.078 295.141 278.902 295.023 278.727L293.529 277.057L295.902 276.441C297.367 276.031 298.334 275.504 298.803 274.859C299.33 274.215 299.535 273.131 299.418 271.607C298.246 271.373 297.25 271.344 296.43 271.52C295.668 271.695 294.877 271.9 294.057 272.135C293.002 272.428 291.918 272.691 290.805 272.926C289.75 273.102 288.578 273.189 287.289 273.189C286.82 273.189 286.381 273.189 285.971 273.189C285.561 273.131 285.121 273.072 284.652 273.014L283.773 272.838C283.656 272.193 283.539 271.842 283.422 271.783C283.305 271.666 283.188 271.549 283.07 271.432C282.777 271.139 282.455 270.758 282.104 270.289C281.811 269.762 281.752 269.117 281.928 268.355C281.635 267.828 281.459 267.301 281.4 266.773C281.049 267.477 280.785 268.209 280.609 268.971L280.258 269.85L279.379 270.025C279.262 270.084 279.174 270.23 279.115 270.465C279.057 270.641 279.027 270.787 279.027 270.904L278.588 272.398C278.471 272.516 278.354 272.633 278.236 272.75C278.119 272.809 278.002 272.896 277.885 273.014C277.768 273.541 277.621 274.068 277.445 274.596C277.27 275.123 277.094 275.621 276.918 276.09C276.625 276.852 276.361 277.613 276.127 278.375C275.951 279.078 275.893 279.781 275.951 280.484L275.6 281.451C275.307 281.803 274.984 282.096 274.633 282.33C274.281 282.506 273.93 282.682 273.578 282.857C273.461 282.975 273.285 283.092 273.051 283.209C272.875 283.268 272.729 283.326 272.611 283.385L272.348 284.352L271.293 284.527C270.648 284.645 270.18 284.732 269.887 284.791C269.652 284.85 269.359 284.879 269.008 284.879L268.129 284.791C267.484 284.264 266.986 283.854 266.635 283.561C266.283 283.209 265.873 282.887 265.404 282.594C264.877 281.891 264.584 281.363 264.525 281.012C264.467 280.66 264.408 280.338 264.35 280.045C264.232 279.693 264.174 279.4 264.174 279.166C264.115 278.932 264.027 278.756 263.91 278.639L262.768 277.584L263.734 276.793L263.822 275.299C264.994 272.311 266.225 269.439 267.514 266.686C268.861 263.932 270.238 261.119 271.645 258.248C272.113 257.311 272.553 256.373 272.963 255.436C273.432 254.498 273.9 253.561 274.369 252.623C274.311 252.447 274.281 252.242 274.281 252.008C274.281 251.773 274.34 251.51 274.457 251.217C275.102 250.221 275.629 249.342 276.039 248.58C276.449 247.76 276.859 246.939 277.27 246.119C277.738 245.123 278.207 244.156 278.676 243.219C279.203 242.281 279.848 241.314 280.609 240.318L282.016 239.703C282.191 239.645 282.396 239.586 282.631 239.527C282.865 239.41 283.129 239.352 283.422 239.352L284.74 239.527C286.381 238.766 287.816 237.711 289.047 236.363C290.277 234.957 291.537 233.287 292.826 231.354L293.705 230.123L294.848 230.826C295.141 231.002 295.551 231.178 296.078 231.354C296.605 231.471 297.162 231.617 297.748 231.793C298.803 232.027 299.799 232.291 300.736 232.584C301.674 232.877 302.436 233.316 303.021 233.902C303.373 234.84 303.578 235.543 303.637 236.012C303.695 236.48 303.783 236.949 303.9 237.418C304.076 238.414 304.223 239.41 304.34 240.406C304.516 241.402 304.633 242.516 304.691 243.746C304.984 244.742 305.219 245.738 305.395 246.734C305.629 247.672 305.834 248.639 306.01 249.635C306.303 251.041 306.596 252.418 306.889 253.766C307.182 255.055 307.562 256.285 308.031 257.457C308.5 257.457 308.793 257.486 308.91 257.545C309.203 257.428 309.496 257.34 309.789 257.281C310.141 257.223 310.521 257.164 310.932 257.105L311.898 257.018L312.25 257.896C312.309 258.189 312.602 258.482 313.129 258.775C313.891 258.834 314.447 259.01 314.799 259.303C315.15 259.537 315.473 259.801 315.766 260.094C316 260.328 316.234 260.504 316.469 260.621L317.787 261.148L317.084 262.467C316.498 263.521 315.648 264.547 314.535 265.543C313.48 266.48 312.279 267.271 310.932 267.916C310.99 268.268 311.02 268.619 311.02 268.971C311.078 269.264 311.166 269.586 311.283 269.938C311.459 270.934 311.605 271.959 311.723 273.014C311.84 274.068 311.84 275.152 311.723 276.266L311.547 276.617ZM286.146 261.412C287.904 261.295 289.486 261.178 290.893 261.061C292.357 260.885 293.969 260.621 295.727 260.27C295.316 258.512 294.877 256.695 294.408 254.82C293.939 252.887 293.441 250.982 292.914 249.107L292.387 249.986C291.215 251.217 290.072 252.594 288.959 254.117C287.904 255.641 286.996 257.076 286.234 258.424C285.883 258.951 285.531 259.479 285.18 260.006C284.828 260.533 284.506 261.061 284.213 261.588C284.564 261.529 284.887 261.5 285.18 261.5C285.531 261.5 285.854 261.471 286.146 261.412ZM318.666 208.854C319.662 208.912 320.424 209.176 320.951 209.645C321.537 210.113 321.83 210.758 321.83 211.578C321.713 212.281 321.508 212.867 321.215 213.336C320.805 214.273 320.424 215.006 320.072 215.533C319.779 216.002 319.457 216.5 319.105 217.027C318.578 217.848 318.051 218.639 317.523 219.4C317.055 220.162 316.498 220.953 315.854 221.773C315.443 222.125 315.121 222.359 314.887 222.477C314.359 222.945 313.803 223.385 313.217 223.795C312.631 224.146 312.016 224.469 311.371 224.762C310.316 225.172 309.32 225.436 308.383 225.553C307.504 225.611 306.537 225.641 305.482 225.641H304.252C303.607 225.582 302.934 225.523 302.23 225.465C301.586 225.406 301.029 225.318 300.561 225.201C299.682 224.732 298.979 224.322 298.451 223.971C297.982 223.619 297.514 223.268 297.045 222.916C296.518 222.564 296.078 222.184 295.727 221.773C295.375 221.363 295.053 220.953 294.76 220.543C294.525 220.191 294.232 219.869 293.881 219.576C293.588 219.225 293.295 219.049 293.002 219.049C292.709 219.107 292.416 219.283 292.123 219.576C291.889 219.869 291.625 220.162 291.332 220.455C291.215 220.572 291.098 220.719 290.98 220.895C290.863 221.012 290.746 221.129 290.629 221.246C290.277 222.359 289.574 223.268 288.52 223.971C287.992 224.264 287.582 224.439 287.289 224.498C286.996 224.557 286.732 224.645 286.498 224.762L285.619 224.938L284.74 225.113L283.861 225.025C282.982 225.318 282.25 225.465 281.664 225.465C280.492 225.406 279.613 225.143 279.027 224.674C278.5 224.146 278.236 223.502 278.236 222.74C278.354 222.037 278.559 221.451 278.852 220.982C279.32 220.045 279.701 219.312 279.994 218.785C280.346 218.258 280.697 217.73 281.049 217.203C281.518 216.441 281.986 215.68 282.455 214.918C282.982 214.156 283.568 213.365 284.213 212.545C284.623 212.193 284.945 211.959 285.18 211.842C285.707 211.373 286.264 210.963 286.85 210.611C287.436 210.201 288.051 209.85 288.695 209.557C289.75 209.146 290.717 208.912 291.596 208.854C292.533 208.736 293.529 208.678 294.584 208.678H295.814C297.162 208.795 298.393 208.941 299.506 209.117C300.385 209.586 301.059 209.996 301.527 210.348C302.055 210.699 302.553 211.051 303.021 211.402C303.549 211.754 303.988 212.135 304.34 212.545C304.691 212.955 305.014 213.365 305.307 213.775C306.01 214.771 306.625 215.24 307.152 215.182C307.445 215.182 307.709 215.064 307.943 214.83C308.178 214.537 308.441 214.215 308.734 213.863C308.852 213.688 309.086 213.424 309.438 213.072C309.789 211.959 310.492 211.051 311.547 210.348C312.367 209.938 313.041 209.674 313.568 209.557L314.447 209.381L315.326 209.205H316.205C316.908 208.971 317.641 208.854 318.402 208.854H318.666ZM368.588 257.633C368.529 258.336 368.588 259.01 368.764 259.654C368.939 260.299 369.145 260.943 369.379 261.588C369.672 262.174 369.936 262.789 370.17 263.434C370.404 264.078 370.58 264.723 370.697 265.367C370.814 266.188 370.814 267.096 370.697 268.092C370.58 269.029 370.375 269.967 370.082 270.904C369.789 271.783 369.408 272.604 368.939 273.365C368.471 274.068 367.914 274.596 367.27 274.947C366.449 276.002 365.453 276.822 364.281 277.408C363.109 277.994 362.025 278.697 361.029 279.518C360.385 279.928 359.652 280.221 358.832 280.396C358.07 280.572 357.279 280.748 356.459 280.924C355.814 281.275 355.053 281.656 354.174 282.066C353.295 282.418 352.387 282.77 351.449 283.121C350.512 283.414 349.574 283.648 348.637 283.824C347.699 283.941 346.879 283.971 346.176 283.912C344.418 284.557 342.689 284.967 340.99 285.143C339.35 285.377 337.416 285.26 335.189 284.791C333.08 285.084 331.117 284.996 329.301 284.527C327.543 284.059 325.961 283.326 324.555 282.33C323.207 281.275 322.006 280.045 320.951 278.639C319.955 277.174 319.135 275.65 318.49 274.068C318.021 270.729 318.139 267.711 318.842 265.016C319.545 262.262 320.541 259.742 321.83 257.457C323.178 255.113 324.701 252.975 326.4 251.041C328.1 249.049 329.74 247.115 331.322 245.24C331.674 245.357 331.938 245.357 332.113 245.24C332.348 245.064 332.553 244.859 332.729 244.625C332.904 244.332 333.08 244.068 333.256 243.834C333.49 243.6 333.754 243.453 334.047 243.395C334.457 242.516 335.043 241.871 335.805 241.461C336.625 240.992 337.27 240.348 337.738 239.527C338.266 239.41 338.705 239.234 339.057 239C339.408 238.766 339.73 238.502 340.023 238.209C340.375 237.916 340.727 237.652 341.078 237.418C341.43 237.125 341.84 236.92 342.309 236.803V235.836C343.363 235.367 344.125 234.84 344.594 234.254C345.121 233.609 345.736 232.848 346.439 231.969C346.967 231.91 347.377 231.881 347.67 231.881C348.021 231.881 348.52 231.822 349.164 231.705C349.633 230.885 350.043 230.27 350.395 229.859C350.805 229.449 351.391 229.01 352.152 228.541C352.855 228.893 353.617 229.127 354.438 229.244C355.316 229.361 356.078 229.742 356.723 230.387C356.781 230.973 356.957 231.441 357.25 231.793C357.543 232.086 357.865 232.379 358.217 232.672C358.568 232.906 358.891 233.17 359.184 233.463C359.535 233.756 359.77 234.166 359.887 234.693C360.121 234.752 360.268 234.723 360.326 234.605C360.443 234.488 360.619 234.459 360.854 234.518C361.029 235.338 361.234 235.895 361.469 236.188C361.703 236.422 361.938 236.92 362.172 237.682C361.879 238.268 361.645 238.883 361.469 239.527C361.352 240.113 361 240.553 360.414 240.846C360.355 241.256 360.473 241.49 360.766 241.549C361.059 241.549 361.234 241.695 361.293 241.988C361.352 242.516 361.264 242.896 361.029 243.131C362.436 245.416 363.695 247.848 364.809 250.426C365.922 252.945 367.182 255.348 368.588 257.633ZM357.602 265.982C357.836 265.338 358.129 264.811 358.48 264.4C358.891 263.99 359.125 263.375 359.184 262.555C358.891 262.086 358.715 261.734 358.656 261.5C358.598 261.207 358.568 260.768 358.568 260.182C357.279 258.365 356.166 256.432 355.229 254.381C354.291 252.271 353.236 250.309 352.064 248.492C351.947 248.727 351.742 248.961 351.449 249.195C351.156 249.43 350.834 249.371 350.482 249.02C350.365 249.488 350.16 249.84 349.867 250.074C349.574 250.25 349.252 250.338 348.9 250.338C348.549 250.279 348.168 250.191 347.758 250.074C347.406 249.898 347.084 249.693 346.791 249.459C345.092 250.807 343.393 252.125 341.693 253.414C339.994 254.703 338.471 256.197 337.123 257.896C336.889 258.014 336.742 258.072 336.684 258.072C336.625 258.014 336.449 258.043 336.156 258.16C335.688 259.273 335.102 260.299 334.398 261.236C333.754 262.115 333.109 263.023 332.465 263.961C331.82 264.898 331.264 265.895 330.795 266.949C330.326 268.004 330.062 269.234 330.004 270.641C331 271.461 332.172 271.959 333.52 272.135C334.867 272.311 336.244 272.34 337.65 272.223C339.115 272.105 340.521 271.93 341.869 271.695C343.275 271.402 344.564 271.256 345.736 271.256C348.197 270.67 350.307 269.908 352.064 268.971C353.822 267.975 355.668 266.979 357.602 265.982Z" fill="#14279B"/>
</svg>
